<svg width="61" height="60" viewBox="0 0 61 60" fill="none" xmlns="http://www.w3.org/2000/svg">
<path d="M10.5 20C11.8807 20 13 18.8807 13 17.5C13 16.1193 11.8807 15 10.5 15C9.11929 15 8 16.1193 8 17.5C8 18.8807 9.11929 20 10.5 20Z" fill="#605ED8"/>
<path d="M10.5 32.5C11.8807 32.5 13 31.3807 13 30C13 28.6193 11.8807 27.5 10.5 27.5C9.11929 27.5 8 28.6193 8 30C8 31.3807 9.11929 32.5 10.5 32.5Z" fill="#605ED8"/>
<path d="M10.5 45C11.8807 45 13 43.8807 13 42.5C13 41.1193 11.8807 40 10.5 40C9.11929 40 8 41.1193 8 42.5C8 43.8807 9.11929 45 10.5 45Z" fill="#605ED8"/>
<path d="M50.65 27.5H20.35C19.0521 27.5 18 28.5521 18 29.85V30.15C18 31.4479 19.0521 32.5 20.35 32.5H50.65C51.9479 32.5 53 31.4479 53 30.15V29.85C53 28.5521 51.9479 27.5 50.65 27.5Z" fill="#605ED8"/>
<path d="M50.65 40H20.35C19.0521 40 18 41.0521 18 42.35V42.65C18 43.9479 19.0521 45 20.35 45H50.65C51.9479 45 53 43.9479 53 42.65V42.35C53 41.0521 51.9479 40 50.65 40Z" fill="#605ED8"/>
<path d="M50.65 15H20.35C19.0521 15 18 16.0521 18 17.35V17.65C18 18.9479 19.0521 20 20.35 20H50.65C51.9479 20 53 18.9479 53 17.65V17.35C53 16.0521 51.9479 15 50.65 15Z" fill="#605ED8"/>
</svg>
