<svg width="20" height="20" viewBox="0 0 20 20" fill="none" xmlns="http://www.w3.org/2000/svg">
<path d="M7.86901 3.33389L1.20079 16.4323C0.509826 17.7895 1.71274 19.351 3.12511 18.9301L16.7554 14.8686M10.7457 7.06497C13.1245 5.98767 16.6968 3.26648 11.9559 1M13.8182 11.75C13.8106 9.88903 14.8364 6.40758 19 7.3694M8.83715 17.0826C7.99056 16.6779 5.81215 14.8221 3.87125 10.6368M7.86993 3.33394C8.94312 2.42669 11.8024 4.27336 14.2563 7.45859C16.7102 10.6438 17.8295 13.9614 16.7563 14.8687C15.6831 15.7759 12.8238 13.9293 10.3699 10.744C7.91603 7.5588 6.79675 4.24119 7.86993 3.33394Z" stroke="black" stroke-width="1.4"/>
</svg>
