<svg width="25" height="24" viewBox="0 0 25 24" fill="none" xmlns="http://www.w3.org/2000/svg">
<path d="M2.5 4C2.5 2.89543 3.39543 2 4.5 2H20.5C21.6046 2 22.5 2.89543 22.5 4V4.81751C22.5 5.57739 22.2116 6.30895 21.6932 6.86447L16.0379 12.9237C15.6922 13.294 15.5 13.7817 15.5 14.2883V18.382C15.5 18.7607 15.286 19.107 14.9472 19.2764L10.9472 21.2764C10.2823 21.6088 9.5 21.1253 9.5 20.382V14.2883C9.5 13.7817 9.30776 13.294 8.96211 12.9237L3.30683 6.86446C2.78836 6.30895 2.5 5.57739 2.5 4.81751V4Z" stroke="#2B3F6C" stroke-width="1.5"/>
</svg>
