<svg width="59" height="65" viewBox="0 0 59 65" fill="none" xmlns="http://www.w3.org/2000/svg">
<g clipPath="url(#clip0_882_1483)">
<rect width="59" height="65" fill="white"/>
<path d="M17 11H42.093C42.093 15.6484 38.3247 19.4167 33.6763 19.4167H17V11Z" fill="url(#paint0_linear_882_1483)"/>
<path d="M17 34.6177C17 29.1077 21.4667 24.641 26.9767 24.641V45.5377H17V34.6177Z" fill="#0A0929"/>
<path d="M17 31.8968C17 27.8895 20.2485 24.641 24.2558 24.641H40.2791V31.8968H17Z" fill="#0A0929"/>
<rect x="17" y="37.4108" width="26" height="8.12651" fill="#0A0929"/>
<path d="M8.32227 59.5337C8.60742 59.5337 8.81055 59.6489 8.93164 59.8794C9.05273 60.1099 9.11328 60.4497 9.11328 60.8989C9.11328 61.3481 9.08203 61.6001 9.01953 61.6548C7.63672 61.5962 6.36914 61.563 5.2168 61.5552C4.06836 61.5474 3.33203 61.5415 3.00781 61.5376C3.12109 60.604 3.17773 59.5728 3.17773 58.4438V54.647C3.17773 54.3071 3.125 54.0884 3.01953 53.9907C2.97266 53.9478 2.9043 53.9106 2.81445 53.8794C2.75586 53.8013 2.72656 53.6763 2.72656 53.5044C2.72656 53.3286 2.73242 53.2056 2.74414 53.1353C3.0918 53.1313 3.58008 53.1274 4.20898 53.1235C4.83789 53.1196 5.32422 53.1157 5.66797 53.1118C6.63281 53.1001 7.75 53.0688 9.01953 53.0181C9.08203 53.0728 9.11328 53.3247 9.11328 53.7739C9.11328 54.2231 9.05273 54.563 8.93164 54.7935C8.81055 55.0239 8.58398 55.1392 8.25195 55.1392C7.91992 55.1392 7.6875 55.0356 7.55469 54.8286V54.1196C6.41406 54.0649 5.50586 54.0376 4.83008 54.0376C4.92773 54.4673 4.97656 54.9946 4.97656 55.6196C4.97656 55.6665 4.97656 55.7114 4.97656 55.7544V56.8442L7.49609 56.7153C7.55859 56.7896 7.58984 56.9399 7.58984 57.1665C7.58984 57.3892 7.57031 57.6177 7.53125 57.8521C7.31641 57.8833 7.00977 57.8989 6.61133 57.8989C6.2168 57.8989 5.67188 57.8599 4.97656 57.7817V58.9243C4.97656 58.9673 4.97656 59.0122 4.97656 59.0591C4.97656 59.688 4.92773 60.2134 4.83008 60.6353C5.50586 60.6353 6.41406 60.6079 7.55469 60.5532V59.8442C7.62109 59.7153 7.77344 59.6235 8.01172 59.5688C8.10547 59.5454 8.20898 59.5337 8.32227 59.5337ZM15.1515 55.1685C15.8859 55.1685 16.253 55.52 16.253 56.2231C16.253 56.7661 15.9679 57.5103 15.3976 58.4556C14.6632 59.6704 14.1007 60.7427 13.7101 61.6724C13.5695 61.7271 13.4132 61.7544 13.2413 61.7544C13.0695 61.7544 12.9015 61.7212 12.7374 61.6548C12.5734 61.5884 12.4601 61.5142 12.3976 61.4321C12.339 61.3501 12.2062 61.0532 11.9991 60.5415C11.796 60.0298 11.5812 59.4946 11.3546 58.936C11.132 58.3774 10.882 57.8384 10.6046 57.3188C10.3273 56.7993 10.0948 56.481 9.90734 56.3638C9.84484 56.3247 9.65734 56.2935 9.34484 56.27C9.34094 56.2388 9.33508 56.2056 9.32727 56.1704C9.31945 56.1313 9.31359 56.1021 9.30969 56.0825C9.29797 56.0005 9.29797 55.9263 9.30969 55.8599C9.87609 55.5435 10.5109 55.3853 11.214 55.3853C11.3429 55.3853 11.4386 55.3872 11.5011 55.3911C11.6613 55.5591 11.9015 56.0337 12.2218 56.8149C12.5421 57.5923 12.9386 58.7388 13.4113 60.2544C14.2511 57.813 14.6905 56.397 14.7296 56.0063C14.7413 55.9087 14.7472 55.7993 14.7472 55.6782C14.7472 55.5532 14.7101 55.4341 14.6359 55.3208C14.6359 55.2856 14.6925 55.2524 14.8058 55.2212C14.9191 55.186 15.0343 55.1685 15.1515 55.1685ZM18.6936 59.0063C18.8108 59.5845 19.0608 60.0513 19.4436 60.4067C19.8264 60.7622 20.2737 60.9399 20.7854 60.9399C21.2971 60.9399 21.8127 60.7192 22.3323 60.2778C22.5276 60.4067 22.6467 60.5591 22.6897 60.7349C22.3303 61.1528 21.7991 61.4517 21.0959 61.6313C20.8108 61.7056 20.4807 61.7427 20.1057 61.7427C19.7346 61.7427 19.3498 61.6743 18.9514 61.5376C18.553 61.4048 18.1955 61.2095 17.8791 60.9517C17.5666 60.6938 17.3186 60.356 17.135 59.938C16.9514 59.5161 16.8596 59.0493 16.8596 58.5376C16.8596 58.0259 16.9534 57.563 17.1409 57.1489C17.3284 56.731 17.5764 56.3892 17.885 56.1235C18.5295 55.5649 19.2678 55.2856 20.0998 55.2856C20.8303 55.2856 21.4631 55.4829 21.9983 55.8774C22.2561 56.0728 22.4612 56.3267 22.6135 56.6392C22.7698 56.9478 22.8479 57.2974 22.8479 57.688C22.8479 58.356 22.6272 58.7075 22.1858 58.7427L18.6936 59.0063ZM21.2717 57.5122C21.2717 57.0474 21.1428 56.6841 20.885 56.4224C20.6272 56.1606 20.2893 56.0298 19.8713 56.0298C19.4534 56.0298 19.137 56.2271 18.9221 56.6216C18.7073 57.0122 18.5998 57.5552 18.5998 58.2505C19.5725 58.145 20.4514 58.0337 21.2366 57.9165C21.26 57.7759 21.2717 57.6411 21.2717 57.5122ZM28.5638 60.2661L28.6224 58.0337C28.6224 57.5259 28.6048 57.2056 28.5697 57.0728C28.5384 56.9399 28.4974 56.8403 28.4466 56.7739C28.3373 56.6372 28.1771 56.5688 27.9662 56.5688C27.7552 56.5688 27.5755 56.5923 27.4271 56.6392C27.1224 56.7407 26.7318 57.0259 26.2552 57.4946C26.2552 58.0024 26.2435 59.354 26.2201 61.5493C25.7865 61.6235 25.4252 61.6606 25.1361 61.6606C24.847 61.6606 24.6029 61.6235 24.4037 61.5493C24.474 60.6001 24.5091 59.7251 24.5091 58.9243C24.5091 58.1196 24.4994 57.4263 24.4798 56.8442C24.4798 56.5474 24.3744 56.3716 24.1634 56.3169C24.0306 56.2739 23.8431 56.2427 23.6009 56.2231C23.5775 56.1216 23.5658 56.0415 23.5658 55.9829C23.5658 55.9204 23.5736 55.8638 23.5892 55.813C24.1517 55.4966 24.8509 55.3384 25.6869 55.3384C25.8236 55.3384 25.9252 55.3403 25.9916 55.3442C26.1439 55.606 26.2279 56.0552 26.2435 56.6919C26.974 55.7544 27.8295 55.2856 28.8099 55.2856C29.263 55.2856 29.6166 55.4399 29.8705 55.7485C30.1283 56.0532 30.2748 56.4673 30.3099 56.9907C30.3255 57.229 30.3334 57.4673 30.3334 57.7056C30.3334 57.9438 30.3216 58.2017 30.2982 58.479C30.2318 59.3228 30.1986 59.9692 30.1986 60.4185C30.1986 60.52 30.2709 60.5981 30.4154 60.6528C30.5599 60.7075 30.7005 60.7349 30.8373 60.7349C30.9779 60.7349 31.0736 60.7271 31.1244 60.7114C31.1712 60.8169 31.1947 60.9146 31.1947 61.0044C31.1947 61.0903 31.1908 61.1489 31.183 61.1802C30.4525 61.5591 29.9076 61.7485 29.5482 61.7485C29.1888 61.7485 28.9349 61.6274 28.7865 61.3853C28.638 61.1392 28.5638 60.7661 28.5638 60.2661ZM35.4458 60.3599C35.5864 60.4888 35.6665 60.6216 35.686 60.7583C35.1704 61.4146 34.5747 61.7427 33.8989 61.7427C33.4575 61.7427 33.145 61.5669 32.9614 61.2153C32.8052 60.9067 32.7095 60.3774 32.6743 59.6274C32.643 58.4556 32.6274 57.3638 32.6274 56.3521C32.229 56.3364 31.9848 56.3169 31.895 56.2935C31.8755 56.2622 31.8657 56.147 31.8657 55.9478C31.8657 55.7485 31.8755 55.6392 31.895 55.6196L32.6391 55.5493C32.6391 55.4673 32.6509 55.0747 32.6743 54.3716C32.8696 54.1724 33.1548 54.02 33.5298 53.9146C33.9087 53.8052 34.2446 53.7505 34.5376 53.7505C34.4829 54.2466 34.438 54.8462 34.4028 55.5493C34.5317 55.5532 34.9204 55.5767 35.5688 55.6196C35.5884 55.686 35.5981 55.813 35.5981 56.0005C35.5981 56.188 35.5884 56.3013 35.5688 56.3403C35.2095 56.3872 34.8091 56.4165 34.3677 56.4282C34.352 56.8931 34.3442 57.481 34.3442 58.1919C34.3442 58.8989 34.3598 59.5669 34.3911 60.1958C34.4028 60.438 34.5239 60.5591 34.7544 60.5591C34.9888 60.5591 35.2192 60.4927 35.4458 60.3599ZM43.3297 58.3501C43.3297 58.8618 43.2379 59.3423 43.0543 59.7915C42.8707 60.2407 42.6109 60.6079 42.275 60.8931C41.5992 61.4673 40.7066 61.7544 39.5973 61.7544C39.0426 61.7544 38.5309 61.6235 38.0621 61.3618C37.5934 61.1001 37.2203 60.7349 36.943 60.2661C36.6656 59.7935 36.527 59.231 36.527 58.5786C36.527 57.9224 36.6949 57.3325 37.0309 56.8091C37.691 55.7778 38.7984 55.2622 40.3531 55.2622C41.1344 55.2622 41.8199 55.5298 42.4098 56.0649C43.023 56.6235 43.3297 57.3853 43.3297 58.3501ZM38.2555 58.52C38.2555 59.188 38.4488 59.772 38.8355 60.272C39.2223 60.772 39.6754 61.022 40.1949 61.022C41.1559 61.022 41.6363 60.2388 41.6363 58.6724C41.6363 57.895 41.4586 57.2642 41.1031 56.7798C40.7477 56.2954 40.2945 56.0532 39.7438 56.0532C39.4664 56.0532 39.2262 56.1235 39.023 56.2642C38.8199 56.4048 38.6656 56.5942 38.5602 56.8325C38.357 57.2896 38.2555 57.8521 38.2555 58.52ZM48.5827 57.606C48.5827 56.938 48.4304 56.604 48.1257 56.604C47.903 56.604 47.6902 56.6685 47.487 56.7974C47.2839 56.9224 47.0652 57.0981 46.8308 57.3247C46.8308 57.7153 46.8191 59.1235 46.7956 61.5493C46.362 61.6235 46.0066 61.6606 45.7292 61.6606C45.4558 61.6606 45.2195 61.6235 45.0202 61.5493C45.0671 60.9009 45.0905 59.7896 45.0905 58.2153V56.8442C45.0905 56.5474 44.987 56.3716 44.78 56.3169C44.6394 56.2739 44.4499 56.2427 44.2116 56.2231C44.1843 56.106 44.1706 56.0181 44.1706 55.9595C44.1706 55.897 44.1726 55.8481 44.1765 55.813C44.739 55.4966 45.4343 55.3384 46.2624 55.3384C46.3991 55.3384 46.5007 55.3403 46.5671 55.3442C46.6804 55.5396 46.7468 55.7427 46.7663 55.9536C46.7898 56.1646 46.8073 56.3657 46.8191 56.5571C47.3425 55.9204 47.7839 55.5337 48.1433 55.397C48.3152 55.3306 48.4968 55.2974 48.6882 55.2974C49.0788 55.2974 49.3913 55.4067 49.6257 55.6255C49.864 55.8403 49.9831 56.1567 49.9831 56.5747C49.9831 56.895 49.8659 57.1626 49.6316 57.3774C49.4011 57.5884 49.1218 57.6938 48.7937 57.6938C48.7234 57.6938 48.653 57.688 48.5827 57.6763V57.606ZM51.451 63.1958C51.494 63.356 51.5682 63.4985 51.6737 63.6235C51.783 63.7524 51.9159 63.8169 52.0721 63.8169C52.326 63.8169 52.5623 63.6489 52.7811 63.313C52.9998 62.981 53.1873 62.5122 53.3436 61.9067C53.2655 61.6841 53.0467 61.1821 52.6873 60.4009C52.3319 59.6196 51.912 58.7876 51.4276 57.9048C50.8846 56.9204 50.4862 56.3853 50.2323 56.2993C50.1737 56.2798 50.1092 56.2681 50.0389 56.2642C49.9725 56.2603 49.9139 56.2563 49.8631 56.2524C49.8084 56.2485 49.7733 56.2466 49.7577 56.2466C49.7303 56.0552 49.7166 55.9478 49.7166 55.9243C49.7166 55.897 49.7186 55.8677 49.7225 55.8364C50.3514 55.4849 50.9373 55.3091 51.4803 55.3091C51.7108 55.3091 51.9334 55.354 52.1483 55.4438C52.3631 55.5337 52.6424 55.9907 52.9862 56.8149C53.3338 57.6353 53.7264 58.8462 54.1639 60.4478C54.6756 58.7212 55.0741 57.3208 55.3592 56.2466C55.4412 55.9341 55.5858 55.6978 55.7928 55.5376C56.0037 55.3774 56.2088 55.2974 56.408 55.2974C56.9862 55.2974 57.3534 55.522 57.5096 55.9712C57.4627 55.9712 57.369 56.0454 57.2284 56.1938C57.0916 56.3384 56.9412 56.5376 56.7772 56.7915C56.6131 57.0415 56.4315 57.3813 56.2323 57.811C56.037 58.2407 55.8553 58.6821 55.6873 59.1353C55.5233 59.5884 55.3436 60.0728 55.1483 60.5884C54.953 61.1001 54.7635 61.5884 54.5799 62.0532C54.4002 62.522 54.1991 62.9731 53.9764 63.4067C53.7537 63.8403 53.5311 64.2134 53.3084 64.5259C53.0858 64.8423 52.8358 65.0942 52.5584 65.2817C52.2811 65.4731 52.0116 65.5688 51.7498 65.5688C51.492 65.5688 51.2772 65.5317 51.1053 65.4575C50.9373 65.3872 50.8065 65.2915 50.7127 65.1704C50.533 64.9243 50.4432 64.6567 50.4432 64.3677C50.4432 64.0825 50.5389 63.8325 50.7303 63.6177C50.9256 63.4028 51.1659 63.2622 51.451 63.1958Z" fill="#0A0929"/>
</g>
<defs>
<linearGradient id="paint0_linear_882_1483" x1="17" y1="15.2084" x2="42.093" y2="15.2084" gradientUnits="userSpaceOnUse">
<stop stop-color="#6966EB"/>
<stop offset="0.204" stop-color="#5F5DD6"/>
<stop offset="1" stop-color="#3B3A85"/>
</linearGradient>
<clipPath id="clip0_882_1483">
<rect width="59" height="65" fill="white"/>
</clipPath>
</defs>
</svg>
