<svg width="306" height="324" viewBox="0 0 306 324" fill="none" xmlns="http://www.w3.org/2000/svg">
<rect width="306" height="324" fill="white"/>
<path d="M110 79H193V92C193 100.837 185.837 108 177 108H110V79Z" fill="url(#paint0_linear_244_8)"/>
<path d="M110 142C110 133.163 117.163 126 126 126H143V198H110V142Z" fill="#0A0929"/>
<path d="M110 142C110 133.163 117.163 126 126 126H187V151H110V142Z" fill="#0A0929"/>
<rect x="110" y="170" width="86" height="28" fill="#0A0929"/>
<path d="M95.8594 246.656C96.6198 246.656 97.1615 246.964 97.4844 247.578C97.8073 248.193 97.9688 249.099 97.9688 250.297C97.9688 251.495 97.8854 252.167 97.7188 252.312C94.0312 252.156 90.651 252.068 87.5781 252.047C84.5156 252.026 82.5521 252.01 81.6875 252C81.9896 249.51 82.1406 246.76 82.1406 243.75V233.625C82.1406 232.719 82 232.135 81.7188 231.875C81.5938 231.76 81.4115 231.661 81.1719 231.578C81.0156 231.37 80.9375 231.036 80.9375 230.578C80.9375 230.109 80.9531 229.781 80.9844 229.594C81.9115 229.583 83.2135 229.573 84.8906 229.562C86.5677 229.552 87.8646 229.542 88.7812 229.531C91.3542 229.5 94.3333 229.417 97.7188 229.281C97.8854 229.427 97.9688 230.099 97.9688 231.297C97.9688 232.495 97.8073 233.401 97.4844 234.016C97.1615 234.63 96.5573 234.938 95.6719 234.938C94.7865 234.938 94.1667 234.661 93.8125 234.109V232.219C90.7708 232.073 88.349 232 86.5469 232C86.8073 233.146 86.9375 234.552 86.9375 236.219C86.9375 236.344 86.9375 236.464 86.9375 236.578V239.484L93.6562 239.141C93.8229 239.339 93.9062 239.74 93.9062 240.344C93.9062 240.938 93.8542 241.547 93.75 242.172C93.1771 242.255 92.3594 242.297 91.2969 242.297C90.2448 242.297 88.7917 242.193 86.9375 241.984V245.031C86.9375 245.146 86.9375 245.266 86.9375 245.391C86.9375 247.068 86.8073 248.469 86.5469 249.594C88.349 249.594 90.7708 249.521 93.8125 249.375V247.484C93.9896 247.141 94.3958 246.896 95.0312 246.75C95.2812 246.688 95.5573 246.656 95.8594 246.656ZM114.071 235.016C116.029 235.016 117.008 235.953 117.008 237.828C117.008 239.276 116.248 241.26 114.727 243.781C112.769 247.021 111.269 249.88 110.227 252.359C109.852 252.505 109.435 252.578 108.977 252.578C108.519 252.578 108.071 252.49 107.633 252.312C107.196 252.135 106.894 251.938 106.727 251.719C106.571 251.5 106.216 250.708 105.664 249.344C105.123 247.979 104.55 246.552 103.946 245.062C103.352 243.573 102.685 242.135 101.946 240.75C101.206 239.365 100.586 238.516 100.086 238.203C99.9196 238.099 99.4196 238.016 98.5863 237.953C98.5758 237.87 98.5602 237.781 98.5394 237.688C98.5185 237.583 98.5029 237.505 98.4925 237.453C98.4613 237.234 98.4613 237.036 98.4925 236.859C100.003 236.016 101.696 235.594 103.571 235.594C103.914 235.594 104.17 235.599 104.336 235.609C104.763 236.057 105.404 237.323 106.258 239.406C107.112 241.479 108.17 244.536 109.43 248.578C111.67 242.068 112.841 238.292 112.946 237.25C112.977 236.99 112.993 236.698 112.993 236.375C112.993 236.042 112.894 235.724 112.696 235.422C112.696 235.328 112.847 235.24 113.149 235.156C113.451 235.062 113.758 235.016 114.071 235.016ZM123.516 245.25C123.829 246.792 124.495 248.036 125.516 248.984C126.537 249.932 127.73 250.406 129.094 250.406C130.459 250.406 131.834 249.818 133.219 248.641C133.74 248.984 134.058 249.391 134.173 249.859C133.214 250.974 131.798 251.771 129.923 252.25C129.162 252.448 128.282 252.547 127.282 252.547C126.292 252.547 125.266 252.365 124.204 252C123.141 251.646 122.188 251.125 121.344 250.438C120.511 249.75 119.85 248.849 119.36 247.734C118.87 246.609 118.626 245.365 118.626 244C118.626 242.635 118.876 241.401 119.376 240.297C119.876 239.182 120.537 238.271 121.36 237.562C123.079 236.073 125.048 235.328 127.266 235.328C129.214 235.328 130.902 235.854 132.329 236.906C133.016 237.427 133.563 238.104 133.969 238.938C134.386 239.76 134.594 240.693 134.594 241.734C134.594 243.516 134.006 244.453 132.829 244.547L123.516 245.25ZM130.391 241.266C130.391 240.026 130.048 239.057 129.36 238.359C128.673 237.661 127.771 237.312 126.657 237.312C125.542 237.312 124.699 237.839 124.126 238.891C123.553 239.932 123.266 241.38 123.266 243.234C125.86 242.953 128.204 242.656 130.298 242.344C130.36 241.969 130.391 241.609 130.391 241.266ZM149.837 248.609L149.993 242.656C149.993 241.302 149.946 240.448 149.853 240.094C149.769 239.74 149.66 239.474 149.524 239.297C149.233 238.932 148.806 238.75 148.243 238.75C147.681 238.75 147.201 238.812 146.806 238.938C145.993 239.208 144.951 239.969 143.681 241.219C143.681 242.573 143.649 246.177 143.587 252.031C142.431 252.229 141.467 252.328 140.696 252.328C139.925 252.328 139.274 252.229 138.743 252.031C138.931 249.5 139.024 247.167 139.024 245.031C139.024 242.885 138.998 241.036 138.946 239.484C138.946 238.693 138.665 238.224 138.103 238.078C137.748 237.964 137.248 237.88 136.603 237.828C136.54 237.557 136.509 237.344 136.509 237.188C136.509 237.021 136.53 236.87 136.571 236.734C138.071 235.891 139.936 235.469 142.165 235.469C142.53 235.469 142.8 235.474 142.978 235.484C143.384 236.182 143.608 237.38 143.649 239.078C145.597 236.578 147.879 235.328 150.493 235.328C151.701 235.328 152.644 235.74 153.321 236.562C154.009 237.375 154.399 238.479 154.493 239.875C154.535 240.51 154.556 241.146 154.556 241.781C154.556 242.417 154.524 243.104 154.462 243.844C154.285 246.094 154.196 247.818 154.196 249.016C154.196 249.286 154.389 249.495 154.774 249.641C155.16 249.786 155.535 249.859 155.899 249.859C156.274 249.859 156.53 249.839 156.665 249.797C156.79 250.078 156.853 250.339 156.853 250.578C156.853 250.807 156.842 250.964 156.821 251.047C154.873 252.057 153.42 252.562 152.462 252.562C151.504 252.562 150.826 252.24 150.431 251.594C150.035 250.938 149.837 249.943 149.837 248.609ZM168.189 248.859C168.564 249.203 168.777 249.557 168.829 249.922C167.454 251.672 165.866 252.547 164.064 252.547C162.887 252.547 162.053 252.078 161.564 251.141C161.147 250.318 160.892 248.906 160.798 246.906C160.715 243.781 160.673 240.87 160.673 238.172C159.611 238.13 158.96 238.078 158.72 238.016C158.668 237.932 158.642 237.625 158.642 237.094C158.642 236.562 158.668 236.271 158.72 236.219L160.704 236.031C160.704 235.812 160.736 234.766 160.798 232.891C161.319 232.359 162.079 231.953 163.079 231.672C164.09 231.38 164.986 231.234 165.767 231.234C165.621 232.557 165.501 234.156 165.408 236.031C165.751 236.042 166.788 236.104 168.517 236.219C168.569 236.396 168.595 236.734 168.595 237.234C168.595 237.734 168.569 238.036 168.517 238.141C167.559 238.266 166.491 238.344 165.314 238.375C165.272 239.615 165.251 241.182 165.251 243.078C165.251 244.964 165.293 246.745 165.376 248.422C165.408 249.068 165.73 249.391 166.345 249.391C166.97 249.391 167.585 249.214 168.189 248.859ZM189.213 243.5C189.213 244.865 188.968 246.146 188.478 247.344C187.989 248.542 187.296 249.521 186.4 250.281C184.598 251.812 182.218 252.578 179.259 252.578C177.78 252.578 176.416 252.229 175.166 251.531C173.916 250.833 172.921 249.859 172.181 248.609C171.442 247.349 171.072 245.849 171.072 244.109C171.072 242.359 171.52 240.786 172.416 239.391C174.176 236.641 177.129 235.266 181.275 235.266C183.358 235.266 185.186 235.979 186.759 237.406C188.395 238.896 189.213 240.927 189.213 243.5ZM175.681 243.953C175.681 245.734 176.197 247.292 177.228 248.625C178.259 249.958 179.468 250.625 180.853 250.625C183.416 250.625 184.697 248.536 184.697 244.359C184.697 242.286 184.223 240.604 183.275 239.312C182.327 238.021 181.119 237.375 179.65 237.375C178.91 237.375 178.27 237.562 177.728 237.938C177.186 238.312 176.775 238.818 176.494 239.453C175.952 240.672 175.681 242.172 175.681 243.953ZM203.221 241.516C203.221 239.734 202.814 238.844 202.002 238.844C201.408 238.844 200.84 239.016 200.299 239.359C199.757 239.693 199.174 240.161 198.549 240.766C198.549 241.807 198.518 245.562 198.455 252.031C197.299 252.229 196.351 252.328 195.611 252.328C194.882 252.328 194.252 252.229 193.721 252.031C193.846 250.302 193.908 247.339 193.908 243.141V239.484C193.908 238.693 193.632 238.224 193.08 238.078C192.705 237.964 192.2 237.88 191.564 237.828C191.491 237.516 191.455 237.281 191.455 237.125C191.455 236.958 191.46 236.828 191.471 236.734C192.971 235.891 194.825 235.469 197.033 235.469C197.398 235.469 197.669 235.474 197.846 235.484C198.148 236.005 198.325 236.547 198.377 237.109C198.439 237.672 198.486 238.208 198.518 238.719C199.913 237.021 201.09 235.99 202.049 235.625C202.507 235.448 202.991 235.359 203.502 235.359C204.544 235.359 205.377 235.651 206.002 236.234C206.637 236.807 206.955 237.651 206.955 238.766C206.955 239.62 206.643 240.333 206.018 240.906C205.403 241.469 204.658 241.75 203.783 241.75C203.596 241.75 203.408 241.734 203.221 241.703V241.516ZM210.869 256.422C210.984 256.849 211.182 257.229 211.463 257.562C211.755 257.906 212.109 258.078 212.526 258.078C213.203 258.078 213.833 257.63 214.416 256.734C215 255.849 215.5 254.599 215.916 252.984C215.708 252.391 215.125 251.052 214.166 248.969C213.218 246.885 212.099 244.667 210.807 242.312C209.359 239.688 208.296 238.26 207.619 238.031C207.463 237.979 207.291 237.948 207.104 237.938C206.927 237.927 206.77 237.917 206.635 237.906C206.489 237.896 206.395 237.891 206.354 237.891C206.281 237.38 206.244 237.094 206.244 237.031C206.244 236.958 206.25 236.88 206.26 236.797C207.937 235.859 209.5 235.391 210.947 235.391C211.562 235.391 212.156 235.51 212.729 235.75C213.302 235.99 214.046 237.208 214.963 239.406C215.89 241.594 216.937 244.823 218.104 249.094C219.468 244.49 220.531 240.755 221.291 237.891C221.51 237.057 221.895 236.427 222.447 236C223.01 235.573 223.557 235.359 224.088 235.359C225.63 235.359 226.609 235.958 227.026 237.156C226.901 237.156 226.651 237.354 226.276 237.75C225.911 238.135 225.51 238.667 225.072 239.344C224.635 240.01 224.151 240.917 223.619 242.062C223.099 243.208 222.614 244.385 222.166 245.594C221.729 246.802 221.25 248.094 220.729 249.469C220.208 250.833 219.703 252.135 219.213 253.375C218.734 254.625 218.197 255.828 217.604 256.984C217.01 258.141 216.416 259.135 215.822 259.969C215.229 260.812 214.562 261.484 213.822 261.984C213.083 262.495 212.364 262.75 211.666 262.75C210.979 262.75 210.406 262.651 209.947 262.453C209.5 262.266 209.151 262.01 208.901 261.688C208.421 261.031 208.182 260.318 208.182 259.547C208.182 258.786 208.437 258.12 208.947 257.547C209.468 256.974 210.109 256.599 210.869 256.422Z" fill="url(#paint1_linear_244_8)"/>
<defs>
<linearGradient id="paint0_linear_244_8" x1="110" y1="93.5" x2="193" y2="93.5" gradientUnits="userSpaceOnUse">
<stop stop-color="#6966EB"/>
<stop offset="0.204" stop-color="#5F5DD6"/>
<stop offset="1" stop-color="#3B3A85"/>
</linearGradient>
<linearGradient id="paint1_linear_244_8" x1="79" y1="241.5" x2="228" y2="241.5" gradientUnits="userSpaceOnUse">
<stop stop-color="#5E5BD3"/>
<stop offset="1" stop-color="#00113D"/>
</linearGradient>
</defs>
</svg>
