<?xml version="1.0" encoding="UTF-8"?>
<svg xmlns="http://www.w3.org/2000/svg" xmlns:xlink="http://www.w3.org/1999/xlink" width="230pt" height="240pt" viewBox="0 0 230 240" version="1.1">
<defs>
<linearGradient id="linear0" gradientUnits="userSpaceOnUse" x1="266.041" y1="94.5437" x2="266.041" y2="123.589" gradientTransform="matrix(0.5,0,0,0.5,0,0)">
<stop offset="0" style="stop-color:rgb(37.647059%,36.862745%,84.705882%);stop-opacity:1;"/>
<stop offset="1" style="stop-color:rgb(22.352941%,21.960784%,50.196078%);stop-opacity:1;"/>
</linearGradient>
<linearGradient id="linear1" gradientUnits="userSpaceOnUse" x1="265.909" y1="351.274" x2="265.909" y2="372.513" gradientTransform="matrix(0.5,0,0,0.5,0,0)">
<stop offset="0" style="stop-color:rgb(40%,39.215686%,90.196078%);stop-opacity:1;"/>
<stop offset="1" style="stop-color:rgb(22.352941%,21.960784%,50.196078%);stop-opacity:1;"/>
</linearGradient>
<filter id="alpha" filterUnits="objectBoundingBox" x="0%" y="0%" width="100%" height="100%">
  <feColorMatrix type="matrix" in="SourceGraphic" values="0 0 0 0 1 0 0 0 0 1 0 0 0 0 1 0 0 0 1 0"/>
</filter>
<mask id="mask0">
  <g filter="url(#alpha)">
<rect x="0" y="0" width="230" height="240" style="fill:rgb(0%,0%,0%);fill-opacity:0.101961;stroke:none;"/>
  </g>
</mask>
<clipPath id="clip1">
  <rect width="230" height="240"/>
</clipPath>
<g id="surface6" clip-path="url(#clip1)">
<path style=" stroke:none;fill-rule:nonzero;fill:rgb(0.784314%,0.392157%,0%);fill-opacity:1;" d="M 82.890625 190.902344 C 83.070312 189.8125 86.371094 182.179688 87.132812 180.421875 L 87.132812 192.035156 C 85.738281 193.269531 84.785156 194.070312 84.613281 194.148438 C 83.78125 194.515625 82.691406 192.128906 82.890625 190.902344 Z M 82.890625 190.902344 "/>
</g>
<mask id="mask1">
  <g filter="url(#alpha)">
<rect x="0" y="0" width="230" height="240" style="fill:rgb(0%,0%,0%);fill-opacity:0.0509804;stroke:none;"/>
  </g>
</mask>
<clipPath id="clip2">
  <rect width="230" height="240"/>
</clipPath>
<g id="surface9" clip-path="url(#clip2)">
<path style=" stroke:none;fill-rule:nonzero;fill:rgb(0%,0%,0%);fill-opacity:1;" d="M 80.023438 81.210938 L 82.667969 84.460938 C 82.667969 84.460938 86.414062 78.242188 87.171875 74.703125 C 87.695312 72.261719 87.183594 70.964844 85.941406 71.0625 Z M 80.023438 81.210938 "/>
</g>
<mask id="mask2">
  <g filter="url(#alpha)">
<rect x="0" y="0" width="230" height="240" style="fill:rgb(0%,0%,0%);fill-opacity:0.101961;stroke:none;"/>
  </g>
</mask>
<clipPath id="clip3">
  <rect width="230" height="240"/>
</clipPath>
<g id="surface12" clip-path="url(#clip3)">
<path style=" stroke:none;fill-rule:nonzero;fill:rgb(0%,0%,0%);fill-opacity:1;" d="M 86.75 54.921875 C 86.75 54.921875 89.8125 55.851562 91.1875 57.28125 C 92.566406 58.707031 92.582031 62.941406 93.480469 62.359375 C 93.875 62.097656 94.070312 61.710938 94.242188 61.050781 C 94.078125 59.808594 93.617188 57.882812 92.625 56.535156 C 91.695312 55.269531 90.074219 54.613281 88.328125 54.382812 C 87.742188 54.519531 87.214844 54.722656 86.75 54.921875 Z M 86.75 54.921875 "/>
</g>
</defs>
<g id="surface1">
<path style=" stroke:none;fill-rule:nonzero;fill:rgb(14.901961%,19.607843%,21.960784%);fill-opacity:1;" d="M 166.414062 42.835938 L 99.628906 42.835938 C 95.898438 42.835938 92.871094 45.964844 92.871094 49.835938 L 92.871094 189.664062 C 92.871094 193.523438 95.898438 196.664062 99.628906 196.664062 L 166.414062 196.664062 C 170.144531 196.664062 173.175781 193.523438 173.175781 189.664062 L 173.175781 49.835938 C 173.175781 45.964844 170.144531 42.835938 166.414062 42.835938 Z M 168.953125 185.339844 C 168.953125 189.019531 166.242188 192 162.902344 192 L 103.152344 192 C 99.800781 192 97.089844 189.019531 97.089844 185.339844 L 97.089844 55.132812 C 97.089844 47.636719 99.800781 47.269531 103.152344 47.269531 L 115.117188 47.269531 C 115.8125 47.269531 116.382812 48.074219 116.382812 49.070312 L 116.382812 49.5 C 116.382812 51.835938 117.640625 51.84375 119.183594 51.84375 L 146.863281 51.84375 C 148.417969 51.84375 149.660156 51.835938 149.660156 49.5 L 149.660156 49.070312 C 149.660156 48.074219 150.222656 47.269531 150.929688 47.269531 L 162.902344 47.269531 C 166.242188 47.269531 168.953125 48.269531 168.953125 55.132812 Z M 168.953125 185.339844 "/>
<path style=" stroke:none;fill-rule:nonzero;fill:rgb(21.568627%,27.843137%,30.980392%);fill-opacity:1;" d="M 136.796875 48.925781 L 129.246094 48.925781 C 128.988281 48.925781 128.78125 48.714844 128.78125 48.453125 C 128.78125 48.191406 128.988281 47.980469 129.246094 47.980469 L 136.796875 47.980469 C 137.054688 47.980469 137.265625 48.191406 137.265625 48.453125 C 137.261719 48.714844 137.054688 48.925781 136.796875 48.925781 Z M 136.796875 48.925781 "/>
<path style=" stroke:none;fill-rule:nonzero;fill:rgb(100%,100%,100%);fill-opacity:1;" d="M 168.949219 55.132812 L 168.949219 185.339844 C 168.949219 189.023438 166.242188 192 162.898438 192 L 103.148438 192 C 99.800781 192 97.089844 189.023438 97.089844 185.339844 L 97.089844 55.132812 C 97.089844 47.636719 99.800781 47.269531 103.148438 47.269531 L 115.117188 47.269531 C 115.8125 47.269531 116.378906 48.074219 116.378906 49.070312 L 116.378906 49.5 C 116.378906 51.835938 117.636719 51.84375 119.179688 51.84375 L 146.859375 51.84375 C 148.414062 51.84375 149.660156 51.835938 149.660156 49.5 L 149.660156 49.070312 C 149.660156 48.074219 150.222656 47.269531 150.929688 47.269531 L 162.898438 47.269531 C 166.242188 47.269531 168.949219 48.269531 168.949219 55.132812 Z M 168.949219 55.132812 "/>
<path style=" stroke:none;fill-rule:nonzero;fill:rgb(100%,100%,100%);fill-opacity:1;" d="M 163.945312 54.96875 L 102.125 54.96875 L 102.125 88.714844 L 163.945312 88.714844 Z M 163.945312 54.96875 "/>
<path style=" stroke:none;fill-rule:nonzero;fill:rgb(85.882353%,85.882353%,85.882353%);fill-opacity:1;" d="M 163.949219 88.714844 L 102.125 88.734375 L 102.085938 88.734375 L 102.085938 88.714844 L 102.03125 54.96875 L 102.03125 54.925781 L 102.125 54.925781 L 163.949219 54.945312 L 164.003906 54.945312 L 164.003906 54.96875 Z M 163.949219 88.714844 L 163.894531 54.96875 L 163.949219 54.992188 L 102.125 55.007812 L 102.222656 54.96875 L 102.167969 88.714844 L 102.125 88.699219 Z M 163.949219 88.714844 "/>
<path style=" stroke:none;fill-rule:nonzero;fill:rgb(92.156863%,92.156863%,92.156863%);fill-opacity:1;" d="M 148.019531 85.507812 L 104.457031 85.507812 L 104.457031 86.042969 L 148.019531 86.042969 Z M 148.019531 85.507812 "/>
<path style=" stroke:none;fill-rule:nonzero;fill:rgb(92.156863%,92.156863%,92.156863%);fill-opacity:1;" d="M 134.019531 86.882812 L 104.457031 86.882812 L 104.457031 87.414062 L 134.019531 87.414062 Z M 134.019531 86.882812 "/>
<path style=" stroke:none;fill-rule:nonzero;fill:rgb(92.156863%,92.156863%,92.156863%);fill-opacity:1;" d="M 102.023438 83.980469 L 164 83.980469 L 164 55.324219 L 102.023438 55.324219 Z M 102.023438 83.980469 "/>
<path style=" stroke:none;fill-rule:nonzero;fill:rgb(85.882353%,85.882353%,85.882353%);fill-opacity:1;" d="M 122.507812 77.933594 L 164.003906 77.933594 L 143.253906 61.058594 Z M 122.507812 77.933594 "/>
<path style=" stroke:none;fill-rule:nonzero;fill:rgb(78.039216%,78.039216%,78.039216%);fill-opacity:1;" d="M 102.03125 77.945312 L 131.820312 77.945312 L 116.925781 65.515625 Z M 102.03125 77.945312 "/>
<path style=" stroke:none;fill-rule:nonzero;fill:rgb(78.039216%,78.039216%,78.039216%);fill-opacity:1;" d="M 164.007812 77.929688 L 102.03125 77.929688 L 102.03125 83.980469 L 164.007812 83.980469 Z M 164.007812 77.929688 "/>
<path style=" stroke:none;fill-rule:nonzero;fill:rgb(85.882353%,85.882353%,85.882353%);fill-opacity:1;" d="M 125.769531 66.21875 C 127.253906 66.21875 128.457031 64.992188 128.457031 63.484375 C 128.457031 61.972656 127.253906 60.746094 125.769531 60.746094 C 124.28125 60.746094 123.078125 61.972656 123.078125 63.484375 C 123.078125 64.992188 124.28125 66.21875 125.769531 66.21875 Z M 125.769531 66.21875 "/>
<path style=" stroke:none;fill-rule:nonzero;fill:rgb(100%,100%,100%);fill-opacity:1;" d="M 163.945312 91.523438 L 102.125 91.523438 L 102.125 130.121094 L 163.945312 130.121094 Z M 163.945312 91.523438 "/>
<path style=" stroke:none;fill-rule:nonzero;fill:rgb(85.882353%,85.882353%,85.882353%);fill-opacity:1;" d="M 163.949219 130.121094 L 102.125 130.140625 L 102.085938 130.140625 L 102.085938 130.121094 L 102.03125 91.519531 L 102.03125 91.472656 L 102.125 91.472656 L 163.949219 91.496094 L 164.003906 91.496094 L 164.003906 91.519531 Z M 163.949219 130.121094 L 163.894531 91.519531 L 163.949219 91.546875 L 102.125 91.566406 L 102.222656 91.519531 L 102.167969 130.121094 L 102.125 130.101562 Z M 163.949219 130.121094 "/>
<path style=" stroke:none;fill-rule:nonzero;fill:rgb(92.156863%,92.156863%,92.156863%);fill-opacity:1;" d="M 106.453125 95.390625 C 106.339844 95.464844 106.214844 95.519531 106.078125 95.554688 C 105.722656 95.640625 105.363281 95.574219 105.078125 95.390625 C 104.792969 95.214844 104.578125 94.929688 104.492188 94.574219 C 104.320312 93.859375 104.75 93.140625 105.453125 92.964844 C 106.15625 92.789062 106.867188 93.226562 107.039062 93.945312 C 107.175781 94.519531 106.925781 95.097656 106.453125 95.390625 Z M 106.453125 95.390625 "/>
<path style=" stroke:none;fill-rule:nonzero;fill:rgb(100%,100%,100%);fill-opacity:1;" d="M 106.164062 94.105469 C 106.164062 94.332031 105.988281 94.511719 105.765625 94.511719 C 105.546875 94.511719 105.367188 94.332031 105.367188 94.105469 C 105.367188 93.882812 105.546875 93.699219 105.765625 93.699219 C 105.988281 93.699219 106.164062 93.882812 106.164062 94.105469 Z M 106.164062 94.105469 "/>
<path style=" stroke:none;fill-rule:nonzero;fill:rgb(100%,100%,100%);fill-opacity:1;" d="M 106.453125 95.222656 L 106.453125 95.390625 C 106.339844 95.464844 106.210938 95.519531 106.074219 95.550781 C 105.71875 95.640625 105.363281 95.574219 105.074219 95.390625 L 105.074219 95.222656 C 105.074219 94.839844 105.382812 94.523438 105.761719 94.523438 C 106.144531 94.523438 106.453125 94.839844 106.453125 95.222656 Z M 106.453125 95.222656 "/>
<path style=" stroke:none;fill-rule:nonzero;fill:rgb(92.156863%,92.156863%,92.156863%);fill-opacity:1;" d="M 159.554688 94.109375 C 159.644531 94.109375 159.71875 94.164062 159.71875 94.234375 C 159.71875 94.304688 159.644531 94.359375 159.554688 94.359375 C 159.464844 94.359375 159.390625 94.304688 159.390625 94.234375 C 159.390625 94.164062 159.464844 94.109375 159.554688 94.109375 Z M 159.554688 94.109375 "/>
<path style=" stroke:none;fill-rule:nonzero;fill:rgb(92.156863%,92.156863%,92.156863%);fill-opacity:1;" d="M 160.066406 94.109375 C 160.15625 94.109375 160.230469 94.164062 160.230469 94.234375 C 160.230469 94.304688 160.15625 94.359375 160.066406 94.359375 C 159.972656 94.359375 159.902344 94.304688 159.902344 94.234375 C 159.902344 94.164062 159.972656 94.109375 160.066406 94.109375 Z M 160.066406 94.109375 "/>
<path style=" stroke:none;fill-rule:nonzero;fill:rgb(92.156863%,92.156863%,92.156863%);fill-opacity:1;" d="M 160.578125 94.109375 C 160.667969 94.109375 160.742188 94.164062 160.742188 94.234375 C 160.742188 94.304688 160.667969 94.359375 160.578125 94.359375 C 160.488281 94.359375 160.414062 94.304688 160.414062 94.234375 C 160.414062 94.164062 160.488281 94.109375 160.578125 94.109375 Z M 160.578125 94.109375 "/>
<path style=" stroke:none;fill-rule:nonzero;fill:rgb(92.156863%,92.156863%,92.156863%);fill-opacity:1;" d="M 123.070312 93.992188 L 109.070312 93.992188 L 109.070312 94.527344 L 123.070312 94.527344 Z M 123.070312 93.992188 "/>
<path style=" stroke:none;fill-rule:nonzero;fill:rgb(92.156863%,92.156863%,92.156863%);fill-opacity:1;" d="M 148.019531 126.914062 L 104.453125 126.914062 L 104.453125 127.449219 L 148.019531 127.449219 Z M 148.019531 126.914062 "/>
<path style=" stroke:none;fill-rule:nonzero;fill:rgb(92.156863%,92.156863%,92.156863%);fill-opacity:1;" d="M 134.019531 128.289062 L 104.453125 128.289062 L 104.453125 128.820312 L 134.019531 128.820312 Z M 134.019531 128.289062 "/>
<path style=" stroke:none;fill-rule:nonzero;fill:rgb(92.156863%,92.156863%,92.156863%);fill-opacity:1;" d="M 102.023438 125.386719 L 164 125.386719 L 164 96.734375 L 102.023438 96.734375 Z M 102.023438 125.386719 "/>
<path style=" stroke:none;fill-rule:nonzero;fill:rgb(85.882353%,85.882353%,85.882353%);fill-opacity:1;" d="M 122.507812 119.339844 L 164.003906 119.339844 L 143.253906 102.46875 Z M 122.507812 119.339844 "/>
<path style=" stroke:none;fill-rule:nonzero;fill:rgb(78.039216%,78.039216%,78.039216%);fill-opacity:1;" d="M 102.03125 119.351562 L 131.820312 119.351562 L 116.925781 106.925781 Z M 102.03125 119.351562 "/>
<path style=" stroke:none;fill-rule:nonzero;fill:rgb(78.039216%,78.039216%,78.039216%);fill-opacity:1;" d="M 164.007812 119.339844 L 102.03125 119.339844 L 102.03125 125.386719 L 164.007812 125.386719 Z M 164.007812 119.339844 "/>
<path style=" stroke:none;fill-rule:nonzero;fill:rgb(85.882353%,85.882353%,85.882353%);fill-opacity:1;" d="M 125.769531 107.625 C 127.253906 107.625 128.457031 106.402344 128.457031 104.890625 C 128.457031 103.378906 127.253906 102.152344 125.769531 102.152344 C 124.28125 102.152344 123.078125 103.378906 123.078125 104.890625 C 123.078125 106.402344 124.28125 107.625 125.769531 107.625 Z M 125.769531 107.625 "/>
<path style=" stroke:none;fill-rule:nonzero;fill:rgb(100%,100%,100%);fill-opacity:1;" d="M 163.945312 132.929688 L 102.125 132.929688 L 102.125 171.527344 L 163.945312 171.527344 Z M 163.945312 132.929688 "/>
<path style=" stroke:none;fill-rule:nonzero;fill:rgb(85.882353%,85.882353%,85.882353%);fill-opacity:1;" d="M 163.949219 171.53125 L 102.125 171.550781 L 102.085938 171.550781 L 102.085938 171.53125 L 102.03125 132.929688 L 102.03125 132.882812 L 102.125 132.882812 L 163.949219 132.902344 L 164.003906 132.902344 L 164.003906 132.929688 Z M 163.949219 171.53125 L 163.894531 132.929688 L 163.949219 132.957031 L 102.125 132.976562 L 102.222656 132.929688 L 102.167969 171.527344 L 102.125 171.507812 Z M 163.949219 171.53125 "/>
<path style=" stroke:none;fill-rule:nonzero;fill:rgb(92.156863%,92.156863%,92.156863%);fill-opacity:1;" d="M 106.453125 136.800781 C 106.339844 136.871094 106.214844 136.929688 106.078125 136.960938 C 105.722656 137.050781 105.363281 136.984375 105.078125 136.800781 C 104.792969 136.625 104.578125 136.339844 104.492188 135.984375 C 104.320312 135.269531 104.75 134.546875 105.453125 134.375 C 106.15625 134.199219 106.867188 134.636719 107.039062 135.351562 C 107.175781 135.925781 106.925781 136.507812 106.453125 136.800781 Z M 106.453125 136.800781 "/>
<path style=" stroke:none;fill-rule:nonzero;fill:rgb(100%,100%,100%);fill-opacity:1;" d="M 106.164062 135.515625 C 106.164062 135.738281 105.988281 135.921875 105.765625 135.921875 C 105.546875 135.921875 105.367188 135.738281 105.367188 135.515625 C 105.367188 135.292969 105.546875 135.109375 105.765625 135.109375 C 105.988281 135.109375 106.164062 135.292969 106.164062 135.515625 Z M 106.164062 135.515625 "/>
<path style=" stroke:none;fill-rule:nonzero;fill:rgb(100%,100%,100%);fill-opacity:1;" d="M 106.453125 136.632812 L 106.453125 136.800781 C 106.339844 136.871094 106.210938 136.929688 106.074219 136.960938 C 105.71875 137.050781 105.363281 136.984375 105.074219 136.800781 L 105.074219 136.632812 C 105.074219 136.246094 105.382812 135.933594 105.761719 135.933594 C 106.144531 135.933594 106.453125 136.246094 106.453125 136.632812 Z M 106.453125 136.632812 "/>
<path style=" stroke:none;fill-rule:nonzero;fill:rgb(92.156863%,92.156863%,92.156863%);fill-opacity:1;" d="M 159.554688 135.515625 C 159.644531 135.515625 159.71875 135.574219 159.71875 135.644531 C 159.71875 135.710938 159.644531 135.765625 159.554688 135.765625 C 159.464844 135.765625 159.390625 135.710938 159.390625 135.644531 C 159.390625 135.574219 159.464844 135.515625 159.554688 135.515625 Z M 159.554688 135.515625 "/>
<path style=" stroke:none;fill-rule:nonzero;fill:rgb(92.156863%,92.156863%,92.156863%);fill-opacity:1;" d="M 160.066406 135.515625 C 160.15625 135.515625 160.230469 135.574219 160.230469 135.644531 C 160.230469 135.710938 160.15625 135.765625 160.066406 135.765625 C 159.972656 135.765625 159.902344 135.710938 159.902344 135.644531 C 159.902344 135.574219 159.972656 135.515625 160.066406 135.515625 Z M 160.066406 135.515625 "/>
<path style=" stroke:none;fill-rule:nonzero;fill:rgb(92.156863%,92.156863%,92.156863%);fill-opacity:1;" d="M 160.578125 135.515625 C 160.667969 135.515625 160.742188 135.574219 160.742188 135.644531 C 160.742188 135.710938 160.667969 135.765625 160.578125 135.765625 C 160.488281 135.765625 160.414062 135.710938 160.414062 135.644531 C 160.414062 135.574219 160.488281 135.515625 160.578125 135.515625 Z M 160.578125 135.515625 "/>
<path style=" stroke:none;fill-rule:nonzero;fill:rgb(92.156863%,92.156863%,92.156863%);fill-opacity:1;" d="M 123.070312 135.402344 L 109.070312 135.402344 L 109.070312 135.933594 L 123.070312 135.933594 Z M 123.070312 135.402344 "/>
<path style=" stroke:none;fill-rule:nonzero;fill:rgb(92.156863%,92.156863%,92.156863%);fill-opacity:1;" d="M 148.019531 168.324219 L 104.453125 168.324219 L 104.453125 168.855469 L 148.019531 168.855469 Z M 148.019531 168.324219 "/>
<path style=" stroke:none;fill-rule:nonzero;fill:rgb(92.156863%,92.156863%,92.156863%);fill-opacity:1;" d="M 134.019531 169.699219 L 104.453125 169.699219 L 104.453125 170.230469 L 134.019531 170.230469 Z M 134.019531 169.699219 "/>
<path style=" stroke:none;fill-rule:nonzero;fill:rgb(92.156863%,92.156863%,92.156863%);fill-opacity:1;" d="M 102.023438 166.796875 L 164 166.796875 L 164 138.140625 L 102.023438 138.140625 Z M 102.023438 166.796875 "/>
<path style=" stroke:none;fill-rule:nonzero;fill:rgb(85.882353%,85.882353%,85.882353%);fill-opacity:1;" d="M 122.507812 160.75 L 164.003906 160.75 L 143.253906 143.875 Z M 122.507812 160.75 "/>
<path style=" stroke:none;fill-rule:nonzero;fill:rgb(78.039216%,78.039216%,78.039216%);fill-opacity:1;" d="M 102.03125 160.757812 L 131.820312 160.757812 L 116.925781 148.332031 Z M 102.03125 160.757812 "/>
<path style=" stroke:none;fill-rule:nonzero;fill:rgb(78.039216%,78.039216%,78.039216%);fill-opacity:1;" d="M 164.007812 160.746094 L 102.03125 160.746094 L 102.03125 166.796875 L 164.007812 166.796875 Z M 164.007812 160.746094 "/>
<path style=" stroke:none;fill-rule:nonzero;fill:rgb(85.882353%,85.882353%,85.882353%);fill-opacity:1;" d="M 125.769531 149.035156 C 127.253906 149.035156 128.457031 147.808594 128.457031 146.296875 C 128.457031 144.789062 127.253906 143.5625 125.769531 143.5625 C 124.28125 143.5625 123.078125 144.789062 123.078125 146.296875 C 123.078125 147.808594 124.28125 149.035156 125.769531 149.035156 Z M 125.769531 149.035156 "/>
<path style=" stroke:none;fill-rule:nonzero;fill:url(#linear0);" d="M 168.949219 55.136719 L 168.949219 61.792969 L 97.089844 61.792969 L 97.089844 55.136719 C 97.089844 47.636719 99.800781 47.273438 103.152344 47.273438 L 115.117188 47.273438 C 115.8125 47.273438 116.378906 48.074219 116.378906 49.074219 L 116.378906 49.503906 C 116.378906 51.835938 117.640625 51.84375 119.183594 51.84375 L 146.859375 51.84375 C 148.417969 51.84375 149.660156 51.835938 149.660156 49.503906 L 149.660156 49.074219 C 149.660156 48.074219 150.222656 47.273438 150.929688 47.273438 L 162.898438 47.273438 C 166.242188 47.273438 168.949219 48.265625 168.949219 55.136719 Z M 168.949219 55.136719 "/>
<path style=" stroke:none;fill-rule:nonzero;fill:rgb(100%,100%,100%);fill-opacity:1;" d="M 113.042969 50.195312 C 113.003906 50.234375 112.964844 50.273438 112.925781 50.3125 C 112.90625 50.332031 112.882812 50.355469 112.863281 50.378906 C 112.550781 50.070312 112.179688 49.910156 111.75 49.90625 C 111.316406 49.90625 110.945312 50.070312 110.632812 50.378906 C 110.613281 50.359375 110.589844 50.335938 110.570312 50.3125 C 110.53125 50.273438 110.496094 50.234375 110.457031 50.195312 C 110.457031 50.195312 110.453125 50.195312 110.453125 50.195312 C 110.453125 50.195312 110.453125 50.191406 110.453125 50.191406 C 110.457031 50.191406 110.457031 50.1875 110.460938 50.183594 C 110.511719 50.140625 110.558594 50.09375 110.609375 50.054688 C 110.710938 49.964844 110.824219 49.894531 110.945312 49.832031 C 111.089844 49.761719 111.238281 49.710938 111.394531 49.679688 C 111.46875 49.667969 111.542969 49.660156 111.617188 49.648438 C 111.644531 49.648438 111.808594 49.644531 111.8125 49.644531 C 111.863281 49.648438 111.914062 49.652344 111.964844 49.660156 C 112.109375 49.671875 112.246094 49.707031 112.378906 49.757812 C 112.472656 49.792969 112.566406 49.839844 112.65625 49.890625 C 112.75 49.945312 112.839844 50.007812 112.921875 50.078125 C 112.960938 50.117188 113.003906 50.152344 113.042969 50.191406 C 113.042969 50.191406 113.042969 50.195312 113.042969 50.195312 Z M 113.042969 50.195312 "/>
<path style=" stroke:none;fill-rule:nonzero;fill:rgb(100%,100%,100%);fill-opacity:1;" d="M 111 50.746094 C 110.941406 50.6875 110.878906 50.625 110.820312 50.5625 C 111.027344 50.355469 111.273438 50.222656 111.5625 50.183594 C 111.996094 50.125 112.367188 50.257812 112.679688 50.5625 C 112.617188 50.625 112.558594 50.683594 112.496094 50.746094 C 112.289062 50.542969 112.042969 50.433594 111.75 50.433594 C 111.460938 50.433594 111.210938 50.542969 111 50.746094 Z M 111 50.746094 "/>
<path style=" stroke:none;fill-rule:nonzero;fill:rgb(100%,100%,100%);fill-opacity:1;" d="M 112.320312 50.933594 C 112.257812 50.996094 112.199219 51.054688 112.136719 51.117188 C 112.03125 51.015625 111.902344 50.957031 111.753906 50.957031 C 111.605469 50.957031 111.476562 51.015625 111.371094 51.121094 C 111.308594 51.058594 111.25 50.996094 111.191406 50.933594 C 111.476562 50.625 112 50.601562 112.320312 50.933594 Z M 112.320312 50.933594 "/>
<path style=" stroke:none;fill-rule:nonzero;fill:rgb(100%,100%,100%);fill-opacity:1;" d="M 111.914062 51.285156 C 111.914062 51.378906 111.839844 51.453125 111.75 51.453125 C 111.65625 51.453125 111.585938 51.378906 111.585938 51.285156 C 111.585938 51.195312 111.65625 51.121094 111.75 51.121094 C 111.839844 51.121094 111.914062 51.195312 111.914062 51.285156 Z M 111.914062 51.285156 "/>
<path style=" stroke:none;fill-rule:nonzero;fill:rgb(100%,100%,100%);fill-opacity:1;" d="M 101.769531 50.550781 C 101.769531 50.285156 101.984375 50.066406 102.246094 50.066406 C 102.507812 50.066406 102.722656 50.285156 102.722656 50.550781 C 102.722656 50.820312 102.507812 51.035156 102.246094 51.035156 C 101.984375 51.035156 101.769531 50.820312 101.769531 50.550781 Z M 101.769531 50.550781 "/>
<path style=" stroke:none;fill-rule:nonzero;fill:rgb(100%,100%,100%);fill-opacity:1;" d="M 103.273438 50.550781 C 103.273438 50.285156 103.484375 50.066406 103.746094 50.066406 C 104.011719 50.066406 104.222656 50.285156 104.222656 50.550781 C 104.222656 50.820312 104.011719 51.035156 103.746094 51.035156 C 103.484375 51.035156 103.273438 50.820312 103.273438 50.550781 Z M 103.273438 50.550781 "/>
<path style=" stroke:none;fill-rule:nonzero;fill:rgb(100%,100%,100%);fill-opacity:1;" d="M 104.769531 50.550781 C 104.769531 50.285156 104.980469 50.066406 105.246094 50.066406 C 105.507812 50.066406 105.722656 50.285156 105.722656 50.550781 C 105.722656 50.820312 105.507812 51.035156 105.246094 51.035156 C 104.980469 51.035156 104.769531 50.820312 104.769531 50.550781 Z M 104.769531 50.550781 "/>
<path style=" stroke:none;fill-rule:nonzero;fill:rgb(100%,100%,100%);fill-opacity:1;" d="M 106.277344 50.550781 C 106.277344 50.285156 106.488281 50.066406 106.753906 50.066406 C 107.015625 50.066406 107.226562 50.285156 107.226562 50.550781 C 107.226562 50.820312 107.015625 51.035156 106.753906 51.035156 C 106.488281 51.035156 106.277344 50.820312 106.277344 50.550781 Z M 106.277344 50.550781 "/>
<path style=" stroke:none;fill-rule:nonzero;fill:rgb(100%,100%,100%);fill-opacity:1;" d="M 107.769531 50.550781 C 107.769531 50.285156 107.980469 50.066406 108.246094 50.066406 C 108.507812 50.066406 108.722656 50.285156 108.722656 50.550781 C 108.722656 50.820312 108.507812 51.035156 108.246094 51.035156 C 107.980469 51.035156 107.769531 50.820312 107.769531 50.550781 Z M 107.769531 50.550781 "/>
<path style=" stroke:none;fill-rule:nonzero;fill:rgb(100%,100%,100%);fill-opacity:1;" d="M 163.554688 51.613281 L 159.671875 51.613281 L 159.671875 49.777344 L 163.554688 49.777344 Z M 159.875 51.40625 L 163.351562 51.40625 L 163.351562 49.984375 L 159.875 49.984375 Z M 159.875 51.40625 "/>
<path style=" stroke:none;fill-rule:nonzero;fill:rgb(100%,100%,100%);fill-opacity:1;" d="M 162.492188 50.09375 L 159.992188 50.09375 L 159.992188 51.300781 L 162.492188 51.300781 Z M 162.492188 50.09375 "/>
<path style=" stroke:none;fill-rule:nonzero;fill:rgb(100%,100%,100%);fill-opacity:1;" d="M 163.902344 50.207031 L 163.554688 50.207031 L 163.554688 51.183594 L 163.902344 51.183594 Z M 163.902344 50.207031 "/>
<path style=" stroke:none;fill-rule:nonzero;fill:url(#linear1);" d="M 150.652344 175.636719 L 115.257812 175.636719 L 115.257812 186.257812 L 150.652344 186.257812 Z M 150.652344 175.636719 "/>
<path style=" stroke:none;fill-rule:nonzero;fill:rgb(14.901961%,19.607843%,21.960784%);fill-opacity:1;" d="M 146.324219 181.089844 C 146.457031 181.355469 146.488281 181.625 146.492188 181.890625 C 146.488281 182.15625 146.457031 182.421875 146.324219 182.6875 C 146.1875 182.421875 146.15625 182.15625 146.152344 181.890625 C 146.15625 181.625 146.1875 181.355469 146.324219 181.089844 Z M 146.324219 181.089844 "/>
<path style=" stroke:none;fill-rule:nonzero;fill:rgb(14.901961%,19.607843%,21.960784%);fill-opacity:1;" d="M 144.394531 181.921875 C 144.675781 182.015625 144.882812 182.179688 145.070312 182.363281 C 145.253906 182.558594 145.414062 182.765625 145.503906 183.054688 C 145.222656 182.964844 145.015625 182.796875 144.828125 182.613281 C 144.648438 182.417969 144.484375 182.210938 144.394531 181.921875 Z M 144.394531 181.921875 "/>
<path style=" stroke:none;fill-rule:nonzero;fill:rgb(14.901961%,19.607843%,21.960784%);fill-opacity:1;" d="M 143.589844 183.90625 C 143.851562 183.769531 144.113281 183.738281 144.375 183.734375 C 144.636719 183.738281 144.898438 183.769531 145.160156 183.90625 C 144.898438 184.046875 144.636719 184.078125 144.375 184.082031 C 144.113281 184.074219 143.851562 184.046875 143.589844 183.90625 Z M 143.589844 183.90625 "/>
<path style=" stroke:none;fill-rule:nonzero;fill:rgb(14.901961%,19.607843%,21.960784%);fill-opacity:1;" d="M 144.414062 185.878906 C 144.503906 185.59375 144.667969 185.382812 144.847656 185.191406 C 145.039062 185.007812 145.246094 184.839844 145.527344 184.75 C 145.4375 185.035156 145.273438 185.246094 145.089844 185.4375 C 144.902344 185.621094 144.695312 185.789062 144.414062 185.878906 Z M 144.414062 185.878906 "/>
<path style=" stroke:none;fill-rule:nonzero;fill:rgb(14.901961%,19.607843%,21.960784%);fill-opacity:1;" d="M 146.363281 186.683594 C 146.226562 186.417969 146.195312 186.152344 146.191406 185.886719 C 146.195312 185.617188 146.226562 185.351562 146.363281 185.085938 C 146.496094 185.351562 146.527344 185.617188 146.53125 185.886719 C 146.527344 186.152344 146.496094 186.417969 146.363281 186.683594 Z M 146.363281 186.683594 "/>
<path style=" stroke:none;fill-rule:nonzero;fill:rgb(14.901961%,19.607843%,21.960784%);fill-opacity:1;" d="M 148.304688 185.851562 C 148.023438 185.757812 147.820312 185.59375 147.628906 185.410156 C 147.445312 185.21875 147.285156 185.007812 147.195312 184.71875 C 147.476562 184.8125 147.683594 184.976562 147.871094 185.160156 C 148.050781 185.355469 148.214844 185.566406 148.304688 185.851562 Z M 148.304688 185.851562 "/>
<path style=" stroke:none;fill-rule:nonzero;fill:rgb(14.901961%,19.607843%,21.960784%);fill-opacity:1;" d="M 149.097656 183.867188 C 148.835938 184.003906 148.574219 184.035156 148.3125 184.042969 C 148.050781 184.035156 147.789062 184.007812 147.527344 183.867188 C 147.789062 183.730469 148.050781 183.699219 148.3125 183.691406 C 148.574219 183.699219 148.835938 183.730469 149.097656 183.867188 Z M 149.097656 183.867188 "/>
<path style=" stroke:none;fill-rule:nonzero;fill:rgb(14.901961%,19.607843%,21.960784%);fill-opacity:1;" d="M 148.277344 181.894531 C 148.1875 182.183594 148.023438 182.390625 147.84375 182.585938 C 147.65625 182.769531 147.449219 182.933594 147.167969 183.027344 C 147.253906 182.738281 147.417969 182.53125 147.601562 182.335938 C 147.789062 182.152344 147.996094 181.988281 148.277344 181.894531 Z M 148.277344 181.894531 "/>
<path style=" stroke:none;fill-rule:nonzero;fill:rgb(14.901961%,19.607843%,21.960784%);fill-opacity:1;" d="M 117.910156 173.792969 C 118.046875 174.058594 118.078125 174.324219 118.082031 174.59375 C 118.078125 174.859375 118.046875 175.125 117.910156 175.390625 C 117.773438 175.125 117.746094 174.859375 117.738281 174.59375 C 117.746094 174.324219 117.777344 174.058594 117.910156 173.792969 Z M 117.910156 173.792969 "/>
<path style=" stroke:none;fill-rule:nonzero;fill:rgb(14.901961%,19.607843%,21.960784%);fill-opacity:1;" d="M 115.976562 174.628906 C 116.257812 174.71875 116.460938 174.882812 116.652344 175.070312 C 116.832031 175.261719 116.996094 175.472656 117.085938 175.757812 C 116.804688 175.664062 116.597656 175.5 116.410156 175.316406 C 116.230469 175.121094 116.066406 174.914062 115.976562 174.628906 Z M 115.976562 174.628906 "/>
<path style=" stroke:none;fill-rule:nonzero;fill:rgb(14.901961%,19.607843%,21.960784%);fill-opacity:1;" d="M 115.179688 176.609375 C 115.441406 176.472656 115.703125 176.441406 115.964844 176.433594 C 116.226562 176.441406 116.488281 176.472656 116.75 176.609375 C 116.488281 176.746094 116.226562 176.777344 115.964844 176.785156 C 115.703125 176.777344 115.441406 176.746094 115.179688 176.609375 Z M 115.179688 176.609375 "/>
<path style=" stroke:none;fill-rule:nonzero;fill:rgb(14.901961%,19.607843%,21.960784%);fill-opacity:1;" d="M 115.996094 178.582031 C 116.085938 178.296875 116.25 178.085938 116.429688 177.894531 C 116.617188 177.707031 116.824219 177.542969 117.105469 177.453125 C 117.015625 177.738281 116.855469 177.949219 116.671875 178.140625 C 116.484375 178.324219 116.277344 178.492188 115.996094 178.582031 Z M 115.996094 178.582031 "/>
<path style=" stroke:none;fill-rule:nonzero;fill:rgb(14.901961%,19.607843%,21.960784%);fill-opacity:1;" d="M 117.941406 179.386719 C 117.808594 179.121094 117.777344 178.855469 117.773438 178.589844 C 117.777344 178.320312 117.808594 178.054688 117.941406 177.789062 C 118.078125 178.054688 118.109375 178.320312 118.113281 178.589844 C 118.109375 178.855469 118.078125 179.121094 117.941406 179.386719 Z M 117.941406 179.386719 "/>
<path style=" stroke:none;fill-rule:nonzero;fill:rgb(14.901961%,19.607843%,21.960784%);fill-opacity:1;" d="M 119.890625 178.550781 C 119.609375 178.460938 119.402344 178.296875 119.214844 178.109375 C 119.03125 177.917969 118.867188 177.710938 118.777344 177.421875 C 119.058594 177.511719 119.265625 177.679688 119.457031 177.863281 C 119.636719 178.058594 119.800781 178.265625 119.890625 178.550781 Z M 119.890625 178.550781 "/>
<path style=" stroke:none;fill-rule:nonzero;fill:rgb(14.901961%,19.607843%,21.960784%);fill-opacity:1;" d="M 120.675781 176.570312 C 120.414062 176.707031 120.152344 176.738281 119.890625 176.742188 C 119.628906 176.738281 119.367188 176.707031 119.105469 176.570312 C 119.367188 176.429688 119.628906 176.402344 119.890625 176.394531 C 120.152344 176.402344 120.414062 176.433594 120.675781 176.570312 Z M 120.675781 176.570312 "/>
<path style=" stroke:none;fill-rule:nonzero;fill:rgb(14.901961%,19.607843%,21.960784%);fill-opacity:1;" d="M 119.855469 174.597656 C 119.765625 174.882812 119.601562 175.09375 119.421875 175.285156 C 119.234375 175.472656 119.027344 175.636719 118.746094 175.726562 C 118.835938 175.441406 118.996094 175.230469 119.179688 175.039062 C 119.367188 174.855469 119.574219 174.6875 119.855469 174.597656 Z M 119.855469 174.597656 "/>
<path style=" stroke:none;fill-rule:nonzero;fill:rgb(92.156863%,58.039216%,50.588235%);fill-opacity:1;" d="M 88.765625 156.722656 C 88.765625 156.722656 99.125 169.28125 99.132812 169.289062 C 101.125 171.683594 102.832031 173.816406 103.613281 175.003906 C 103.617188 175.007812 103.621094 175.011719 103.625 175.023438 C 103.921875 175.46875 104.082031 175.777344 104.066406 175.910156 C 104.066406 175.921875 104.070312 175.929688 104.066406 175.9375 C 103.769531 177.023438 85.441406 193.78125 84.609375 194.148438 C 83.777344 194.519531 82.6875 192.128906 82.886719 190.902344 C 83.09375 189.667969 87.285156 180.0625 87.285156 180.0625 L 77.050781 167.40625 Z M 88.765625 156.722656 "/>
<path style=" stroke:none;fill-rule:nonzero;fill:rgb(92.156863%,92.156863%,92.156863%);fill-opacity:1;" d="M 97.007812 166.710938 C 97.007812 166.710938 99.128906 169.28125 99.136719 169.289062 C 101.128906 171.683594 102.835938 173.816406 103.617188 175 C 103.621094 175.007812 103.628906 175.011719 103.628906 175.019531 C 103.898438 175.484375 104.058594 175.804688 104.070312 175.910156 C 104.070312 175.921875 104.074219 175.929688 104.070312 175.9375 C 103.773438 177.023438 85.445312 193.78125 84.613281 194.148438 C 83.78125 194.519531 82.691406 192.128906 82.890625 190.902344 C 83.097656 189.667969 87.289062 180.0625 87.289062 180.0625 L 85.097656 177.476562 Z M 97.007812 166.710938 "/>
<path style=" stroke:none;fill-rule:nonzero;fill:rgb(37.647059%,36.862745%,84.705882%);fill-opacity:1;" d="M 84.613281 194.148438 C 85.449219 193.78125 103.773438 177.023438 104.070312 175.9375 C 104.191406 175.523438 101.945312 172.667969 99.132812 169.292969 C 99.105469 169.257812 99.074219 169.222656 99.046875 169.1875 L 87.105469 179.863281 L 87.289062 180.066406 C 87.289062 180.066406 83.097656 189.671875 82.890625 190.902344 C 82.691406 192.128906 83.78125 194.519531 84.613281 194.148438 Z M 84.613281 194.148438 "/>
<path style=" stroke:none;fill-rule:nonzero;fill:rgb(0.784314%,0.392157%,0%);fill-opacity:1;" d="M 87.128906 179.839844 L 87.128906 179.898438 L 87.101562 179.867188 Z M 87.128906 179.839844 "/>
<use xlink:href="#surface6" mask="url(#mask0)"/>
<path style=" stroke:none;fill-rule:nonzero;fill:rgb(14.901961%,19.607843%,21.960784%);fill-opacity:1;" d="M 84.191406 193.238281 C 87.210938 190.335938 99.664062 178.917969 102.867188 176.285156 C 102.894531 176.261719 102.910156 176.28125 102.882812 176.304688 C 99.953125 179.246094 87.410156 190.558594 84.234375 193.289062 C 84.167969 193.347656 84.128906 193.296875 84.191406 193.238281 Z M 84.191406 193.238281 "/>
<path style=" stroke:none;fill-rule:nonzero;fill:rgb(14.901961%,19.607843%,21.960784%);fill-opacity:1;" d="M 86.335938 181.011719 C 87.347656 179.667969 89 178.496094 90.707031 178.53125 C 90.773438 178.53125 90.773438 178.625 90.722656 178.648438 C 89.179688 179.363281 87.84375 180.140625 86.476562 181.160156 C 86.382812 181.234375 86.261719 181.105469 86.335938 181.011719 Z M 86.335938 181.011719 "/>
<path style=" stroke:none;fill-rule:nonzero;fill:rgb(14.901961%,19.607843%,21.960784%);fill-opacity:1;" d="M 85.9375 182.351562 C 86.949219 181.007812 88.605469 179.839844 90.3125 179.867188 C 90.378906 179.871094 90.375 179.964844 90.324219 179.988281 C 88.785156 180.703125 87.445312 181.480469 86.082031 182.5 C 85.984375 182.574219 85.867188 182.445312 85.9375 182.351562 Z M 85.9375 182.351562 "/>
<path style=" stroke:none;fill-rule:nonzero;fill:rgb(14.901961%,19.607843%,21.960784%);fill-opacity:1;" d="M 85.535156 183.691406 C 86.546875 182.347656 88.203125 181.179688 89.910156 181.210938 C 89.976562 181.210938 89.972656 181.304688 89.921875 181.328125 C 88.382812 182.042969 87.046875 182.820312 85.679688 183.84375 C 85.582031 183.914062 85.464844 183.785156 85.535156 183.691406 Z M 85.535156 183.691406 "/>
<path style=" stroke:none;fill-rule:nonzero;fill:rgb(21.568627%,27.843137%,30.980392%);fill-opacity:1;" d="M 83.757812 141.507812 C 84.644531 145.96875 99.753906 168.761719 99.753906 168.761719 L 86.332031 181.257812 C 86.332031 181.257812 64.316406 152.433594 65.664062 142.574219 C 66.839844 134.003906 79.460938 99.523438 79.460938 99.523438 L 94.019531 99.523438 C 94.019531 99.523438 82.882812 137.121094 83.757812 141.507812 Z M 83.757812 141.507812 "/>
<path style=" stroke:none;fill-rule:nonzero;fill:rgb(14.901961%,19.607843%,21.960784%);fill-opacity:1;" d="M 85.1875 177.140625 C 87.132812 175.246094 86.550781 175.761719 88.515625 173.894531 C 89.476562 172.976562 95.808594 166.972656 96.851562 166.28125 C 96.875 166.265625 96.90625 166.300781 96.890625 166.320312 C 96.121094 167.320312 89.691406 173.210938 88.710938 174.109375 C 86.707031 175.9375 87.261719 175.390625 85.242188 177.199219 C 85.203125 177.234375 85.152344 177.175781 85.1875 177.140625 Z M 85.1875 177.140625 "/>
<path style=" stroke:none;fill-rule:nonzero;fill:rgb(14.901961%,19.607843%,21.960784%);fill-opacity:1;" d="M 81.253906 140.039062 C 81.460938 138.925781 81.699219 137.816406 81.929688 136.707031 C 82.402344 134.441406 82.90625 132.183594 83.433594 129.929688 C 84.480469 125.464844 85.617188 121.019531 86.855469 116.601562 C 88.09375 112.171875 89.40625 107.746094 90.917969 103.402344 C 91.105469 102.863281 91.296875 102.328125 91.488281 101.796875 C 91.503906 101.753906 91.566406 101.773438 91.554688 101.816406 C 90.246094 106.167969 88.894531 110.507812 87.667969 114.886719 C 86.445312 119.246094 85.316406 123.628906 84.25 128.03125 C 83.714844 130.242188 83.21875 132.460938 82.730469 134.683594 C 82.492188 135.773438 82.257812 136.867188 82.027344 137.960938 C 81.796875 139.070312 81.488281 140.207031 81.417969 141.339844 C 81.351562 142.457031 81.710938 143.445312 82.273438 144.382812 C 82.820312 145.292969 94.449219 165.488281 94.832031 165.851562 C 94.859375 165.882812 94.816406 165.925781 94.785156 165.898438 C 93.195312 164.445312 81.605469 144.109375 81.292969 143.15625 C 80.957031 142.132812 81.058594 141.078125 81.253906 140.039062 Z M 81.253906 140.039062 "/>
<path style=" stroke:none;fill-rule:nonzero;fill:rgb(92.156863%,58.039216%,50.588235%);fill-opacity:1;" d="M 87.136719 172.167969 C 87.136719 172.167969 83.996094 187.734375 83.996094 187.746094 C 83.953125 190.882812 83.863281 193.628906 83.683594 195.046875 C 83.683594 195.054688 83.683594 195.0625 83.679688 195.070312 C 83.613281 195.605469 83.535156 195.945312 83.441406 196.035156 C 83.433594 196.042969 83.429688 196.050781 83.421875 196.054688 C 82.496094 196.671875 57.855469 197.0625 56.992188 196.78125 C 56.125 196.503906 56.84375 193.972656 57.789062 193.183594 C 58.742188 192.390625 68.105469 187.953125 68.105469 187.953125 L 71.402344 172.394531 Z M 87.136719 172.167969 "/>
<path style=" stroke:none;fill-rule:nonzero;fill:rgb(92.156863%,92.156863%,92.156863%);fill-opacity:1;" d="M 56.988281 196.78125 C 57.855469 197.0625 82.496094 196.671875 83.421875 196.054688 C 83.429688 196.050781 83.433594 196.042969 83.441406 196.035156 C 83.535156 195.945312 83.617188 195.605469 83.683594 195.070312 C 83.6875 195.0625 83.6875 195.054688 83.6875 195.042969 C 83.863281 193.628906 83.953125 190.882812 84 187.75 C 84 187.746094 84.542969 185.039062 84.542969 185.039062 L 68.726562 185.039062 L 68.109375 187.949219 C 68.109375 187.949219 58.742188 192.390625 57.789062 193.183594 C 56.847656 193.976562 56.121094 196.503906 56.988281 196.78125 Z M 56.988281 196.78125 "/>
<path style=" stroke:none;fill-rule:nonzero;fill:rgb(37.647059%,36.862745%,84.705882%);fill-opacity:1;" d="M 56.988281 196.78125 C 57.855469 197.0625 82.496094 196.675781 83.421875 196.054688 C 83.78125 195.824219 83.933594 192.167969 83.992188 187.746094 C 83.992188 187.699219 83.992188 187.65625 83.996094 187.609375 L 68.09375 187.679688 L 68.105469 187.953125 C 68.105469 187.953125 58.738281 192.390625 57.789062 193.183594 C 56.847656 193.972656 56.125 196.503906 56.988281 196.78125 Z M 56.988281 196.78125 "/>
<path style=" stroke:none;fill-rule:nonzero;fill:rgb(14.901961%,19.607843%,21.960784%);fill-opacity:1;" d="M 57.257812 195.804688 C 61.410156 195.636719 78.171875 195.351562 82.289062 195.503906 C 82.324219 195.507812 82.324219 195.53125 82.289062 195.53125 C 78.179688 195.792969 61.414062 195.9375 57.257812 195.875 C 57.171875 195.875 57.171875 195.808594 57.257812 195.804688 Z M 57.257812 195.804688 "/>
<path style=" stroke:none;fill-rule:nonzero;fill:rgb(14.901961%,19.607843%,21.960784%);fill-opacity:1;" d="M 66.78125 188.023438 C 68.410156 187.6875 70.414062 187.910156 71.679688 189.074219 C 71.730469 189.121094 71.664062 189.191406 71.613281 189.175781 C 69.992188 188.683594 68.480469 188.375 66.789062 188.234375 C 66.671875 188.222656 66.664062 188.046875 66.78125 188.023438 Z M 66.78125 188.023438 "/>
<path style=" stroke:none;fill-rule:nonzero;fill:rgb(14.901961%,19.607843%,21.960784%);fill-opacity:1;" d="M 65.609375 188.765625 C 67.238281 188.429688 69.242188 188.652344 70.507812 189.816406 C 70.558594 189.859375 70.492188 189.929688 70.441406 189.914062 C 68.820312 189.425781 67.308594 189.117188 65.617188 188.972656 C 65.5 188.964844 65.492188 188.789062 65.609375 188.765625 Z M 65.609375 188.765625 "/>
<path style=" stroke:none;fill-rule:nonzero;fill:rgb(14.901961%,19.607843%,21.960784%);fill-opacity:1;" d="M 64.441406 189.507812 C 66.070312 189.167969 68.074219 189.394531 69.34375 190.558594 C 69.390625 190.601562 69.328125 190.671875 69.273438 190.65625 C 67.652344 190.164062 66.140625 189.859375 64.453125 189.714844 C 64.332031 189.707031 64.324219 189.53125 64.441406 189.507812 Z M 64.441406 189.507812 "/>
<path style=" stroke:none;fill-rule:nonzero;fill:rgb(21.568627%,27.843137%,30.980392%);fill-opacity:1;" d="M 79.789062 99.523438 C 79.808594 99.832031 80.621094 102.667969 81.039062 106.910156 C 81.34375 110.011719 81.726562 112.753906 82.132812 113.09375 C 82.589844 113.476562 84.890625 114.980469 85.667969 115.460938 C 85.667969 115.460938 78.492188 137.582031 76.640625 144.957031 C 73.957031 155.644531 67.527344 187.714844 67.527344 187.714844 L 84.65625 187.710938 C 84.65625 187.710938 89.867188 157.179688 92.140625 147.003906 C 94.09375 138.28125 101.570312 112.105469 101.570312 112.105469 C 104.292969 105.304688 100.964844 99.523438 100.964844 99.523438 C 100.964844 99.523438 79.789062 99.511719 79.789062 99.523438 Z M 79.789062 99.523438 "/>
<path style=" stroke:none;fill-rule:nonzero;fill:rgb(14.901961%,19.607843%,21.960784%);fill-opacity:1;" d="M 69.042969 184.335938 C 71.582031 184.320312 70.851562 184.285156 73.394531 184.300781 C 74.636719 184.308594 82.804688 184.359375 83.960938 184.585938 C 83.984375 184.589844 83.984375 184.636719 83.960938 184.640625 C 82.796875 184.828125 74.628906 184.625 73.386719 184.589844 C 70.847656 184.523438 71.578125 184.515625 69.039062 184.417969 C 68.992188 184.414062 68.996094 184.339844 69.042969 184.335938 Z M 69.042969 184.335938 "/>
<path style=" stroke:none;fill-rule:nonzero;fill:rgb(14.901961%,19.607843%,21.960784%);fill-opacity:1;" d="M 80.917969 112.21875 C 82.585938 113.113281 84.15625 114.261719 85.640625 115.4375 C 85.699219 115.480469 85.644531 115.574219 85.578125 115.535156 C 83.976562 114.515625 82.335938 113.519531 80.792969 112.414062 C 80.671875 112.324219 80.789062 112.152344 80.917969 112.21875 Z M 80.917969 112.21875 "/>
<path style=" stroke:none;fill-rule:nonzero;fill:rgb(14.901961%,19.607843%,21.960784%);fill-opacity:1;" d="M 82.226562 100.183594 C 82.238281 100.125 82.347656 100.128906 82.335938 100.191406 C 82.003906 102.261719 81.855469 104.105469 81.734375 106.070312 C 81.675781 106.980469 81.628906 112.0625 83.214844 111.941406 C 83.484375 111.921875 83.652344 111.683594 83.753906 111.296875 C 83.875 110.832031 83.785156 110.222656 83.78125 109.742188 C 83.769531 108.675781 83.792969 107.609375 83.867188 106.546875 C 84 104.558594 84.292969 102.597656 84.824219 100.679688 C 84.84375 100.617188 84.933594 100.636719 84.921875 100.699219 C 84.507812 103.414062 84.164062 106.136719 84.152344 108.886719 C 84.144531 110.207031 84.488281 112.253906 83.128906 112.242188 C 81.746094 112.234375 81.367188 108.835938 81.339844 107.917969 C 81.257812 105.359375 81.648438 102.671875 82.226562 100.183594 Z M 82.226562 100.183594 "/>
<path style=" stroke:none;fill-rule:nonzero;fill:rgb(14.901961%,19.607843%,21.960784%);fill-opacity:1;" d="M 83.152344 112.066406 C 83.242188 112.421875 83.300781 112.789062 83.339844 113.152344 C 83.371094 113.433594 83.429688 113.742188 83.355469 114.019531 C 83.339844 114.074219 83.269531 114.070312 83.246094 114.027344 C 83.101562 113.765625 83.074219 113.4375 83.015625 113.148438 C 82.945312 112.8125 82.871094 112.476562 82.8125 112.136719 C 82.773438 111.910156 83.097656 111.847656 83.152344 112.066406 Z M 83.152344 112.066406 "/>
<path style=" stroke:none;fill-rule:nonzero;fill:rgb(14.901961%,19.607843%,21.960784%);fill-opacity:1;" d="M 85.90625 179.3125 C 85.953125 178.898438 86.007812 178.480469 86.0625 178.066406 C 86.171875 177.265625 86.296875 176.472656 86.414062 175.675781 C 86.648438 174.074219 86.910156 172.476562 87.179688 170.882812 C 87.714844 167.703125 88.335938 164.53125 88.992188 161.375 C 89.359375 159.59375 89.792969 157.828125 90.246094 156.066406 C 90.277344 155.945312 90.441406 156.003906 90.421875 156.121094 C 90.144531 157.734375 89.878906 159.347656 89.566406 160.957031 C 89.253906 162.554688 88.941406 164.15625 88.636719 165.761719 C 88.039062 168.929688 87.484375 172.105469 86.886719 175.277344 C 86.71875 176.167969 86.566406 177.066406 86.398438 177.960938 C 86.316406 178.410156 86.230469 178.855469 86.140625 179.300781 C 86.050781 179.742188 85.917969 180.179688 85.847656 180.625 C 85.839844 180.667969 85.78125 180.648438 85.789062 180.605469 C 85.851562 180.179688 85.859375 179.742188 85.90625 179.3125 Z M 85.90625 179.3125 "/>
<path style=" stroke:none;fill-rule:nonzero;fill:rgb(14.901961%,19.607843%,21.960784%);fill-opacity:1;" d="M 74.839844 151.578125 C 75.410156 148.6875 76.175781 145.835938 76.949219 142.996094 C 78.507812 137.28125 80.339844 131.648438 82.167969 126.015625 C 82.695312 124.394531 83.21875 122.769531 83.746094 121.148438 C 84.011719 120.335938 85.300781 115.960938 85.464844 115.546875 C 85.480469 115.503906 85.539062 115.523438 85.53125 115.566406 C 85.160156 117.058594 84.652344 119.230469 84.222656 120.703125 C 83.800781 122.164062 83.339844 123.609375 82.894531 125.0625 C 82.019531 127.914062 81.128906 130.761719 80.28125 133.621094 C 78.601562 139.273438 76.933594 144.921875 75.570312 150.664062 C 75.191406 152.273438 74.808594 153.878906 74.460938 155.496094 C 74.113281 157.109375 73.078125 161.109375 72.742188 162.726562 C 72.734375 162.769531 72.660156 162.757812 72.667969 162.714844 C 72.953125 159.769531 74.265625 154.480469 74.839844 151.578125 Z M 74.839844 151.578125 "/>
<path style=" stroke:none;fill-rule:nonzero;fill:rgb(14.901961%,19.607843%,21.960784%);fill-opacity:1;" d="M 85.484375 166.699219 C 86.425781 161.1875 87.554688 155.703125 88.808594 150.253906 C 90.0625 144.773438 91.464844 139.332031 93.007812 133.929688 C 94.550781 128.53125 96.257812 123.179688 98.09375 117.875 C 98.964844 115.359375 99.847656 112.839844 100.421875 110.234375 C 100.984375 107.660156 101.273438 104.871094 100.683594 102.273438 C 100.53125 101.613281 100.34375 100.96875 100.097656 100.339844 C 100.078125 100.296875 100.140625 100.257812 100.160156 100.304688 C 102.222656 105.183594 100.882812 110.523438 99.316406 115.335938 C 98.457031 117.972656 97.539062 120.589844 96.691406 123.230469 C 95.824219 125.941406 94.988281 128.664062 94.191406 131.398438 C 92.609375 136.816406 91.144531 142.265625 89.828125 147.757812 C 88.515625 153.246094 87.34375 158.773438 86.3125 164.324219 C 85.277344 169.898438 84.410156 175.492188 83.527344 181.089844 C 83.414062 181.816406 83.324219 182.550781 83.230469 183.28125 C 83.222656 183.320312 83.160156 183.320312 83.164062 183.28125 C 83.824219 177.730469 84.542969 172.207031 85.484375 166.699219 Z M 85.484375 166.699219 "/>
<path style="fill-rule:nonzero;fill:rgb(21.568627%,27.843137%,30.980392%);fill-opacity:1;stroke-width:0.25;stroke-linecap:butt;stroke-linejoin:miter;stroke:rgb(0%,0%,0%);stroke-opacity:1;stroke-miterlimit:4;" d="M 143.71875 148.132812 L 143.726562 148.148438 C 143.84375 148.476562 143.8125 148.757812 143.6875 148.945312 C 143.570312 149.140625 143.351562 149.265625 143.046875 149.257812 L 130.75 149.148438 C 130.445312 149.140625 130.109375 149.007812 129.820312 148.78125 C 129.53125 148.5625 129.296875 148.257812 129.179688 147.929688 L 123.398438 123.648438 L 123.390625 123.632812 C 123.28125 123.304688 123.3125 123.023438 123.429688 122.828125 C 123.546875 122.640625 123.765625 122.515625 124.070312 122.523438 L 136.359375 122.632812 L 136.367188 122.632812 C 136.671875 122.640625 137.007812 122.773438 137.296875 122.992188 C 137.585938 123.21875 137.820312 123.523438 137.9375 123.851562 Z M 143.71875 148.132812 " transform="matrix(0.5,0,0,0.5,0,0)"/>
<path style="fill-rule:nonzero;fill:rgb(82.352941%,82.352941%,82.352941%);fill-opacity:1;stroke-width:0.25;stroke-linecap:butt;stroke-linejoin:miter;stroke:rgb(0%,0%,0%);stroke-opacity:1;stroke-miterlimit:4;" d="M 142.25 148.109375 L 142.25 148.117188 C 142.367188 148.453125 142.335938 148.734375 142.21875 148.921875 C 142.101562 149.109375 141.882812 149.234375 141.578125 149.234375 L 129.28125 149.117188 C 128.96875 149.117188 128.632812 148.984375 128.34375 148.757812 C 128.054688 148.539062 127.820312 148.234375 127.703125 147.90625 L 121.921875 123.625 L 121.921875 123.609375 C 121.804688 123.28125 121.835938 123 121.953125 122.804688 C 122.070312 122.617188 122.289062 122.492188 122.59375 122.492188 L 134.890625 122.609375 C 135.203125 122.609375 135.539062 122.742188 135.828125 122.96875 C 136.117188 123.1875 136.351562 123.492188 136.46875 123.820312 Z M 142.25 148.109375 " transform="matrix(0.5,0,0,0.5,0,0)"/>
<path style="fill-rule:nonzero;fill:rgb(14.901961%,19.607843%,21.960784%);fill-opacity:1;stroke-width:0.25;stroke-linecap:butt;stroke-linejoin:miter;stroke:rgb(0%,0%,0%);stroke-opacity:1;stroke-miterlimit:4;" d="M 134.257812 125.914062 L 134.257812 125.789062 C 133.75 125.796875 133.328125 125.382812 133.320312 124.859375 C 133.320312 124.34375 133.726562 123.921875 134.234375 123.914062 C 134.734375 123.90625 135.15625 124.320312 135.164062 124.835938 C 135.171875 125.359375 134.757812 125.78125 134.257812 125.789062 Z M 134.257812 125.914062 C 134.835938 125.90625 135.296875 125.421875 135.289062 124.835938 L 134.226562 123.789062 C 133.65625 123.796875 133.195312 124.273438 133.195312 124.867188 C 133.203125 125.453125 133.679688 125.921875 134.257812 125.914062 Z M 134.257812 125.914062 " transform="matrix(0.5,0,0,0.5,0,0)"/>
<path style=" stroke:none;fill-rule:nonzero;fill:rgb(92.156863%,58.039216%,50.588235%);fill-opacity:1;" d="M 85.753906 77.261719 C 83.039062 84.308594 76.53125 93.660156 73.601562 93.898438 C 72.210938 94.007812 69.742188 94.515625 67.804688 93.007812 C 63.582031 89.71875 60.433594 84.609375 59.488281 81.617188 C 59.0625 80.273438 66.652344 75.90625 67.671875 77.003906 C 69.863281 79.378906 71.996094 82.59375 72.402344 82.535156 C 73.894531 82.320312 78.921875 77.394531 82.789062 73.621094 C 87.484375 69.039062 86.835938 74.453125 85.753906 77.261719 Z M 85.753906 77.261719 "/>
<path style=" stroke:none;fill-rule:nonzero;fill:rgb(92.156863%,58.039216%,50.588235%);fill-opacity:1;" d="M 58.839844 72.785156 C 59.617188 69.683594 60.28125 69.011719 59.570312 66.042969 C 59.101562 64.09375 60.125 62.953125 61.480469 64.515625 C 63.703125 67.074219 63.527344 71.289062 63.054688 72.730469 Z M 58.839844 72.785156 "/>
<path style=" stroke:none;fill-rule:nonzero;fill:rgb(92.156863%,58.039216%,50.588235%);fill-opacity:1;" d="M 59.488281 81.617188 C 59.488281 81.617188 58.019531 77.683594 58.523438 74.300781 C 58.871094 71.957031 60.1875 66.949219 66.632812 64.308594 C 68.164062 63.679688 70.78125 63.890625 68.648438 65.835938 C 67.132812 67.21875 65.761719 67.628906 65.023438 68.597656 C 65.023438 68.597656 68.320312 69.265625 68.878906 70.847656 C 69.128906 71.554688 69.761719 73.503906 70.046875 75.089844 C 70.046875 75.089844 69.722656 75.246094 69.285156 75.382812 C 69.285156 75.382812 69.761719 76.882812 68.667969 79.007812 Z M 59.488281 81.617188 "/>
<path style=" stroke:none;fill-rule:nonzero;fill:rgb(92.156863%,58.039216%,50.588235%);fill-opacity:1;" d="M 59.199219 72.117188 C 60.132812 71.316406 62.132812 69.648438 64.238281 68.863281 C 66.574219 67.992188 71.304688 66.953125 71.921875 68.714844 C 72.371094 70.003906 70.597656 70.5625 70.597656 70.5625 C 70.597656 70.5625 72.644531 70.554688 72.800781 71.808594 C 72.945312 72.957031 71.546875 73.304688 71.546875 73.304688 C 71.546875 73.304688 72.789062 73.515625 72.714844 74.644531 C 72.628906 76.003906 70.042969 75.339844 68.785156 76.640625 C 68.503906 76.933594 59.199219 72.117188 59.199219 72.117188 Z M 59.199219 72.117188 "/>
<path style=" stroke:none;fill-rule:nonzero;fill:rgb(14.901961%,19.607843%,21.960784%);fill-opacity:1;" d="M 64.738281 71.527344 C 65.734375 70.917969 68.347656 70.128906 70.566406 70.527344 C 70.617188 70.539062 70.636719 70.582031 70.589844 70.582031 C 68.054688 70.667969 65.722656 71.246094 64.746094 71.550781 C 64.734375 71.554688 64.726562 71.535156 64.738281 71.527344 Z M 64.738281 71.527344 "/>
<path style=" stroke:none;fill-rule:nonzero;fill:rgb(14.901961%,19.607843%,21.960784%);fill-opacity:1;" d="M 65.671875 73.902344 C 66.585938 73.46875 69.3125 72.773438 71.546875 73.257812 C 71.597656 73.269531 71.613281 73.316406 71.566406 73.3125 C 68.914062 73.292969 66.667969 73.679688 65.675781 73.925781 C 65.664062 73.929688 65.660156 73.90625 65.671875 73.902344 Z M 65.671875 73.902344 "/>
<path style=" stroke:none;fill-rule:nonzero;fill:rgb(37.647059%,36.862745%,84.705882%);fill-opacity:1;" d="M 77.28125 77.835938 L 78.320312 79.113281 L 78.535156 79.375 L 82.667969 84.464844 C 82.667969 84.464844 86.410156 78.242188 87.167969 74.703125 C 87.621094 72.578125 87.296875 71.324219 86.386719 71.09375 C 86.320312 71.078125 86.25 71.066406 86.179688 71.0625 C 85.589844 71.011719 84.800781 71.328125 83.851562 72.039062 C 81.191406 74.039062 77.28125 77.835938 77.28125 77.835938 Z M 77.28125 77.835938 "/>
<path style=" stroke:none;fill-rule:nonzero;fill:rgb(100%,100%,100%);fill-opacity:1;" d="M 86.101562 71.507812 C 86.207031 71.375 86.300781 71.238281 86.382812 71.097656 C 86.316406 71.078125 86.246094 71.066406 86.175781 71.066406 C 86.140625 71.207031 86.117188 71.355469 86.101562 71.507812 Z M 78.316406 79.113281 L 78.53125 79.375 C 78.644531 79.050781 78.738281 78.714844 78.773438 78.355469 C 78.585938 78.59375 78.441406 78.847656 78.316406 79.113281 Z M 83.585938 77.550781 C 83.628906 77.972656 83.757812 78.359375 83.902344 78.734375 C 84.066406 79.105469 84.246094 79.46875 84.511719 79.792969 C 84.46875 79.371094 84.339844 78.988281 84.195312 78.613281 C 84.03125 78.242188 83.851562 77.878906 83.585938 77.550781 Z M 83.585938 77.550781 "/>
<path style=" stroke:none;fill-rule:nonzero;fill:rgb(14.901961%,19.607843%,21.960784%);fill-opacity:1;" d="M 83.472656 82.347656 C 83.246094 81.8125 80.949219 78.597656 79.03125 76.558594 C 79.003906 76.527344 78.957031 76.570312 78.984375 76.601562 C 79.164062 76.851562 82.964844 82.015625 83.40625 82.40625 C 83.441406 82.4375 83.488281 82.386719 83.472656 82.347656 Z M 83.472656 82.347656 "/>
<use xlink:href="#surface9" mask="url(#mask1)"/>
<path style=" stroke:none;fill-rule:nonzero;fill:rgb(37.647059%,36.862745%,84.705882%);fill-opacity:1;" d="M 79.265625 100.378906 C 79.796875 100.964844 102.203125 103.390625 102.332031 103.234375 C 102.675781 102.808594 100.613281 79.777344 91.433594 71.335938 C 89.816406 69.851562 86.957031 70.273438 85.632812 71.039062 C 84.972656 71.421875 83.820312 74.605469 82.695312 78.320312 C 81.832031 81.160156 78.929688 100.003906 79.265625 100.378906 Z M 79.265625 100.378906 "/>
<path style=" stroke:none;fill-rule:nonzero;fill:rgb(100%,100%,100%);fill-opacity:1;" d="M 86.097656 71.507812 C 86.320312 71.234375 86.476562 70.933594 86.617188 70.628906 C 86.488281 70.664062 86.371094 70.707031 86.253906 70.75 C 86.179688 70.996094 86.121094 71.242188 86.097656 71.507812 Z M 83.390625 87.589844 C 83.65625 87.261719 83.832031 86.894531 83.988281 86.519531 C 84.132812 86.144531 84.257812 85.757812 84.296875 85.335938 C 84.03125 85.664062 83.851562 86.03125 83.699219 86.402344 C 83.554688 86.78125 83.429688 87.164062 83.390625 87.589844 Z M 93.890625 83.542969 C 94.15625 83.214844 94.328125 82.847656 94.484375 82.476562 C 94.632812 82.097656 94.753906 81.710938 94.789062 81.289062 C 94.53125 81.617188 94.351562 81.984375 94.195312 82.355469 C 94.050781 82.734375 93.925781 83.121094 93.890625 83.542969 Z M 100.757812 93.203125 C 100.851562 93.085938 100.933594 92.96875 101.007812 92.84375 L 101.007812 92.839844 C 100.980469 92.703125 100.949219 92.558594 100.921875 92.417969 C 100.84375 92.671875 100.78125 92.929688 100.757812 93.203125 Z M 88.433594 100.648438 C 88.695312 100.320312 88.875 99.953125 89.027344 99.582031 C 89.171875 99.203125 89.296875 98.816406 89.335938 98.398438 C 89.070312 98.722656 88.898438 99.089844 88.738281 99.460938 C 88.59375 99.839844 88.46875 100.226562 88.433594 100.648438 Z M 89.386719 74.96875 C 89.710938 75.238281 90.066406 75.414062 90.4375 75.574219 C 90.808594 75.71875 91.1875 75.84375 91.601562 75.882812 C 91.277344 75.617188 90.921875 75.4375 90.554688 75.28125 C 90.179688 75.132812 89.800781 75.003906 89.386719 74.96875 Z M 92.949219 87.613281 C 93.273438 87.878906 93.632812 88.0625 94 88.21875 C 94.371094 88.363281 94.75 88.492188 95.167969 88.53125 C 94.839844 88.261719 94.484375 88.085938 94.117188 87.921875 C 93.742188 87.777344 93.363281 87.652344 92.949219 87.613281 Z M 80.289062 91.839844 C 80.65625 91.980469 81.03125 92.101562 81.4375 92.140625 C 81.117188 91.875 80.753906 91.691406 80.390625 91.535156 C 80.375 91.527344 80.355469 91.523438 80.339844 91.515625 C 80.320312 91.625 80.304688 91.730469 80.289062 91.839844 Z M 100.234375 98.464844 C 100.277344 98.886719 100.40625 99.269531 100.550781 99.640625 C 100.710938 100.015625 100.894531 100.378906 101.160156 100.703125 C 101.117188 100.28125 100.988281 99.894531 100.839844 99.519531 C 100.679688 99.148438 100.496094 98.785156 100.234375 98.464844 Z M 83.582031 77.550781 C 83.625 77.972656 83.753906 78.359375 83.898438 78.734375 C 84.0625 79.105469 84.242188 79.46875 84.507812 79.796875 C 84.464844 79.375 84.335938 78.988281 84.191406 78.613281 C 84.027344 78.242188 83.847656 77.878906 83.582031 77.550781 Z M 87.953125 90.179688 C 87.996094 90.601562 88.125 90.988281 88.277344 91.363281 C 88.4375 91.730469 88.617188 92.09375 88.886719 92.417969 C 88.84375 91.996094 88.714844 91.613281 88.5625 91.238281 C 88.40625 90.867188 88.222656 90.507812 87.953125 90.179688 Z M 93.441406 96.445312 C 93.855469 96.402344 94.230469 96.269531 94.605469 96.117188 C 94.96875 95.957031 95.324219 95.769531 95.644531 95.496094 C 95.226562 95.542969 94.851562 95.675781 94.484375 95.824219 C 94.117188 95.992188 93.761719 96.171875 93.441406 96.445312 Z M 82.242188 96.9375 C 82.65625 96.894531 83.035156 96.765625 83.402344 96.613281 C 83.773438 96.449219 84.125 96.265625 84.445312 95.996094 C 84.03125 96.039062 83.652344 96.167969 83.28125 96.320312 C 82.917969 96.484375 82.5625 96.667969 82.242188 96.9375 Z M 87.332031 82.886719 C 87.746094 82.84375 88.125 82.714844 88.492188 82.5625 C 88.859375 82.398438 89.214844 82.21875 89.535156 81.945312 C 89.121094 81.988281 88.742188 82.117188 88.375 82.273438 C 88.007812 82.433594 87.652344 82.621094 87.332031 82.886719 Z M 87.332031 82.886719 "/>
<path style=" stroke:none;fill-rule:nonzero;fill:rgb(92.156863%,58.039216%,50.588235%);fill-opacity:1;" d="M 94.199219 74.03125 C 99.808594 80.925781 104.457031 89.722656 103.84375 92.0625 C 103.167969 94.632812 97.191406 103.574219 93.085938 107.097656 C 92.003906 108.03125 85.335938 98.882812 86.453125 97.839844 C 88.601562 95.832031 93.25 90.261719 93.878906 89.402344 C 94.410156 88.679688 92.164062 83.421875 90.574219 77.371094 C 89.355469 72.734375 91.347656 70.527344 94.199219 74.03125 Z M 94.199219 74.03125 "/>
<path style=" stroke:none;fill-rule:nonzero;fill:rgb(92.156863%,58.039216%,50.588235%);fill-opacity:1;" d="M 75.226562 105.671875 C 75.441406 106.847656 76.648438 106.996094 76.648438 106.996094 C 76.648438 106.996094 76.277344 107.875 76.601562 108.730469 C 76.972656 109.707031 78.644531 109.546875 78.644531 109.546875 C 78.644531 109.546875 78.453125 110.511719 78.882812 111.382812 C 79.332031 112.28125 81.039062 112.363281 81.039062 112.363281 C 81.039062 112.363281 81.347656 113.363281 82.25 113.84375 C 83.792969 114.660156 86.082031 113.292969 87.546875 112.4375 C 89.011719 111.582031 92.378906 107.761719 93.09375 107.101562 L 87.777344 97.492188 C 87.777344 97.492188 80.136719 99.425781 78.554688 100.679688 C 77.222656 101.734375 74.988281 104.351562 75.226562 105.671875 Z M 75.226562 105.671875 "/>
<path style=" stroke:none;fill-rule:nonzero;fill:rgb(14.901961%,19.607843%,21.960784%);fill-opacity:1;" d="M 76.617188 106.804688 C 77.769531 105.335938 79.285156 104.292969 80.742188 103.164062 C 80.773438 103.140625 80.8125 103.191406 80.78125 103.214844 C 79.320312 104.320312 78.09375 105.707031 76.679688 106.867188 C 76.640625 106.902344 76.589844 106.84375 76.617188 106.804688 Z M 76.617188 106.804688 "/>
<path style=" stroke:none;fill-rule:nonzero;fill:rgb(14.901961%,19.607843%,21.960784%);fill-opacity:1;" d="M 78.597656 109.402344 C 78.871094 109.078125 79.246094 108.847656 79.585938 108.609375 C 79.953125 108.351562 80.328125 108.101562 80.703125 107.855469 C 81.457031 107.367188 82.21875 106.894531 82.996094 106.445312 C 83.03125 106.425781 83.070312 106.476562 83.035156 106.5 C 82.285156 106.988281 81.542969 107.488281 80.816406 108.007812 C 80.449219 108.269531 80.085938 108.53125 79.726562 108.796875 C 79.390625 109.046875 79.058594 109.335938 78.671875 109.503906 C 78.617188 109.527344 78.558594 109.453125 78.597656 109.402344 Z M 78.597656 109.402344 "/>
<path style=" stroke:none;fill-rule:nonzero;fill:rgb(14.901961%,19.607843%,21.960784%);fill-opacity:1;" d="M 81.0625 112.34375 C 81.285156 112.050781 81.683594 111.863281 81.988281 111.675781 C 82.335938 111.460938 82.683594 111.242188 83.027344 111.023438 C 83.71875 110.582031 84.410156 110.144531 85.082031 109.679688 C 85.117188 109.65625 85.15625 109.707031 85.121094 109.730469 C 84.4375 110.207031 83.761719 110.6875 83.074219 111.15625 C 82.734375 111.386719 82.398438 111.613281 82.058594 111.839844 C 81.765625 112.035156 81.429688 112.308594 81.082031 112.378906 C 81.0625 112.382812 81.050781 112.355469 81.0625 112.34375 Z M 81.0625 112.34375 "/>
<path style=" stroke:none;fill-rule:nonzero;fill:rgb(37.647059%,36.862745%,84.705882%);fill-opacity:1;" d="M 91.589844 83.597656 L 100.296875 81.925781 C 100.296875 81.925781 96.578125 75.28125 93.769531 72.785156 C 90.960938 70.289062 89.230469 71.035156 89.691406 74.53125 C 90.148438 78.03125 91.589844 83.597656 91.589844 83.597656 Z M 91.589844 83.597656 "/>
<path style=" stroke:none;fill-rule:nonzero;fill:rgb(37.647059%,36.862745%,84.705882%);fill-opacity:1;" d="M 89.691406 74.535156 C 89.707031 74.691406 89.730469 74.859375 89.757812 75.023438 C 89.765625 75.097656 89.777344 75.171875 89.789062 75.246094 C 90.328125 78.738281 91.589844 83.597656 91.589844 83.597656 L 93.953125 83.144531 L 94.191406 83.097656 L 100.296875 81.925781 C 100.296875 81.925781 98.71875 79.109375 96.847656 76.453125 C 96.785156 76.367188 96.722656 76.277344 96.65625 76.191406 C 95.707031 74.863281 94.691406 73.601562 93.773438 72.785156 C 90.960938 70.289062 89.230469 71.035156 89.691406 74.535156 Z M 89.691406 74.535156 "/>
<path style=" stroke:none;fill-rule:nonzero;fill:rgb(100%,100%,100%);fill-opacity:1;" d="M 95.652344 76.792969 C 96.070312 76.75 96.449219 76.621094 96.820312 76.46875 C 96.832031 76.464844 96.839844 76.460938 96.851562 76.453125 C 96.789062 76.367188 96.726562 76.277344 96.660156 76.191406 C 96.304688 76.347656 95.964844 76.535156 95.652344 76.792969 Z M 89.761719 75.023438 C 89.769531 75.097656 89.78125 75.171875 89.792969 75.246094 C 90.003906 75.375 90.21875 75.476562 90.445312 75.570312 C 90.816406 75.71875 91.199219 75.84375 91.613281 75.882812 C 91.285156 75.613281 90.929688 75.4375 90.5625 75.28125 C 90.300781 75.175781 90.039062 75.082031 89.761719 75.023438 Z M 93.957031 83.148438 L 94.195312 83.097656 C 94.3125 82.898438 94.402344 82.6875 94.492188 82.476562 C 94.640625 82.097656 94.765625 81.710938 94.800781 81.289062 C 94.539062 81.617188 94.363281 81.984375 94.207031 82.355469 C 94.105469 82.609375 94.015625 82.875 93.957031 83.148438 Z M 93.957031 83.148438 "/>
<path style=" stroke:none;fill-rule:nonzero;fill:rgb(14.901961%,19.607843%,21.960784%);fill-opacity:1;" d="M 98.800781 80.105469 C 98.203125 80.042969 94.140625 80.5625 91.332031 81.316406 C 91.289062 81.328125 91.304688 81.390625 91.347656 81.386719 C 91.664062 81.34375 98.242188 80.410156 98.820312 80.195312 C 98.867188 80.179688 98.84375 80.109375 98.800781 80.105469 Z M 98.800781 80.105469 "/>
<path style=" stroke:none;fill-rule:nonzero;fill:rgb(14.901961%,19.607843%,21.960784%);fill-opacity:1;" d="M 90.015625 78.34375 C 90.011719 78.316406 90.050781 78.308594 90.0625 78.332031 C 90.207031 78.613281 90.3125 78.914062 90.425781 79.207031 C 90.449219 79.277344 90.472656 79.34375 90.5 79.414062 C 90.382812 78.664062 90.277344 77.910156 90.171875 77.164062 C 90.167969 77.128906 90.222656 77.117188 90.226562 77.152344 C 90.695312 79.726562 91.113281 80.957031 91.648438 83.511719 C 91.902344 83.484375 92.160156 83.457031 92.414062 83.425781 C 92.472656 83.421875 92.488281 83.507812 92.429688 83.519531 C 92.148438 83.585938 91.867188 83.65625 91.585938 83.722656 C 91.546875 83.730469 91.496094 83.703125 91.480469 83.664062 C 90.890625 82.058594 90.867188 81.644531 90.585938 79.949219 C 90.488281 79.71875 90.382812 79.488281 90.296875 79.25 C 90.191406 78.953125 90.078125 78.65625 90.015625 78.34375 Z M 90.015625 78.34375 "/>
<path style=" stroke:none;fill-rule:nonzero;fill:rgb(92.156863%,58.039216%,50.588235%);fill-opacity:1;" d="M 86.28125 74.886719 C 87.617188 75.363281 90.195312 73.484375 91.304688 71.859375 C 91.382812 71.746094 91.332031 70.476562 91.347656 68.933594 C 91.359375 67.996094 91.394531 66.953125 91.492188 66.003906 C 91.511719 65.808594 85.488281 66.820312 85.488281 66.820312 C 85.488281 66.820312 85.855469 68.871094 85.671875 70.523438 C 85.65625 70.664062 85.628906 70.789062 85.589844 70.910156 C 85.585938 70.929688 85.582031 70.949219 85.578125 70.972656 C 85.378906 71.699219 84.988281 74.421875 86.28125 74.886719 Z M 86.28125 74.886719 "/>
<path style=" stroke:none;fill-rule:nonzero;fill:rgb(14.901961%,19.607843%,21.960784%);fill-opacity:1;" d="M 91.128906 65.992188 C 90.691406 67.566406 89.304688 71.339844 86.171875 71.074219 C 85.953125 71.054688 85.757812 71.023438 85.578125 70.976562 C 85.578125 70.949219 85.585938 70.929688 85.589844 70.910156 C 85.628906 70.789062 85.65625 70.664062 85.671875 70.527344 C 85.855469 68.871094 85.488281 66.820312 85.488281 66.820312 C 85.488281 66.820312 89.835938 66.089844 91.128906 65.992188 Z M 91.128906 65.992188 "/>
<path style=" stroke:none;fill-rule:nonzero;fill:rgb(14.901961%,19.607843%,21.960784%);fill-opacity:1;" d="M 93.09375 63.480469 C 93.09375 63.480469 92.980469 64.929688 93.09375 65.4375 C 93.203125 65.945312 94.300781 66.507812 94.300781 66.507812 C 94.300781 66.507812 93.015625 66.921875 92.660156 66.824219 C 92.300781 66.722656 91.75 65.765625 91.75 65.765625 C 91.75 65.765625 92.238281 67.285156 92.75 67.382812 C 93.066406 67.441406 91.960938 67.414062 91.960938 67.414062 C 91.960938 67.414062 91.375 67.375 91.011719 66.929688 C 90.652344 66.484375 93.09375 63.480469 93.09375 63.480469 Z M 93.09375 63.480469 "/>
<path style=" stroke:none;fill-rule:nonzero;fill:rgb(92.156863%,58.039216%,50.588235%);fill-opacity:1;" d="M 92.523438 58.507812 C 93.160156 60.632812 92.058594 66.761719 90.574219 68.132812 C 88.421875 70.113281 84.902344 70.304688 83.242188 67.671875 C 81.636719 65.121094 83.214844 57.15625 84.871094 55.914062 C 87.316406 54.082031 91.585938 55.371094 92.523438 58.507812 Z M 92.523438 58.507812 "/>
<path style=" stroke:none;fill-rule:nonzero;fill:rgb(14.901961%,19.607843%,21.960784%);fill-opacity:1;" d="M 87.691406 61.152344 C 87.519531 61.074219 87.375 60.976562 87.210938 60.882812 C 87.03125 60.773438 86.875 60.710938 86.777344 60.511719 C 86.722656 60.402344 86.78125 60.238281 86.878906 60.175781 C 87.105469 60.03125 87.359375 60.105469 87.585938 60.222656 C 87.828125 60.351562 87.984375 60.515625 88.09375 60.773438 C 88.199219 61.019531 87.914062 61.253906 87.691406 61.152344 Z M 87.691406 61.152344 "/>
<path style=" stroke:none;fill-rule:nonzero;fill:rgb(14.901961%,19.607843%,21.960784%);fill-opacity:1;" d="M 83.558594 60.585938 C 83.746094 60.601562 83.921875 60.585938 84.105469 60.585938 C 84.316406 60.582031 84.484375 60.601562 84.664062 60.472656 C 84.761719 60.40625 84.789062 60.234375 84.734375 60.132812 C 84.601562 59.894531 84.34375 59.832031 84.09375 59.824219 C 83.816406 59.816406 83.605469 59.882812 83.386719 60.054688 C 83.175781 60.21875 83.3125 60.5625 83.558594 60.585938 Z M 83.558594 60.585938 "/>
<path style=" stroke:none;fill-rule:nonzero;fill:rgb(14.901961%,19.607843%,21.960784%);fill-opacity:1;" d="M 86.800781 66.101562 C 86.71875 66.214844 86.644531 66.367188 86.5 66.40625 C 86.359375 66.441406 86.183594 66.40625 86.042969 66.378906 C 86.03125 66.378906 86.019531 66.394531 86.03125 66.40625 C 86.164062 66.542969 86.402344 66.601562 86.585938 66.535156 C 86.765625 66.46875 86.828125 66.289062 86.839844 66.113281 C 86.84375 66.085938 86.8125 66.082031 86.800781 66.101562 Z M 86.800781 66.101562 "/>
<path style=" stroke:none;fill-rule:nonzero;fill:rgb(14.901961%,19.607843%,21.960784%);fill-opacity:1;" d="M 86.679688 65.417969 C 86.390625 65.738281 86.023438 65.871094 85.648438 65.878906 C 85.480469 65.882812 85.308594 65.859375 85.144531 65.8125 C 85.113281 65.804688 85.082031 65.796875 85.050781 65.785156 C 85.023438 65.777344 84.996094 65.769531 84.964844 65.753906 C 84.917969 65.738281 84.898438 65.695312 84.898438 65.648438 L 84.902344 65.644531 C 84.902344 65.628906 84.90625 65.617188 84.910156 65.601562 C 84.910156 65.601562 84.910156 65.601562 84.914062 65.601562 L 84.917969 65.5625 C 84.964844 65.242188 85.082031 64.765625 85.082031 64.765625 C 84.957031 64.804688 84.328125 64.964844 84.363281 64.800781 C 84.683594 63.4375 85.039062 61.921875 85.640625 60.636719 C 85.660156 60.59375 85.726562 60.613281 85.714844 60.660156 C 85.457031 61.980469 84.972656 63.25 84.695312 64.574219 C 84.894531 64.535156 85.222656 64.453125 85.382812 64.488281 C 85.425781 64.507812 85.148438 65.410156 85.136719 65.554688 C 85.136719 65.554688 85.136719 65.558594 85.136719 65.570312 C 85.652344 65.734375 86.074219 65.640625 86.648438 65.375 C 86.683594 65.355469 86.710938 65.390625 86.679688 65.417969 Z M 86.679688 65.417969 "/>
<path style=" stroke:none;fill-rule:nonzero;fill:rgb(14.901961%,19.607843%,21.960784%);fill-opacity:1;" d="M 92.175781 63.917969 C 91.097656 63.589844 90.597656 59.886719 90.597656 59.886719 L 90.363281 61.914062 C 90.363281 61.914062 89.539062 61.21875 89.160156 60.300781 C 88.886719 59.648438 88.988281 58.738281 89.097656 58.292969 C 89.097656 58.292969 87.882812 59.554688 86.492188 59.90625 C 85.980469 60.039062 82.570312 59.574219 82.574219 59.339844 C 82.582031 58.632812 83.753906 56.519531 84.707031 55.878906 C 85.804688 55.140625 87.367188 54.433594 89.597656 55.339844 C 91.824219 56.246094 92.390625 57.71875 92.710938 58.859375 C 93.027344 60 92.574219 64.039062 92.175781 63.917969 Z M 92.175781 63.917969 "/>
<path style=" stroke:none;fill-rule:nonzero;fill:rgb(92.156863%,58.039216%,50.588235%);fill-opacity:1;" d="M 91.238281 63.507812 C 91.238281 63.507812 92.640625 61.550781 93.515625 62.0625 C 94.390625 62.574219 93.308594 65.429688 92.261719 65.800781 C 91.21875 66.171875 90.859375 65.195312 90.859375 65.195312 Z M 91.238281 63.507812 "/>
<path style=" stroke:none;fill-rule:nonzero;fill:rgb(14.901961%,19.607843%,21.960784%);fill-opacity:1;" d="M 93.179688 62.875 C 93.195312 62.871094 93.199219 62.898438 93.183594 62.902344 C 92.453125 63.1875 92.054688 63.867188 91.773438 64.574219 C 91.996094 64.304688 92.292969 64.160156 92.648438 64.429688 C 92.664062 64.441406 92.648438 64.472656 92.628906 64.46875 C 92.328125 64.398438 92.113281 64.445312 91.90625 64.683594 C 91.761719 64.851562 91.660156 65.070312 91.554688 65.265625 C 91.519531 65.332031 91.402344 65.292969 91.425781 65.21875 C 91.429688 65.210938 91.429688 65.207031 91.433594 65.199219 C 91.433594 64.253906 92.179688 62.949219 93.179688 62.875 Z M 93.179688 62.875 "/>
<path style=" stroke:none;fill-rule:nonzero;fill:rgb(37.647059%,36.862745%,84.705882%);fill-opacity:1;" d="M 86.75 54.921875 C 87.429688 54.632812 88.238281 54.335938 89.171875 54.230469 C 90.105469 54.128906 93.042969 54.410156 93.738281 55.023438 C 94.433594 55.632812 94.574219 58.457031 94.585938 58.867188 C 94.597656 59.28125 94.375 61.769531 93.476562 62.355469 C 92.578125 62.945312 92.566406 58.707031 91.1875 57.277344 C 89.808594 55.851562 86.75 54.921875 86.75 54.921875 Z M 86.75 54.921875 "/>
<use xlink:href="#surface12" mask="url(#mask2)"/>
<path style=" stroke:none;fill-rule:nonzero;fill:rgb(37.647059%,36.862745%,84.705882%);fill-opacity:1;" d="M 93.191406 64.867188 C 93.132812 63.738281 92.054688 60.695312 90.898438 58.945312 C 89.742188 57.191406 86.28125 56.121094 85.792969 56.140625 C 84.613281 56.191406 84.207031 56.546875 84.019531 56.4375 C 83.835938 56.324219 85.066406 55.445312 85.402344 55.246094 C 85.738281 55.050781 86.640625 54.589844 87.152344 54.609375 C 87.667969 54.632812 90.824219 55.007812 91.953125 56.398438 C 93.082031 57.792969 94.644531 61.667969 94.332031 62.648438 C 94.253906 62.882812 93.945312 63.027344 93.839844 63.363281 C 93.703125 63.800781 93.605469 64.308594 93.46875 64.613281 C 93.359375 64.859375 93.195312 64.964844 93.191406 64.867188 Z M 93.191406 64.867188 "/>
<path style=" stroke:none;fill-rule:nonzero;fill:rgb(14.901961%,19.607843%,21.960784%);fill-opacity:1;" d="M 90.640625 58.164062 C 90.917969 57.996094 91.171875 57.816406 91.417969 57.601562 C 91.660156 57.394531 91.902344 57.164062 92.085938 56.902344 C 92.101562 56.882812 92.128906 56.898438 92.117188 56.921875 C 91.949219 57.214844 91.761719 57.484375 91.507812 57.710938 C 91.265625 57.929688 90.972656 58.109375 90.664062 58.222656 C 90.632812 58.234375 90.613281 58.179688 90.640625 58.164062 Z M 90.640625 58.164062 "/>
<path style=" stroke:none;fill-rule:nonzero;fill:rgb(14.901961%,19.607843%,21.960784%);fill-opacity:1;" d="M 93.222656 63.738281 C 93.253906 63.660156 93.308594 63.585938 93.347656 63.507812 C 93.394531 63.421875 93.429688 63.328125 93.457031 63.234375 C 93.503906 63.046875 93.503906 62.859375 93.589844 62.6875 C 93.660156 62.550781 93.761719 62.433594 93.859375 62.316406 C 93.96875 62.183594 94.078125 62.042969 94.085938 61.859375 C 94.085938 61.835938 94.121094 61.835938 94.121094 61.859375 C 94.117188 62.203125 93.886719 62.441406 93.734375 62.726562 C 93.636719 62.910156 93.636719 63.117188 93.574219 63.308594 C 93.515625 63.472656 93.421875 63.683594 93.273438 63.777344 C 93.25 63.792969 93.210938 63.765625 93.222656 63.738281 Z M 93.222656 63.738281 "/>
<path style=" stroke:none;fill-rule:nonzero;fill:rgb(14.901961%,19.607843%,21.960784%);fill-opacity:1;" d="M 92.863281 62.515625 C 92.96875 62.386719 93.085938 62.273438 93.179688 62.136719 C 93.273438 62.003906 93.351562 61.863281 93.425781 61.71875 C 93.5 61.578125 93.558594 61.429688 93.628906 61.285156 C 93.710938 61.117188 93.8125 60.953125 93.886719 60.78125 C 93.898438 60.761719 93.929688 60.777344 93.921875 60.800781 C 93.84375 60.980469 93.796875 61.175781 93.726562 61.355469 C 93.664062 61.511719 93.589844 61.664062 93.507812 61.8125 C 93.429688 61.957031 93.339844 62.089844 93.238281 62.214844 C 93.140625 62.332031 93.015625 62.464844 92.875 62.53125 C 92.863281 62.535156 92.855469 62.523438 92.863281 62.515625 Z M 92.863281 62.515625 "/>
<path style=" stroke:none;fill-rule:nonzero;fill:rgb(14.901961%,19.607843%,21.960784%);fill-opacity:1;" d="M 92.476562 61.402344 C 92.707031 61.210938 92.921875 60.976562 93.089844 60.71875 C 93.257812 60.46875 93.40625 60.207031 93.554688 59.945312 C 93.566406 59.925781 93.597656 59.9375 93.589844 59.957031 C 93.476562 60.253906 93.371094 60.546875 93.191406 60.808594 C 93.109375 60.933594 93.015625 61.058594 92.902344 61.160156 C 92.78125 61.269531 92.640625 61.355469 92.5 61.433594 C 92.480469 61.445312 92.457031 61.417969 92.476562 61.402344 Z M 92.476562 61.402344 "/>
<path style=" stroke:none;fill-rule:nonzero;fill:rgb(14.901961%,19.607843%,21.960784%);fill-opacity:1;" d="M 92.054688 60.339844 C 92.179688 60.265625 92.261719 60.15625 92.351562 60.042969 C 92.449219 59.917969 92.546875 59.789062 92.636719 59.660156 C 92.726562 59.535156 92.816406 59.414062 92.902344 59.289062 C 92.992188 59.164062 93.078125 59.03125 93.109375 58.878906 C 93.113281 58.855469 93.148438 58.859375 93.144531 58.882812 C 93.136719 59.039062 93.078125 59.179688 93.011719 59.320312 C 92.933594 59.472656 92.851562 59.621094 92.753906 59.757812 C 92.652344 59.894531 92.550781 60.023438 92.4375 60.144531 C 92.335938 60.25 92.21875 60.359375 92.074219 60.386719 C 92.046875 60.394531 92.027344 60.355469 92.054688 60.339844 Z M 92.054688 60.339844 "/>
<path style=" stroke:none;fill-rule:nonzero;fill:rgb(14.901961%,19.607843%,21.960784%);fill-opacity:1;" d="M 91.757812 58.996094 C 91.863281 58.894531 91.964844 58.792969 92.0625 58.683594 C 92.160156 58.574219 92.25 58.460938 92.339844 58.347656 C 92.433594 58.226562 92.53125 58.109375 92.613281 57.984375 C 92.628906 57.964844 92.65625 57.980469 92.648438 58.003906 C 92.582031 58.140625 92.519531 58.277344 92.433594 58.410156 C 92.351562 58.535156 92.261719 58.652344 92.160156 58.769531 C 92.0625 58.878906 91.960938 58.988281 91.851562 59.089844 C 91.742188 59.183594 91.621094 59.292969 91.484375 59.339844 C 91.464844 59.34375 91.445312 59.320312 91.457031 59.300781 C 91.535156 59.183594 91.65625 59.09375 91.757812 58.996094 Z M 91.757812 58.996094 "/>
<path style=" stroke:none;fill-rule:nonzero;fill:rgb(14.901961%,19.607843%,21.960784%);fill-opacity:1;" d="M 89.804688 57.507812 C 89.914062 57.371094 90.023438 57.234375 90.148438 57.109375 C 90.273438 56.984375 90.410156 56.863281 90.546875 56.75 C 90.820312 56.53125 91.105469 56.332031 91.417969 56.175781 C 91.4375 56.167969 91.460938 56.191406 91.441406 56.203125 C 90.910156 56.652344 90.359375 57.078125 89.828125 57.53125 C 89.8125 57.546875 89.789062 57.523438 89.804688 57.507812 Z M 89.804688 57.507812 "/>
<path style=" stroke:none;fill-rule:nonzero;fill:rgb(14.901961%,19.607843%,21.960784%);fill-opacity:1;" d="M 89.148438 56.53125 C 89.261719 56.394531 89.390625 56.277344 89.53125 56.171875 C 89.828125 55.957031 90.15625 55.796875 90.492188 55.652344 C 90.511719 55.640625 90.53125 55.671875 90.507812 55.683594 C 90.21875 55.871094 89.925781 56.058594 89.644531 56.265625 C 89.507812 56.367188 89.367188 56.472656 89.242188 56.585938 C 89.113281 56.703125 89.015625 56.847656 88.894531 56.96875 C 88.886719 56.976562 88.867188 56.96875 88.871094 56.953125 C 88.921875 56.796875 89.042969 56.652344 89.148438 56.53125 Z M 89.148438 56.53125 "/>
<path style=" stroke:none;fill-rule:nonzero;fill:rgb(14.901961%,19.607843%,21.960784%);fill-opacity:1;" d="M 88.226562 56.070312 C 88.335938 55.9375 88.453125 55.820312 88.582031 55.714844 C 88.828125 55.511719 89.101562 55.355469 89.402344 55.246094 C 89.421875 55.238281 89.433594 55.269531 89.414062 55.277344 C 89.144531 55.4375 88.882812 55.625 88.640625 55.828125 C 88.519531 55.933594 88.40625 56.042969 88.285156 56.148438 C 88.171875 56.257812 88.070312 56.394531 87.945312 56.488281 C 87.933594 56.496094 87.921875 56.480469 87.929688 56.472656 C 88.003906 56.328125 88.128906 56.195312 88.226562 56.070312 Z M 88.226562 56.070312 "/>
<path style=" stroke:none;fill-rule:nonzero;fill:rgb(14.901961%,19.607843%,21.960784%);fill-opacity:1;" d="M 87.570312 55.496094 C 87.6875 55.402344 87.808594 55.316406 87.933594 55.226562 C 88.054688 55.140625 88.179688 55.058594 88.320312 55.015625 C 88.34375 55.007812 88.351562 55.035156 88.335938 55.046875 C 88.105469 55.226562 87.878906 55.414062 87.652344 55.597656 C 87.441406 55.773438 87.296875 56 87.121094 56.210938 C 87.117188 56.21875 87.097656 56.210938 87.101562 56.199219 C 87.191406 55.921875 87.339844 55.679688 87.570312 55.496094 Z M 87.570312 55.496094 "/>
<path style=" stroke:none;fill-rule:nonzero;fill:rgb(14.901961%,19.607843%,21.960784%);fill-opacity:1;" d="M 86.742188 55.300781 C 86.957031 55.089844 87.214844 54.957031 87.488281 54.84375 C 87.507812 54.835938 87.523438 54.871094 87.503906 54.878906 C 87.25 55 87.027344 55.191406 86.820312 55.382812 C 86.613281 55.578125 86.441406 55.804688 86.28125 56.042969 C 86.273438 56.054688 86.25 56.046875 86.257812 56.03125 C 86.351562 55.753906 86.53125 55.503906 86.742188 55.300781 Z M 86.742188 55.300781 "/>
<path style=" stroke:none;fill-rule:nonzero;fill:rgb(14.901961%,19.607843%,21.960784%);fill-opacity:1;" d="M 85.644531 55.789062 C 85.671875 55.726562 85.707031 55.671875 85.742188 55.617188 C 85.816406 55.507812 85.902344 55.40625 85.996094 55.316406 C 86.183594 55.125 86.410156 54.980469 86.632812 54.832031 C 86.652344 54.820312 86.671875 54.851562 86.652344 54.863281 C 86.433594 55.003906 86.234375 55.175781 86.054688 55.359375 C 85.964844 55.453125 85.886719 55.554688 85.8125 55.65625 C 85.773438 55.707031 85.742188 55.761719 85.710938 55.816406 C 85.679688 55.867188 85.65625 55.929688 85.617188 55.972656 C 85.605469 55.984375 85.582031 55.976562 85.585938 55.960938 C 85.585938 55.902344 85.621094 55.839844 85.644531 55.789062 Z M 85.644531 55.789062 "/>
<path style=" stroke:none;fill-rule:nonzero;fill:rgb(14.901961%,19.607843%,21.960784%);fill-opacity:1;" d="M 84.972656 55.835938 C 85.039062 55.75 85.105469 55.664062 85.179688 55.585938 C 85.253906 55.507812 85.332031 55.433594 85.414062 55.363281 C 85.5 55.292969 85.589844 55.226562 85.671875 55.152344 C 85.691406 55.136719 85.714844 55.164062 85.691406 55.183594 C 85.605469 55.25 85.527344 55.332031 85.453125 55.414062 C 85.382812 55.492188 85.3125 55.570312 85.242188 55.648438 C 85.171875 55.726562 85.101562 55.804688 85.03125 55.882812 C 84.960938 55.960938 84.898438 56.050781 84.820312 56.121094 C 84.804688 56.132812 84.789062 56.121094 84.796875 56.105469 C 84.839844 56.007812 84.910156 55.921875 84.972656 55.835938 Z M 84.972656 55.835938 "/>
<path style=" stroke:none;fill-rule:nonzero;fill:rgb(14.901961%,19.607843%,21.960784%);fill-opacity:1;" d="M 84.789062 72.367188 C 84.800781 73.375 84.722656 75.089844 85.5625 75.585938 C 86.039062 75.867188 86.570312 75.886719 87.097656 75.832031 C 88.222656 75.71875 89.261719 75.183594 90.179688 74.5 C 90.441406 74.304688 90.695312 74.09375 90.945312 73.882812 C 91.191406 73.679688 91.433594 73.460938 91.648438 73.222656 C 91.664062 73.207031 91.6875 73.234375 91.671875 73.25 C 91.460938 73.484375 91.261719 73.726562 91.046875 73.957031 C 90.839844 74.183594 90.617188 74.394531 90.386719 74.589844 C 89.917969 74.984375 89.410156 75.320312 88.863281 75.574219 C 88.320312 75.828125 87.75 75.996094 87.164062 76.0625 C 86.609375 76.121094 85.984375 76.109375 85.496094 75.78125 C 84.394531 75.03125 84.6875 72.984375 84.757812 72.375 C 84.761719 72.351562 84.789062 72.34375 84.789062 72.367188 Z M 84.789062 72.367188 "/>
<path style=" stroke:none;fill-rule:nonzero;fill:rgb(14.901961%,19.607843%,21.960784%);fill-opacity:1;" d="M 84.421875 61.773438 C 84.457031 61.46875 84.289062 61.203125 84.050781 61.179688 C 83.808594 61.15625 83.585938 61.382812 83.550781 61.691406 C 83.515625 61.996094 83.683594 62.261719 83.921875 62.285156 C 84.164062 62.308594 84.386719 62.078125 84.421875 61.773438 Z M 84.421875 61.773438 "/>
<path style=" stroke:none;fill-rule:nonzero;fill:rgb(14.901961%,19.607843%,21.960784%);fill-opacity:1;" d="M 87.832031 62.457031 C 87.867188 62.152344 87.699219 61.882812 87.460938 61.859375 C 87.21875 61.839844 86.996094 62.066406 86.960938 62.371094 C 86.925781 62.675781 87.09375 62.945312 87.332031 62.96875 C 87.574219 62.988281 87.796875 62.761719 87.832031 62.457031 Z M 87.832031 62.457031 "/>
<path style=" stroke:none;fill-rule:nonzero;fill:rgb(76.470588%,76.470588%,76.470588%);fill-opacity:1;" d="M 80.121094 39.921875 C 77.0625 42.789062 76.355469 46.910156 78.546875 49.125 C 79.429688 50.019531 80.652344 50.464844 82 50.492188 L 83.25 53.105469 L 84.96875 49.917969 C 86.046875 49.492188 87.105469 48.824219 88.050781 47.941406 C 91.109375 45.074219 91.816406 40.953125 89.625 38.738281 C 87.433594 36.523438 83.179688 37.054688 80.121094 39.921875 Z M 80.121094 39.921875 "/>
<path style=" stroke:none;fill-rule:nonzero;fill:rgb(18.039216%,19.215686%,57.254902%);fill-opacity:1;" d="M 84.757812 41.828125 C 84.820312 41.339844 85.429688 40.984375 86.035156 41.070312 C 86.667969 41.15625 87.253906 41.535156 87.164062 42.234375 C 87.082031 42.878906 86.3125 43.023438 86.121094 43.234375 C 85.980469 43.394531 85.988281 43.640625 85.664062 43.597656 C 85.449219 43.566406 85.367188 43.378906 85.386719 43.222656 C 85.464844 42.632812 86.347656 42.617188 86.410156 42.128906 C 86.445312 41.863281 86.289062 41.679688 85.992188 41.636719 C 85.359375 41.550781 85.519531 42.238281 85.039062 42.175781 C 84.867188 42.148438 84.730469 42.027344 84.757812 41.828125 Z M 85.183594 44.273438 C 85.210938 44.050781 85.417969 43.890625 85.640625 43.921875 C 85.863281 43.953125 86.023438 44.160156 85.992188 44.382812 C 85.964844 44.605469 85.757812 44.765625 85.535156 44.734375 C 85.3125 44.703125 85.152344 44.496094 85.183594 44.273438 Z M 85.183594 44.273438 "/>
<path style=" stroke:none;fill-rule:nonzero;fill:rgb(18.039216%,19.215686%,57.254902%);fill-opacity:1;" d="M 80.386719 44.425781 C 80.222656 43.964844 80.605469 43.375 81.183594 43.179688 C 81.792969 42.976562 82.488281 43.054688 82.722656 43.71875 C 82.941406 44.328125 82.316406 44.804688 82.246094 45.074219 C 82.191406 45.28125 82.308594 45.496094 81.996094 45.601562 C 81.792969 45.671875 81.636719 45.539062 81.582031 45.390625 C 81.382812 44.828125 82.167969 44.421875 82.003906 43.960938 C 81.914062 43.707031 81.6875 43.613281 81.402344 43.707031 C 80.796875 43.914062 81.253906 44.453125 80.796875 44.609375 C 80.628906 44.664062 80.453125 44.613281 80.386719 44.425781 Z M 81.871094 46.421875 C 81.796875 46.207031 81.910156 45.972656 82.125 45.902344 C 82.335938 45.832031 82.574219 45.945312 82.648438 46.15625 C 82.726562 46.371094 82.613281 46.605469 82.398438 46.675781 C 82.183594 46.746094 81.949219 46.632812 81.871094 46.421875 Z M 81.871094 46.421875 "/>
</g>
</svg>
