<svg width="227" height="277" viewBox="0 0 227 277" fill="none" xmlns="http://www.w3.org/2000/svg">
<rect width="227" height="277" fill="white"/>
<path d="M41 5H180.942V38.4287C180.942 46.9707 174.017 53.8953 165.475 53.8953H41V5Z" fill="url(#paint0_linear_1293_5825)"/>
<path d="M41 99.7108C41 91.1688 47.9247 84.2441 56.4667 84.2441H96.6395V205.639H41V99.7108Z" fill="#0A0929"/>
<path d="M41 99.7108C41 91.1688 47.9247 84.2441 56.4667 84.2441H170.826V126.395H41V99.7108Z" fill="#0A0929"/>
<rect x="41" y="158.43" width="145" height="47.2093" fill="#0A0929"/>
<path d="M27.2891 244.984C28.4297 244.984 29.2422 245.445 29.7266 246.367C30.2109 247.289 30.4531 248.648 30.4531 250.445C30.4531 252.242 30.3281 253.25 30.0781 253.469C24.5469 253.234 19.4766 253.102 14.8672 253.07C10.2734 253.039 7.32812 253.016 6.03125 253C6.48438 249.266 6.71094 245.141 6.71094 240.625V225.438C6.71094 224.078 6.5 223.203 6.07812 222.812C5.89062 222.641 5.61719 222.492 5.25781 222.367C5.02344 222.055 4.90625 221.555 4.90625 220.867C4.90625 220.164 4.92969 219.672 4.97656 219.391C6.36719 219.375 8.32031 219.359 10.8359 219.344C13.3516 219.328 15.2969 219.312 16.6719 219.297C20.5312 219.25 25 219.125 30.0781 218.922C30.3281 219.141 30.4531 220.148 30.4531 221.945C30.4531 223.742 30.2109 225.102 29.7266 226.023C29.2422 226.945 28.3359 227.406 27.0078 227.406C25.6797 227.406 24.75 226.992 24.2188 226.164V223.328C19.6562 223.109 16.0234 223 13.3203 223C13.7109 224.719 13.9062 226.828 13.9062 229.328C13.9062 229.516 13.9062 229.695 13.9062 229.867V234.227L23.9844 233.711C24.2344 234.008 24.3594 234.609 24.3594 235.516C24.3594 236.406 24.2812 237.32 24.125 238.258C23.2656 238.383 22.0391 238.445 20.4453 238.445C18.8672 238.445 16.6875 238.289 13.9062 237.977V242.547C13.9062 242.719 13.9062 242.898 13.9062 243.086C13.9062 245.602 13.7109 247.703 13.3203 249.391C16.0234 249.391 19.6562 249.281 24.2188 249.062V246.227C24.4844 245.711 25.0938 245.344 26.0469 245.125C26.4219 245.031 26.8359 244.984 27.2891 244.984ZM54.6059 227.523C57.5434 227.523 59.0122 228.93 59.0122 231.742C59.0122 233.914 57.8716 236.891 55.5903 240.672C52.6528 245.531 50.4028 249.82 48.8403 253.539C48.2778 253.758 47.6528 253.867 46.9653 253.867C46.2778 253.867 45.6059 253.734 44.9497 253.469C44.2934 253.203 43.8403 252.906 43.5903 252.578C43.3559 252.25 42.8247 251.062 41.9966 249.016C41.1841 246.969 40.3247 244.828 39.4184 242.594C38.5278 240.359 37.5278 238.203 36.4184 236.125C35.3091 234.047 34.3794 232.773 33.6294 232.305C33.3794 232.148 32.6294 232.023 31.3794 231.93C31.3638 231.805 31.3403 231.672 31.3091 231.531C31.2778 231.375 31.2544 231.258 31.2388 231.18C31.1919 230.852 31.1919 230.555 31.2388 230.289C33.5044 229.023 36.0434 228.391 38.8559 228.391C39.3716 228.391 39.7544 228.398 40.0044 228.414C40.645 229.086 41.6059 230.984 42.8872 234.109C44.1684 237.219 45.7544 241.805 47.645 247.867C51.0044 238.102 52.7622 232.438 52.9184 230.875C52.9653 230.484 52.9888 230.047 52.9888 229.562C52.9888 229.062 52.8403 228.586 52.5434 228.133C52.5434 227.992 52.77 227.859 53.2231 227.734C53.6763 227.594 54.1372 227.523 54.6059 227.523ZM68.7744 242.875C69.2431 245.188 70.2431 247.055 71.7744 248.477C73.3056 249.898 75.0947 250.609 77.1416 250.609C79.1884 250.609 81.2509 249.727 83.3291 247.961C84.1103 248.477 84.5869 249.086 84.7588 249.789C83.3213 251.461 81.1963 252.656 78.3838 253.375C77.2431 253.672 75.9228 253.82 74.4228 253.82C72.9384 253.82 71.3994 253.547 69.8056 253C68.2119 252.469 66.7822 251.688 65.5166 250.656C64.2666 249.625 63.2744 248.273 62.54 246.602C61.8056 244.914 61.4384 243.047 61.4384 241C61.4384 238.953 61.8134 237.102 62.5634 235.445C63.3134 233.773 64.3056 232.406 65.54 231.344C68.1181 229.109 71.0713 227.992 74.3994 227.992C77.3213 227.992 79.8525 228.781 81.9931 230.359C83.0244 231.141 83.8447 232.156 84.4541 233.406C85.0791 234.641 85.3916 236.039 85.3916 237.602C85.3916 240.273 84.5088 241.68 82.7431 241.82L68.7744 242.875ZM79.0869 236.898C79.0869 235.039 78.5713 233.586 77.54 232.539C76.5088 231.492 75.1572 230.969 73.4853 230.969C71.8134 230.969 70.5478 231.758 69.6884 233.336C68.8291 234.898 68.3994 237.07 68.3994 239.852C72.29 239.43 75.8056 238.984 78.9463 238.516C79.04 237.953 79.0869 237.414 79.0869 236.898ZM108.255 247.914L108.49 238.984C108.49 236.953 108.419 235.672 108.279 235.141C108.154 234.609 107.99 234.211 107.787 233.945C107.349 233.398 106.708 233.125 105.865 233.125C105.021 233.125 104.302 233.219 103.708 233.406C102.49 233.812 100.927 234.953 99.0209 236.828C99.0209 238.859 98.9741 244.266 98.8803 253.047C97.1459 253.344 95.7006 253.492 94.5444 253.492C93.3881 253.492 92.4116 253.344 91.6147 253.047C91.8959 249.25 92.0366 245.75 92.0366 242.547C92.0366 239.328 91.9975 236.555 91.9194 234.227C91.9194 233.039 91.4975 232.336 90.6537 232.117C90.1225 231.945 89.3725 231.82 88.4037 231.742C88.31 231.336 88.2631 231.016 88.2631 230.781C88.2631 230.531 88.2944 230.305 88.3569 230.102C90.6069 228.836 93.4037 228.203 96.7475 228.203C97.2944 228.203 97.7006 228.211 97.9662 228.227C98.5756 229.273 98.9116 231.07 98.9741 233.617C101.896 229.867 105.318 227.992 109.24 227.992C111.052 227.992 112.466 228.609 113.482 229.844C114.513 231.062 115.099 232.719 115.24 234.812C115.302 235.766 115.333 236.719 115.333 237.672C115.333 238.625 115.287 239.656 115.193 240.766C114.927 244.141 114.794 246.727 114.794 248.523C114.794 248.93 115.083 249.242 115.662 249.461C116.24 249.68 116.802 249.789 117.349 249.789C117.912 249.789 118.294 249.758 118.497 249.695C118.685 250.117 118.779 250.508 118.779 250.867C118.779 251.211 118.763 251.445 118.732 251.57C115.81 253.086 113.63 253.844 112.193 253.844C110.755 253.844 109.74 253.359 109.146 252.391C108.552 251.406 108.255 249.914 108.255 247.914ZM135.783 248.289C136.346 248.805 136.666 249.336 136.744 249.883C134.682 252.508 132.299 253.82 129.596 253.82C127.83 253.82 126.58 253.117 125.846 251.711C125.221 250.477 124.838 248.359 124.697 245.359C124.572 240.672 124.51 236.305 124.51 232.258C122.916 232.195 121.939 232.117 121.58 232.023C121.502 231.898 121.463 231.438 121.463 230.641C121.463 229.844 121.502 229.406 121.58 229.328L124.557 229.047C124.557 228.719 124.603 227.148 124.697 224.336C125.478 223.539 126.619 222.93 128.119 222.508C129.635 222.07 130.978 221.852 132.15 221.852C131.932 223.836 131.752 226.234 131.611 229.047C132.127 229.062 133.682 229.156 136.275 229.328C136.353 229.594 136.393 230.102 136.393 230.852C136.393 231.602 136.353 232.055 136.275 232.211C134.838 232.398 133.236 232.516 131.471 232.562C131.408 234.422 131.377 236.773 131.377 239.617C131.377 242.445 131.439 245.117 131.564 247.633C131.611 248.602 132.096 249.086 133.018 249.086C133.955 249.086 134.877 248.82 135.783 248.289ZM167.319 240.25C167.319 242.297 166.952 244.219 166.217 246.016C165.483 247.812 164.444 249.281 163.1 250.422C160.397 252.719 156.827 253.867 152.389 253.867C150.17 253.867 148.123 253.344 146.248 252.297C144.373 251.25 142.881 249.789 141.772 247.914C140.663 246.023 140.108 243.773 140.108 241.164C140.108 238.539 140.78 236.18 142.123 234.086C144.764 229.961 149.194 227.898 155.413 227.898C158.538 227.898 161.28 228.969 163.639 231.109C166.092 233.344 167.319 236.391 167.319 240.25ZM147.022 240.93C147.022 243.602 147.795 245.938 149.342 247.938C150.889 249.938 152.702 250.938 154.78 250.938C158.623 250.938 160.545 247.805 160.545 241.539C160.545 238.43 159.834 235.906 158.413 233.969C156.991 232.031 155.178 231.062 152.975 231.062C151.866 231.062 150.905 231.344 150.092 231.906C149.28 232.469 148.663 233.227 148.241 234.18C147.428 236.008 147.022 238.258 147.022 240.93ZM188.331 237.273C188.331 234.602 187.722 233.266 186.503 233.266C185.612 233.266 184.761 233.523 183.948 234.039C183.136 234.539 182.261 235.242 181.323 236.148C181.323 237.711 181.276 243.344 181.182 253.047C179.448 253.344 178.026 253.492 176.917 253.492C175.823 253.492 174.878 253.344 174.081 253.047C174.268 250.453 174.362 246.008 174.362 239.711V234.227C174.362 233.039 173.948 232.336 173.12 232.117C172.557 231.945 171.8 231.82 170.847 231.742C170.737 231.273 170.682 230.922 170.682 230.688C170.682 230.438 170.69 230.242 170.706 230.102C172.956 228.836 175.737 228.203 179.05 228.203C179.597 228.203 180.003 228.211 180.268 228.227C180.722 229.008 180.987 229.82 181.065 230.664C181.159 231.508 181.229 232.312 181.276 233.078C183.37 230.531 185.136 228.984 186.573 228.438C187.261 228.172 187.987 228.039 188.753 228.039C190.315 228.039 191.565 228.477 192.503 229.352C193.456 230.211 193.932 231.477 193.932 233.148C193.932 234.43 193.464 235.5 192.526 236.359C191.604 237.203 190.487 237.625 189.175 237.625C188.893 237.625 188.612 237.602 188.331 237.555V237.273ZM199.804 259.633C199.976 260.273 200.273 260.844 200.695 261.344C201.132 261.859 201.663 262.117 202.288 262.117C203.304 262.117 204.249 261.445 205.124 260.102C205.999 258.773 206.749 256.898 207.374 254.477C207.062 253.586 206.187 251.578 204.749 248.453C203.327 245.328 201.648 242 199.71 238.469C197.538 234.531 195.945 232.391 194.929 232.047C194.695 231.969 194.437 231.922 194.156 231.906C193.89 231.891 193.656 231.875 193.452 231.859C193.234 231.844 193.093 231.836 193.031 231.836C192.921 231.07 192.867 230.641 192.867 230.547C192.867 230.438 192.874 230.32 192.89 230.195C195.406 228.789 197.749 228.086 199.921 228.086C200.843 228.086 201.734 228.266 202.593 228.625C203.452 228.984 204.57 230.812 205.945 234.109C207.335 237.391 208.906 242.234 210.656 248.641C212.702 241.734 214.296 236.133 215.437 231.836C215.765 230.586 216.343 229.641 217.171 229C218.015 228.359 218.835 228.039 219.632 228.039C221.945 228.039 223.413 228.938 224.038 230.734C223.851 230.734 223.476 231.031 222.913 231.625C222.367 232.203 221.765 233 221.109 234.016C220.452 235.016 219.726 236.375 218.929 238.094C218.148 239.812 217.421 241.578 216.749 243.391C216.093 245.203 215.374 247.141 214.593 249.203C213.812 251.25 213.054 253.203 212.32 255.062C211.601 256.938 210.796 258.742 209.906 260.477C209.015 262.211 208.124 263.703 207.234 264.953C206.343 266.219 205.343 267.227 204.234 267.977C203.124 268.742 202.046 269.125 200.999 269.125C199.968 269.125 199.109 268.977 198.421 268.68C197.749 268.398 197.226 268.016 196.851 267.531C196.132 266.547 195.773 265.477 195.773 264.32C195.773 263.18 196.156 262.18 196.921 261.32C197.702 260.461 198.663 259.898 199.804 259.633Z" fill="#020179"/>
<defs>
<linearGradient id="paint0_linear_1293_5825" x1="41" y1="29.4477" x2="180.942" y2="29.4477" gradientUnits="userSpaceOnUse">
<stop offset="0.00617213" stop-color="#3B3A85"/>
<stop offset="0.46371" stop-color="#5F5DD6"/>
<stop offset="0.847451" stop-color="#975AE4"/>
</linearGradient>
</defs>
</svg>
