<svg width="65" height="64" viewBox="0 0 65 64" fill="none" xmlns="http://www.w3.org/2000/svg">
<path d="M43.9799 9.33333C45.3602 10.163 46.5023 11.3358 47.2948 12.7377C48.0874 14.1397 48.5035 15.7229 48.5026 17.3333C48.5035 18.9438 48.0874 20.527 47.2948 21.9289C46.5023 23.3309 45.3602 24.5037 43.9799 25.3333M59.1693 56V54.4C59.1693 48.4267 59.1693 45.44 58.0066 43.1573C56.984 41.1504 55.3522 39.5186 53.3453 38.496M25.8359 26.6667C27.0616 26.6667 28.2753 26.4253 29.4076 25.9562C30.54 25.4872 31.5689 24.7997 32.4356 23.933C33.3023 23.0663 33.9898 22.0374 34.4588 20.905C34.9279 19.7727 35.1693 18.559 35.1693 17.3333C35.1693 16.1077 34.9279 14.894 34.4588 13.7616C33.9898 12.6292 33.3023 11.6004 32.4356 10.7337C31.5689 9.86699 30.54 9.1795 29.4076 8.71046C28.2753 8.24141 27.0616 8 25.8359 8C23.3606 8 20.9866 8.98333 19.2363 10.7337C17.4859 12.484 16.5026 14.858 16.5026 17.3333C16.5026 19.8087 17.4859 22.1827 19.2363 23.933C20.9866 25.6833 23.3606 26.6667 25.8359 26.6667ZM5.83594 54.4V56H45.8359V54.4C45.8359 48.4267 45.8359 45.44 44.6733 43.1573C43.6506 41.1504 42.0189 39.5186 40.0119 38.496C37.7293 37.3333 34.7426 37.3333 28.7693 37.3333H22.9026C16.9293 37.3333 13.9426 37.3333 11.6599 38.496C9.65296 39.5186 8.02124 41.1504 6.9986 43.1573C5.83594 45.44 5.83594 48.4267 5.83594 54.4Z" stroke="#605ED8" stroke-width="4" stroke-linecap="round" stroke-linejoin="round"/>
</svg>
