<svg width="18" height="17" viewBox="0 0 18 17" fill="none" xmlns="http://www.w3.org/2000/svg">
<rect x="1" y="3.2002" width="16" height="12.8" rx="3" stroke="#808080"/>
<path d="M14.6 3.6V3.6C14.6 1.74153 12.8942 0.351185 11.074 0.72595L3.39504 2.3069C2.00061 2.59399 1 3.8216 1 5.24527L1 8.8" stroke="#808080"/>
<path d="M4.19922 12.4H8.99922" stroke="#808080" stroke-linecap="round" stroke-linejoin="round"/>
<path d="M11.3984 9.6001C11.3984 8.49553 12.2939 7.6001 13.3984 7.6001H14.9984C16.103 7.6001 16.9984 8.49553 16.9984 9.6001V9.6001C16.9984 10.7047 16.103 11.6001 14.9984 11.6001H13.3984C12.2939 11.6001 11.3984 10.7047 11.3984 9.6001V9.6001Z" stroke="#808080"/>
<path d="M13.3984 9.6001H13.5584" stroke="#808080" stroke-linecap="round" stroke-linejoin="round"/>
</svg>
