<?xml version="1.0" encoding="UTF-8"?>
<svg xmlns="http://www.w3.org/2000/svg" xmlns:xlink="http://www.w3.org/1999/xlink" width="220px" height="240px" viewBox="0 0 220 240" version="1.1">
<defs>
<linearGradient id="linear0" gradientUnits="userSpaceOnUse" x1="-0.00777243" y1="94.1884" x2="275.879" y2="94.1884" gradientTransform="matrix(0.753425,0,0,0.752351,0,0)">
<stop offset="0" style="stop-color:rgb(25.098039%,26.666667%,49.411765%);stop-opacity:1;"/>
<stop offset="0.9964" style="stop-color:rgb(23.529412%,23.137255%,41.960784%);stop-opacity:1;"/>
</linearGradient>
<linearGradient id="linear1" gradientUnits="userSpaceOnUse" x1="200.79" y1="63.6944" x2="72.0254" y2="194.642" gradientTransform="matrix(0.753425,0,0,0.752351,0,0)">
<stop offset="0" style="stop-color:rgb(66.666667%,50.196078%,97.647059%);stop-opacity:1;"/>
<stop offset="0.9964" style="stop-color:rgb(38.039216%,39.607843%,84.313725%);stop-opacity:1;"/>
</linearGradient>
<linearGradient id="linear2" gradientUnits="userSpaceOnUse" x1="20.4102" y1="225.613" x2="196.149" y2="225.613" gradientTransform="matrix(0.753425,0,0,0.752351,0,0)">
<stop offset="0" style="stop-color:rgb(26.666667%,29.411765%,54.901961%);stop-opacity:1;"/>
<stop offset="0.9964" style="stop-color:rgb(14.901961%,14.901961%,30.980392%);stop-opacity:1;"/>
</linearGradient>
<linearGradient id="linear3" gradientUnits="userSpaceOnUse" x1="20.4107" y1="297.838" x2="285.154" y2="297.838" gradientTransform="matrix(0.753425,0,0,0.752351,0,0)">
<stop offset="0" style="stop-color:rgb(26.666667%,29.411765%,54.901961%);stop-opacity:1;"/>
<stop offset="0.9964" style="stop-color:rgb(14.901961%,14.901961%,30.980392%);stop-opacity:1;"/>
</linearGradient>
<linearGradient id="linear4" gradientUnits="userSpaceOnUse" x1="69.3302" y1="179.931" x2="63.2608" y2="185.389" gradientTransform="matrix(0.753425,0,0,0.752351,0,0)">
<stop offset="0" style="stop-color:rgb(0.392157%,51.764706%,100%);stop-opacity:1;"/>
<stop offset="1" style="stop-color:rgb(1.960784%,23.921569%,55.686275%);stop-opacity:1;"/>
</linearGradient>
<linearGradient id="linear5" gradientUnits="userSpaceOnUse" x1="62.6577" y1="200.573" x2="45.1559" y2="167.647" gradientTransform="matrix(0.753425,0,0,0.752351,0,0)">
<stop offset="0" style="stop-color:rgb(0%,52.156863%,100%);stop-opacity:1;"/>
<stop offset="1" style="stop-color:rgb(3.529412%,0%,17.647059%);stop-opacity:1;"/>
</linearGradient>
<linearGradient id="linear6" gradientUnits="userSpaceOnUse" x1="50.835" y1="194.005" x2="66.0446" y2="194.005" gradientTransform="matrix(0.753425,0,0,0.752351,0,0)">
<stop offset="0" style="stop-color:rgb(19.215686%,9.803922%,26.666667%);stop-opacity:1;"/>
<stop offset="1" style="stop-color:rgb(53.72549%,22.352941%,46.27451%);stop-opacity:1;"/>
</linearGradient>
<linearGradient id="linear7" gradientUnits="userSpaceOnUse" x1="63.2835" y1="185.617" x2="56.3602" y2="197.59" gradientTransform="matrix(0.753425,0,0,0.752351,0,0)">
<stop offset="0.0036" style="stop-color:rgb(89.019608%,55.294118%,86.666667%);stop-opacity:1;"/>
<stop offset="1" style="stop-color:rgb(58.431373%,44.313725%,96.470588%);stop-opacity:1;"/>
</linearGradient>
<linearGradient id="linear8" gradientUnits="userSpaceOnUse" x1="57.7559" y1="195.377" x2="59.4638" y2="195.377" gradientTransform="matrix(0.753425,0,0,0.752351,0,0)">
<stop offset="0" style="stop-color:rgb(19.215686%,9.803922%,26.666667%);stop-opacity:1;"/>
<stop offset="1" style="stop-color:rgb(53.72549%,22.352941%,46.27451%);stop-opacity:1;"/>
</linearGradient>
<linearGradient id="linear9" gradientUnits="userSpaceOnUse" x1="61.4722" y1="184.572" x2="54.5489" y2="196.545" gradientTransform="matrix(0.753425,0,0,0.752351,0,0)">
<stop offset="0.0036" style="stop-color:rgb(89.019608%,55.294118%,86.666667%);stop-opacity:1;"/>
<stop offset="1" style="stop-color:rgb(58.431373%,44.313725%,96.470588%);stop-opacity:1;"/>
</linearGradient>
<linearGradient id="linear10" gradientUnits="userSpaceOnUse" x1="252.726" y1="200.728" x2="204.094" y2="200.728" gradientTransform="matrix(0.753425,0,0,0.752351,0,0)">
<stop offset="0" style="stop-color:rgb(26.666667%,29.411765%,54.901961%);stop-opacity:1;"/>
<stop offset="0.9964" style="stop-color:rgb(24.313725%,25.490196%,46.666667%);stop-opacity:1;"/>
</linearGradient>
<linearGradient id="linear11" gradientUnits="userSpaceOnUse" x1="240.192" y1="290.564" x2="222.041" y2="290.564" gradientTransform="matrix(0.753425,0,0,0.752351,0,0)">
<stop offset="0" style="stop-color:rgb(66.666667%,50.196078%,97.647059%);stop-opacity:1;"/>
<stop offset="0.9964" style="stop-color:rgb(38.039216%,39.607843%,84.313725%);stop-opacity:1;"/>
</linearGradient>
<linearGradient id="linear12" gradientUnits="userSpaceOnUse" x1="219.535" y1="256.566" x2="226.762" y2="298.901" gradientTransform="matrix(0.753425,0,0,0.752351,0,0)">
<stop offset="0" style="stop-color:rgb(19.215686%,9.803922%,26.666667%);stop-opacity:1;"/>
<stop offset="1" style="stop-color:rgb(62.745098%,22.352941%,46.27451%);stop-opacity:1;"/>
</linearGradient>
<filter id="alpha" filterUnits="objectBoundingBox" x="0%" y="0%" width="100%" height="100%">
  <feColorMatrix type="matrix" in="SourceGraphic" values="0 0 0 0 1 0 0 0 0 1 0 0 0 0 1 0 0 0 1 0"/>
</filter>
<mask id="mask0">
  <g filter="url(#alpha)">
<rect x="0" y="0" width="220" height="240" style="fill:rgb(0%,0%,0%);fill-opacity:0.301961;stroke:none;"/>
  </g>
</mask>
<linearGradient id="linear13" gradientUnits="userSpaceOnUse" x1="252.725" y1="200.732" x2="204.094" y2="200.732" gradientTransform="matrix(0.753425,0,0,0.752351,0,0)">
<stop offset="0" style="stop-color:rgb(26.666667%,29.411765%,54.901961%);stop-opacity:1;"/>
<stop offset="0.9964" style="stop-color:rgb(24.313725%,25.490196%,46.666667%);stop-opacity:1;"/>
</linearGradient>
<clipPath id="clip1">
  <rect x="0" y="0" width="220" height="240"/>
</clipPath>
<g id="surface5" clipPath="url(#clip1)">
<path style=" stroke:none;fillRule:nonzero;fill:url(#linear13);" d="M 155.902344 142.523438 C 151.847656 134.199219 153.933594 121.527344 159.125 118.824219 C 160.488281 118.113281 162.113281 118.074219 163.886719 118.546875 C 162.953125 121.429688 163.136719 123.511719 163.597656 124.984375 C 165.65625 131.5625 174.546875 130.816406 177.324219 138.304688 C 179.078125 143.039062 176.289062 145.386719 178.78125 149.179688 C 181.363281 153.113281 185.585938 152.453125 186.890625 156.285156 C 187.863281 159.136719 185.945312 160.761719 186.683594 163.164062 C 186.886719 163.835938 187.292969 164.507812 187.972656 165.144531 C 183.40625 173.914062 172.773438 181.035156 159.230469 183.808594 C 158.746094 181.957031 158.261719 180.109375 157.773438 178.257812 C 159.660156 176.164062 162.476562 173.140625 166.082031 169.675781 C 171.613281 164.351562 172.75 163.996094 173.015625 162.316406 C 173.882812 156.808594 160.621094 152.203125 155.902344 142.523438 Z M 155.902344 142.523438 "/>
</g>
<linearGradient id="linear14" gradientUnits="userSpaceOnUse" x1="225.772" y1="223.055" x2="184.19" y2="223.055" gradientTransform="matrix(0.753425,0,0,0.752351,0,0)">
<stop offset="0" style="stop-color:rgb(26.666667%,29.411765%,54.901961%);stop-opacity:1;"/>
<stop offset="0.9964" style="stop-color:rgb(24.313725%,25.490196%,46.666667%);stop-opacity:1;"/>
</linearGradient>
<linearGradient id="linear15" gradientUnits="userSpaceOnUse" x1="198.962" y1="73.5635" x2="233.085" y2="187.248" gradientTransform="matrix(0.753425,0,0,0.752351,0,0)">
<stop offset="0" style="stop-color:rgb(100%,76.862745%,26.666667%);stop-opacity:1;"/>
<stop offset="0.9964" style="stop-color:rgb(95.294118%,43.529412%,33.72549%);stop-opacity:1;"/>
</linearGradient>
<linearGradient id="linear16" gradientUnits="userSpaceOnUse" x1="247.377" y1="129.806" x2="241.458" y2="147.778" gradientTransform="matrix(0.753425,0,0,0.752351,0,0)">
<stop offset="0" style="stop-color:rgb(100%,76.862745%,26.666667%);stop-opacity:1;"/>
<stop offset="0.9964" style="stop-color:rgb(95.294118%,43.529412%,33.72549%);stop-opacity:1;"/>
</linearGradient>
<mask id="mask1">
  <g filter="url(#alpha)">
<rect x="0" y="0" width="220" height="240" style="fill:rgb(0%,0%,0%);fill-opacity:0.301961;stroke:none;"/>
  </g>
</mask>
<linearGradient id="linear17" gradientUnits="userSpaceOnUse" x1="181.713" y1="78.7405" x2="215.837" y2="192.425" gradientTransform="matrix(0.753425,0,0,0.752351,0,0)">
<stop offset="0" style="stop-color:rgb(100%,76.862745%,26.666667%);stop-opacity:1;"/>
<stop offset="0.9964" style="stop-color:rgb(95.294118%,43.529412%,33.72549%);stop-opacity:1;"/>
</linearGradient>
<clipPath id="clip2">
  <rect x="0" y="0" width="220" height="240"/>
</clipPath>
<g id="surface8" clipPath="url(#clip2)">
<path style=" stroke:none;fillRule:nonzero;fill:url(#linear17);" d="M 138.84375 77.039062 C 140.011719 80.421875 136.515625 83.355469 138.015625 87.027344 C 140.160156 92.292969 148.691406 89.589844 151.738281 94.796875 C 155.355469 100.96875 147.078125 111.089844 150.492188 114.554688 C 152.046875 116.132812 153.84375 114.109375 158.394531 115.21875 C 164.875 116.796875 166.820312 122.261719 169.832031 121.433594 C 170.78125 121.171875 171.929688 120.253906 172.894531 117.429688 C 173.316406 118.996094 173.515625 120.484375 173.160156 122.101562 C 172.042969 127.144531 166.34375 129.589844 160.480469 132.109375 C 156.5625 133.792969 144.441406 139 137.390625 133.144531 C 134.421875 130.683594 134.097656 127.707031 131.984375 116.773438 C 126.605469 88.992188 124.523438 86.605469 126.785156 80.59375 C 128.015625 77.3125 129.90625 74.644531 131.96875 72.507812 C 136.410156 73.554688 138.234375 75.269531 138.84375 77.039062 Z M 138.84375 77.039062 "/>
</g>
<linearGradient id="linear18" gradientUnits="userSpaceOnUse" x1="162.35" y1="84.5531" x2="196.473" y2="198.237" gradientTransform="matrix(0.753425,0,0,0.752351,0,0)">
<stop offset="0" style="stop-color:rgb(100%,76.862745%,26.666667%);stop-opacity:1;"/>
<stop offset="0.9964" style="stop-color:rgb(95.294118%,43.529412%,33.72549%);stop-opacity:1;"/>
</linearGradient>
<linearGradient id="linear19" gradientUnits="userSpaceOnUse" x1="220.486" y1="119.198" x2="200.347" y2="153.169" gradientTransform="matrix(0.753425,0,0,0.752351,0,0)">
<stop offset="0.494" style="stop-color:rgb(92.156863%,93.72549%,94.901961%);stop-opacity:1;"/>
<stop offset="1" style="stop-color:rgb(100%,100%,100%);stop-opacity:1;"/>
</linearGradient>
<linearGradient id="linear20" gradientUnits="userSpaceOnUse" x1="191.527" y1="156.538" x2="214.204" y2="133.754" gradientTransform="matrix(0.753425,0,0,0.752351,0,0)">
<stop offset="0.494" style="stop-color:rgb(92.156863%,93.72549%,94.901961%);stop-opacity:1;"/>
<stop offset="1" style="stop-color:rgb(100%,100%,100%);stop-opacity:1;"/>
</linearGradient>
<linearGradient id="linear21" gradientUnits="userSpaceOnUse" x1="208.205" y1="63.1096" x2="212.192" y2="94.9123" gradientTransform="matrix(0.753425,0,0,0.752351,0,0)">
<stop offset="0" style="stop-color:rgb(19.215686%,9.803922%,26.666667%);stop-opacity:1;"/>
<stop offset="1" style="stop-color:rgb(62.745098%,22.352941%,46.27451%);stop-opacity:1;"/>
</linearGradient>
<linearGradient id="linear22" gradientUnits="userSpaceOnUse" x1="240.713" y1="126.715" x2="232.299" y2="126.715" gradientTransform="matrix(0.753425,0,0,0.752351,0,0)">
<stop offset="0" style="stop-color:rgb(19.215686%,9.803922%,26.666667%);stop-opacity:1;"/>
<stop offset="1" style="stop-color:rgb(62.745098%,22.352941%,46.27451%);stop-opacity:1;"/>
</linearGradient>
<linearGradient id="linear23" gradientUnits="userSpaceOnUse" x1="204.168" y1="88.7897" x2="222.213" y2="74.6136" gradientTransform="matrix(0.753425,0,0,0.752351,0,0)">
<stop offset="0" style="stop-color:rgb(19.215686%,9.803922%,26.666667%);stop-opacity:1;"/>
<stop offset="1" style="stop-color:rgb(41.960784%,22.352941%,46.27451%);stop-opacity:1;"/>
</linearGradient>
<linearGradient id="linear24" gradientUnits="userSpaceOnUse" x1="211.366" y1="67.4166" x2="215.077" y2="76.0972" gradientTransform="matrix(0.753425,0,0,0.752351,0,0)">
<stop offset="0" style="stop-color:rgb(19.215686%,9.803922%,26.666667%);stop-opacity:1;"/>
<stop offset="1" style="stop-color:rgb(62.745098%,22.352941%,46.27451%);stop-opacity:1;"/>
</linearGradient>
<linearGradient id="linear25" gradientUnits="userSpaceOnUse" x1="131.039" y1="187.946" x2="146.583" y2="187.946" gradientTransform="matrix(0.753425,0,0,0.752351,0,0)">
<stop offset="0" style="stop-color:rgb(41.176471%,40%,92.156863%);stop-opacity:1;"/>
<stop offset="0.204" style="stop-color:rgb(37.254902%,36.470588%,83.921569%);stop-opacity:1;"/>
<stop offset="1" style="stop-color:rgb(23.137255%,22.745098%,52.156863%);stop-opacity:1;"/>
</linearGradient>
</defs>
<g id="surface1">
<path style=" stroke:none;fillRule:nonzero;fill:rgb(25.882353%,27.843137%,30.196078%);fill-opacity:1;" d="M 213.226562 40.367188 L 208.550781 40.375 C 208.230469 37.078125 207.488281 33.917969 206.382812 30.945312 L 210.335938 28.5 C 211.414062 27.832031 211.785156 26.324219 211.160156 25.128906 L 209.5 21.941406 C 208.875 20.742188 207.484375 20.300781 206.394531 20.960938 L 202.492188 23.324219 C 200.675781 20.609375 198.507812 18.160156 196.050781 16.050781 L 198.296875 11.9375 C 198.941406 10.757812 198.558594 9.203125 197.441406 8.464844 L 194.453125 6.484375 C 193.324219 5.738281 191.875 6.089844 191.21875 7.277344 L 188.972656 11.351562 C 186.082031 9.914062 182.957031 8.878906 179.664062 8.320312 L 179.664062 3.492188 C 179.664062 2.066406 178.566406 0.859375 177.207031 0.792969 L 173.570312 0.613281 C 172.195312 0.546875 171.074219 1.660156 171.074219 3.101562 L 171.074219 7.984375 C 167.679688 8.285156 164.40625 9.101562 161.328125 10.363281 L 158.898438 5.949219 C 158.1875 4.652344 156.601562 4.148438 155.359375 4.828125 L 152.03125 6.648438 C 150.773438 7.335938 150.34375 8.957031 151.070312 10.261719 L 153.585938 14.78125 C 150.832031 16.855469 148.371094 19.34375 146.289062 22.164062 L 141.738281 19.417969 C 140.449219 18.636719 138.792969 19.042969 138.042969 20.324219 L 136.042969 23.742188 C 135.289062 25.03125 135.734375 26.707031 137.042969 27.476562 L 141.75 30.257812 C 140.445312 33.464844 139.5625 36.90625 139.179688 40.5 L 133.53125 40.511719 C 132.011719 40.515625 130.773438 41.746094 130.773438 43.257812 L 130.773438 47.285156 C 130.773438 48.796875 132.011719 50.007812 133.53125 49.988281 L 139.328125 49.910156 C 139.816406 53.425781 140.785156 56.769531 142.15625 59.871094 L 137.042969 62.972656 C 135.734375 63.761719 135.289062 65.441406 136.042969 66.722656 L 138.042969 70.109375 C 138.792969 71.378906 140.449219 71.757812 141.738281 70.960938 L 146.914062 67.757812 C 148.980469 70.367188 151.386719 72.660156 154.054688 74.570312 L 151.070312 79.972656 C 150.34375 81.289062 150.773438 82.902344 152.03125 83.570312 L 155.359375 85.34375 C 156.601562 86.003906 158.1875 85.476562 158.898438 84.167969 L 161.859375 78.742188 C 164.78125 79.84375 167.875 80.542969 171.074219 80.78125 L 171.074219 86.832031 C 171.074219 88.273438 172.195312 89.367188 173.570312 89.28125 L 177.207031 89.046875 C 178.566406 88.960938 179.664062 87.734375 179.664062 86.3125 L 179.664062 80.328125 C 182.769531 79.761719 185.722656 78.769531 188.476562 77.421875 L 191.21875 82.351562 C 191.875 83.527344 193.324219 83.859375 194.453125 83.09375 L 197.441406 81.070312 C 198.558594 80.316406 198.941406 78.753906 198.296875 77.585938 L 195.632812 72.738281 C 198.015625 70.722656 200.140625 68.390625 201.949219 65.8125 L 206.394531 68.4375 C 207.484375 69.082031 208.875 68.621094 209.5 67.410156 L 211.160156 64.199219 C 211.785156 62.992188 211.414062 61.492188 210.335938 60.839844 L 206.035156 58.246094 C 207.199219 55.328125 208.015625 52.226562 208.425781 48.996094 L 213.226562 48.929688 C 214.460938 48.914062 215.460938 47.796875 215.460938 46.4375 L 215.460938 42.824219 C 215.460938 41.464844 214.460938 40.363281 213.226562 40.367188 Z M 175.394531 70.128906 C 161.5625 70.675781 149.992188 59.222656 149.992188 44.527344 C 149.992188 29.832031 161.5625 18.21875 175.394531 18.578125 C 188.75 18.925781 199.25 30.386719 199.25 44.191406 C 199.25 57.996094 188.75 69.601562 175.394531 70.128906 Z M 175.394531 70.128906 "/>
<path style=" stroke:none;fillRule:nonzero;fill:rgb(25.882353%,27.843137%,30.196078%);fill-opacity:1;" d="M 159.917969 4.640625 L 156.589844 4.515625 L 155.441406 7.703125 Z M 159.917969 4.640625 "/>
<path style=" stroke:none;fillRule:nonzero;fill:rgb(25.882353%,27.843137%,30.196078%);fill-opacity:1;" d="M 192.921875 6.109375 L 196.757812 6.148438 L 196.757812 9.171875 Z M 192.921875 6.109375 "/>
<path style=" stroke:none;fillRule:nonzero;fill:rgb(25.882353%,27.843137%,30.196078%);fill-opacity:1;" d="M 207.550781 20.683594 L 211.375 20.847656 L 210.417969 23.136719 Z M 207.550781 20.683594 "/>
<path style=" stroke:none;fillRule:nonzero;fill:rgb(25.882353%,27.843137%,30.196078%);fill-opacity:1;" d="M 213.558594 40.410156 L 217.421875 40.734375 L 216.160156 42.734375 Z M 213.558594 40.410156 "/>
<path style=" stroke:none;fillRule:nonzero;fill:rgb(25.882353%,27.843137%,30.196078%);fill-opacity:1;" d="M 207.128906 68.707031 L 210.878906 69.277344 L 211.339844 66.011719 Z M 207.128906 68.707031 "/>
<path style=" stroke:none;fillRule:nonzero;fill:rgb(25.882353%,27.843137%,30.196078%);fill-opacity:1;" d="M 192.78125 83.445312 L 196.144531 84.097656 L 196.414062 81.445312 Z M 192.78125 83.445312 "/>
<path style=" stroke:none;fillRule:nonzero;fill:rgb(25.882353%,27.843137%,30.196078%);fill-opacity:1;" d="M 175.953125 89.816406 L 172.929688 89.246094 L 175.53125 85.121094 Z M 175.953125 89.816406 "/>
<path style=" stroke:none;fillRule:nonzero;fill:rgb(25.882353%,27.843137%,30.196078%);fill-opacity:1;" d="M 159.574219 86.34375 L 156.054688 85.570312 L 158.769531 82.058594 Z M 159.574219 86.34375 "/>
<path style=" stroke:none;fillRule:nonzero;fill:rgb(25.882353%,27.843137%,30.196078%);fill-opacity:1;" d="M 139.796875 19.054688 L 143.46875 19.175781 L 142.015625 22.035156 Z M 139.796875 19.054688 "/>
<path style=" stroke:none;fillRule:nonzero;fill:rgb(25.882353%,27.843137%,30.196078%);fill-opacity:1;" d="M 132.492188 49.800781 L 135.859375 50.332031 L 135.589844 47.390625 Z M 132.492188 49.800781 "/>
<path style=" stroke:none;fillRule:nonzero;fill:rgb(25.882353%,27.843137%,30.196078%);fill-opacity:1;" d="M 139.722656 71.320312 L 143.011719 71.890625 L 143.277344 69.5625 Z M 139.722656 71.320312 "/>
<path style=" stroke:none;fillRule:nonzero;fill:rgb(42.745098%,43.137255%,44.313725%);fill-opacity:1;" d="M 217.003906 40.691406 L 212.292969 40.699219 C 211.96875 37.375 211.21875 34.1875 210.105469 31.191406 L 214.089844 28.726562 C 215.179688 28.054688 215.550781 26.535156 214.925781 25.328125 L 213.25 22.117188 C 212.617188 20.90625 211.214844 20.460938 210.117188 21.125 L 206.179688 23.507812 C 204.351562 20.769531 202.164062 18.300781 199.691406 16.179688 L 201.953125 12.03125 C 202.601562 10.839844 202.21875 9.273438 201.089844 8.527344 L 198.078125 6.53125 C 196.941406 5.777344 195.480469 6.136719 194.816406 7.332031 L 192.550781 11.4375 C 189.636719 9.988281 186.488281 8.945312 183.164062 8.382812 L 183.164062 3.515625 C 183.164062 2.078125 182.058594 0.859375 180.6875 0.792969 L 177.019531 0.613281 C 175.632812 0.546875 174.503906 1.667969 174.503906 3.121094 L 174.503906 8.042969 C 171.082031 8.347656 167.78125 9.171875 164.675781 10.441406 L 162.230469 5.992188 C 161.511719 4.683594 159.914062 4.175781 158.660156 4.863281 L 155.304688 6.699219 C 154.035156 7.390625 153.601562 9.023438 154.335938 10.34375 L 156.871094 14.894531 C 154.09375 16.988281 151.613281 19.496094 149.511719 22.339844 L 144.925781 19.570312 C 143.625 18.785156 141.957031 19.191406 141.199219 20.484375 L 139.183594 23.929688 C 138.421875 25.230469 138.875 26.917969 140.1875 27.695312 L 144.9375 30.5 C 143.621094 33.734375 142.730469 37.199219 142.34375 40.828125 L 136.648438 40.835938 C 135.117188 40.839844 133.871094 42.078125 133.871094 43.605469 L 133.871094 47.664062 C 133.871094 49.191406 135.117188 50.410156 136.648438 50.390625 L 142.496094 50.3125 C 142.988281 53.855469 143.964844 57.226562 145.347656 60.355469 L 140.191406 63.480469 C 138.875 64.277344 138.421875 65.96875 139.183594 67.257812 L 141.199219 70.675781 C 141.957031 71.957031 143.625 72.339844 144.925781 71.535156 L 150.144531 68.304688 C 152.226562 70.9375 154.652344 73.246094 157.34375 75.171875 L 154.335938 80.617188 C 153.601562 81.945312 154.039062 83.574219 155.304688 84.25 L 158.660156 86.03125 C 159.914062 86.699219 161.511719 86.167969 162.230469 84.851562 L 165.214844 79.378906 C 168.160156 80.488281 171.277344 81.195312 174.503906 81.4375 L 174.503906 87.535156 C 174.503906 88.984375 175.632812 90.089844 177.019531 90.003906 L 180.6875 89.769531 C 182.058594 89.679688 183.164062 88.445312 183.164062 87.007812 L 183.164062 80.980469 C 186.296875 80.40625 189.277344 79.40625 192.050781 78.046875 L 194.816406 83.015625 C 195.480469 84.203125 196.941406 84.539062 198.078125 83.765625 L 201.089844 81.726562 C 202.21875 80.964844 202.601562 79.390625 201.953125 78.210938 L 199.265625 73.324219 C 201.671875 71.292969 203.8125 68.945312 205.632812 66.34375 L 210.117188 68.992188 C 211.214844 69.640625 212.617188 69.175781 213.25 67.953125 L 214.925781 64.714844 C 215.550781 63.5 215.179688 61.988281 214.089844 61.332031 L 209.757812 58.714844 C 210.929688 55.773438 211.75 52.648438 212.164062 49.386719 L 217.003906 49.324219 C 218.253906 49.308594 219.261719 48.183594 219.261719 46.8125 L 219.261719 43.167969 C 219.261719 41.796875 218.253906 40.6875 217.003906 40.691406 Z M 178.859375 70.695312 C 164.917969 71.246094 153.25 59.699219 153.25 44.886719 C 153.25 30.070312 164.917969 18.363281 178.859375 18.726562 C 192.328125 19.074219 202.914062 30.632812 202.914062 44.546875 C 202.914062 58.460938 192.328125 70.164062 178.859375 70.695312 Z M 178.859375 70.695312 "/>
<path style=" stroke:none;fillRule:nonzero;fill:url(#linear0);" d="M 185.511719 50.921875 C 174.515625 46.023438 162.492188 47.855469 152.804688 54.683594 C 149.269531 35.660156 138.019531 19.265625 121.273438 11.800781 C 93.832031 -0.425781 62.015625 15.960938 50.210938 48.40625 C 47.167969 56.765625 45.757812 65.378906 45.800781 73.765625 C 44.382812 72.765625 42.871094 71.898438 41.265625 71.183594 C 26.273438 64.503906 8.890625 73.457031 2.441406 91.183594 C -4.011719 108.910156 2.691406 129.34375 17.90625 135.375 C 26.03125 138.601562 38.890625 139.121094 38.890625 139.121094 C 38.890625 139.121094 163.945312 133.695312 167.804688 133.871094 C 183.210938 134.5625 198.390625 123.859375 204.839844 106.144531 C 212.898438 83.996094 204.246094 59.273438 185.511719 50.921875 Z M 185.511719 50.921875 "/>
<path style=" stroke:none;fillRule:nonzero;fill:url(#linear1);" d="M 189.230469 51.074219 C 178.234375 46.175781 166.214844 48.007812 156.527344 54.832031 C 152.988281 35.8125 141.742188 19.414062 124.992188 11.953125 C 97.550781 -0.277344 65.738281 16.113281 53.929688 48.554688 C 50.886719 56.917969 49.476562 65.527344 49.519531 73.914062 C 48.105469 72.917969 46.589844 72.050781 44.984375 71.332031 C 29.992188 64.652344 12.609375 73.605469 6.160156 91.332031 C -0.292969 109.058594 6.632812 128.84375 21.625 135.527344 C 24.800781 136.941406 42.609375 139.269531 42.609375 139.269531 C 42.609375 139.269531 167.667969 133.84375 171.523438 134.019531 C 186.929688 134.714844 202.113281 124.011719 208.558594 106.296875 C 216.617188 84.144531 207.964844 59.421875 189.230469 51.074219 Z M 189.230469 51.074219 "/>
<path style=" stroke:none;fillRule:nonzero;fill:rgb(14.901961%,14.901961%,30.980392%);fill-opacity:1;" d="M 214.84375 222.53125 L 15.378906 220.714844 L 15.378906 226.085938 C 15.378906 227.542969 16.246094 228.78125 17.425781 229.003906 L 73.828125 239.578125 C 74.496094 239.703125 75.175781 239.734375 75.851562 239.675781 L 212.675781 227.621094 C 213.898438 227.511719 214.84375 226.269531 214.84375 224.773438 Z M 214.84375 222.53125 "/>
<path style=" stroke:none;fillRule:nonzero;fill:rgb(14.901961%,14.901961%,30.980392%);fill-opacity:1;" d="M 142.457031 213.925781 L 17.441406 223.75 C 15.203125 223.925781 13.382812 222.058594 13.382812 219.578125 L 13.382812 120.210938 C 13.382812 117.730469 15.203125 115.71875 17.441406 115.71875 L 142.457031 115.71875 C 144.300781 115.71875 145.789062 117.539062 145.789062 119.78125 L 145.789062 209.605469 C 145.789062 211.847656 144.300781 213.78125 142.457031 213.925781 Z M 142.457031 213.925781 "/>
<path style=" stroke:none;fillRule:nonzero;fill:url(#linear2);" d="M 144.449219 213.925781 L 19.433594 223.75 C 17.195312 223.925781 15.378906 222.058594 15.378906 219.578125 L 15.378906 120.210938 C 15.378906 117.730469 17.195312 115.71875 19.433594 115.71875 L 144.449219 115.71875 C 146.292969 115.71875 147.785156 117.539062 147.785156 119.78125 L 147.785156 209.605469 C 147.785156 211.847656 146.292969 213.78125 144.449219 213.925781 Z M 144.449219 213.925781 "/>
<path style=" stroke:none;fillRule:nonzero;fill:rgb(100%,100%,100%);fill-opacity:1;" d="M 140.554688 207.59375 L 24.113281 216.125 C 22.292969 216.257812 20.8125 214.726562 20.8125 212.703125 L 20.8125 125.707031 C 20.8125 123.683594 22.292969 122.035156 24.113281 122.027344 L 140.554688 121.492188 C 142.074219 121.484375 143.304688 122.972656 143.304688 124.816406 L 143.304688 204.050781 C 143.304688 205.898438 142.074219 207.480469 140.554688 207.59375 Z M 140.554688 207.59375 "/>
<path style=" stroke:none;fillRule:nonzero;fill:rgb(100%,100%,100%);fill-opacity:1;" d="M 86.359375 118.4375 C 86.359375 119.363281 85.714844 120.113281 84.921875 120.113281 C 84.125 120.117188 83.480469 119.371094 83.480469 118.445312 C 83.480469 117.519531 84.125 116.769531 84.921875 116.769531 C 85.714844 116.765625 86.359375 117.515625 86.359375 118.4375 Z M 86.359375 118.4375 "/>
<path style=" stroke:none;fillRule:nonzero;fill:url(#linear3);" d="M 149.433594 213.382812 L 15.378906 223.71875 L 73.828125 234.679688 C 74.496094 234.804688 75.175781 234.835938 75.851562 234.777344 L 214.84375 222.53125 L 151.566406 213.449219 C 150.859375 213.351562 150.144531 213.324219 149.433594 213.382812 Z M 149.433594 213.382812 "/>
<path style=" stroke:none;fillRule:nonzero;fill:rgb(14.901961%,14.901961%,30.980392%);fill-opacity:1;" d="M 34.9375 223.808594 L 146.542969 215.074219 L 181.085938 219.988281 L 70.441406 229.328125 Z M 34.9375 223.808594 "/>
<path style=" stroke:none;fillRule:nonzero;fill:rgb(84.705882%,87.058824%,90.980392%);fill-opacity:1;" d="M 71.097656 212.535156 L 23.597656 215.949219 C 22.203125 216.050781 21.023438 214.871094 21.023438 213.378906 L 21.023438 124.582031 C 21.023438 123.164062 22.097656 122.011719 23.425781 122.007812 L 71.097656 121.800781 Z M 71.097656 212.535156 "/>
<path style=" stroke:none;fillRule:nonzero;fill:rgb(100%,100%,100%);fill-opacity:1;" d="M 59.976562 165.085938 L 31.238281 166.132812 L 31.238281 162.09375 L 59.976562 161.132812 Z M 59.976562 165.085938 "/>
<path style=" stroke:none;fillRule:nonzero;fill:rgb(100%,100%,100%);fill-opacity:1;" d="M 59.976562 171.5625 L 31.238281 172.746094 L 31.238281 168.707031 L 59.976562 167.609375 Z M 59.976562 171.5625 "/>
<path style=" stroke:none;fillRule:nonzero;fill:rgb(100%,100%,100%);fill-opacity:1;" d="M 59.976562 178.039062 L 31.238281 179.359375 L 31.238281 175.320312 L 59.976562 174.085938 Z M 59.976562 178.039062 "/>
<path style=" stroke:none;fillRule:nonzero;fill:rgb(100%,100%,100%);fill-opacity:1;" d="M 59.976562 184.511719 L 31.238281 185.972656 L 31.238281 181.933594 L 59.976562 180.558594 Z M 59.976562 184.511719 "/>
<path style=" stroke:none;fillRule:nonzero;fill:url(#linear4);" d="M 43.65625 155.992188 C 43.277344 156.003906 42.90625 155.902344 42.585938 155.699219 C 41.613281 155.074219 40.167969 154.042969 38.871094 152.691406 C 37.226562 150.980469 36.277344 149.238281 36.070312 147.527344 L 36.070312 147.5 L 36.027344 140.203125 C 36.027344 138.761719 36.910156 137.589844 38.5625 136.820312 C 39.929688 136.183594 41.742188 135.871094 43.65625 135.929688 C 45.550781 135.988281 47.300781 136.40625 48.59375 137.097656 C 50.136719 137.925781 50.945312 139.085938 50.945312 140.457031 L 50.90625 147.429688 L 50.902344 147.457031 C 50.714844 149.09375 49.84375 150.789062 48.304688 152.5 C 47.070312 153.871094 45.675781 154.960938 44.71875 155.632812 C 44.402344 155.859375 44.035156 155.980469 43.65625 155.992188 Z M 43.65625 155.992188 "/>
<path style=" stroke:none;fillRule:nonzero;fill:rgb(100%,65.882353%,0%);fill-opacity:1;" d="M 44.035156 155.992188 C 43.660156 156.003906 43.292969 155.902344 42.980469 155.699219 C 42.015625 155.074219 40.59375 154.042969 39.3125 152.691406 C 37.6875 150.980469 36.753906 149.238281 36.546875 147.527344 L 36.546875 147.5 L 36.503906 140.203125 C 36.503906 138.761719 37.375 137.589844 39.007812 136.820312 C 40.355469 136.183594 42.144531 135.871094 44.035156 135.929688 C 45.902344 135.988281 47.628906 136.40625 48.90625 137.097656 C 50.425781 137.925781 51.222656 139.085938 51.222656 140.457031 L 51.1875 147.429688 L 51.183594 147.457031 C 51 149.09375 50.140625 150.789062 48.621094 152.5 C 47.402344 153.871094 46.027344 154.960938 45.082031 155.632812 C 44.769531 155.859375 44.40625 155.980469 44.035156 155.992188 Z M 44.035156 155.992188 "/>
<path style=" stroke:none;fillRule:nonzero;fill:url(#linear5);" d="M 36.957031 140.207031 L 36.996094 147.46875 C 37.445312 151.171875 41.523438 154.171875 43.300781 155.3125 C 43.808594 155.636719 44.460938 155.617188 44.964844 155.265625 C 46.703125 154.042969 50.558594 150.964844 50.972656 147.40625 L 51.007812 140.453125 C 51.007812 135.292969 36.957031 134.820312 36.957031 140.207031 Z M 36.957031 140.207031 "/>
<path style=" stroke:none;fillRule:nonzero;fill:url(#linear6);" d="M 44.132812 154.191406 C 44.097656 154.195312 44.050781 154.1875 44 154.15625 C 43.269531 153.683594 41.851562 152.691406 40.617188 151.398438 C 39.285156 150.003906 38.515625 148.644531 38.339844 147.367188 L 38.300781 140.226562 C 38.300781 139.542969 38.808594 138.957031 39.804688 138.488281 C 40.917969 137.964844 42.496094 137.6875 44.132812 137.730469 C 45.75 137.769531 47.28125 138.117188 48.34375 138.679688 C 49.28125 139.179688 49.757812 139.765625 49.757812 140.425781 L 49.722656 147.320312 C 49.558594 148.554688 48.835938 149.886719 47.570312 151.285156 C 46.378906 152.597656 44.988281 153.640625 44.261719 154.148438 C 44.210938 154.183594 44.164062 154.191406 44.132812 154.191406 Z M 44.132812 154.191406 "/>
<path style=" stroke:none;fillRule:nonzero;fill:rgb(95.686275%,96.862745%,98.039216%);fill-opacity:1;" d="M 43.96875 153.703125 C 43.230469 153.21875 41.914062 152.28125 40.769531 151.078125 C 39.515625 149.761719 38.792969 148.5 38.621094 147.332031 L 38.582031 140.234375 C 38.585938 139.742188 39.007812 139.292969 39.835938 138.902344 C 40.886719 138.40625 42.398438 138.144531 43.96875 138.179688 C 45.523438 138.21875 46.992188 138.546875 48 139.078125 C 48.78125 139.492188 49.179688 139.941406 49.179688 140.421875 L 49.144531 147.289062 C 48.984375 148.421875 48.300781 149.660156 47.105469 150.980469 C 45.996094 152.203125 44.703125 153.1875 43.96875 153.703125 Z M 43.96875 153.703125 "/>
<path style=" stroke:none;fillRule:nonzero;fill:url(#linear7);" d="M 46.605469 144.410156 L 41.632812 144.457031 C 41.25 144.460938 40.9375 144.78125 40.9375 145.167969 L 40.9375 148.570312 C 40.9375 148.957031 41.25 149.257812 41.628906 149.238281 L 46.585938 149.023438 C 46.9375 149.007812 47.226562 148.695312 47.226562 148.324219 L 47.242188 145.078125 C 47.246094 144.707031 46.960938 144.40625 46.605469 144.410156 Z M 46.605469 144.410156 "/>
<path style=" stroke:none;fillRule:nonzero;fill:url(#linear8);" d="M 44.800781 146.359375 C 44.800781 145.984375 44.5 145.6875 44.132812 145.714844 C 43.804688 145.734375 43.535156 146.015625 43.515625 146.355469 C 43.5 146.617188 43.632812 146.84375 43.835938 146.960938 C 43.921875 147.007812 43.964844 147.109375 43.949219 147.210938 L 43.804688 148.070312 C 43.785156 148.179688 43.867188 148.277344 43.972656 148.273438 L 44.339844 148.257812 C 44.445312 148.253906 44.527344 148.152344 44.507812 148.046875 L 44.367188 147.195312 C 44.351562 147.09375 44.402344 146.992188 44.488281 146.9375 C 44.675781 146.816406 44.800781 146.601562 44.800781 146.359375 Z M 44.800781 146.359375 "/>
<path style=" stroke:none;fillRule:nonzero;fill:url(#linear9);" d="M 46.535156 144.074219 C 46.382812 144.074219 46.261719 143.949219 46.265625 143.789062 L 46.265625 143.050781 C 46.269531 142.304688 45.695312 141.691406 44.976562 141.683594 L 43.351562 141.667969 C 42.609375 141.660156 41.996094 142.277344 41.996094 143.046875 L 41.996094 143.8125 C 41.996094 143.972656 41.867188 144.105469 41.707031 144.105469 C 41.546875 144.109375 41.414062 143.976562 41.414062 143.8125 L 41.417969 143.046875 C 41.417969 141.949219 42.292969 141.066406 43.351562 141.082031 L 44.976562 141.109375 C 45.996094 141.121094 46.8125 141.996094 46.808594 143.050781 L 46.804688 143.789062 C 46.804688 143.945312 46.683594 144.070312 46.535156 144.074219 Z M 46.535156 144.074219 "/>
<path style=" stroke:none;fillRule:nonzero;fill:url(#linear10);" d="M 159.125 118.824219 C 165.882812 115.300781 179.0625 128.058594 185.476562 140.277344 C 188.03125 145.148438 191.03125 150.863281 190.296875 157.660156 C 188.992188 169.710938 176.46875 180.28125 159.230469 183.808594 C 158.746094 181.957031 158.261719 180.109375 157.773438 178.257812 C 159.660156 176.164062 162.476562 173.140625 166.082031 169.671875 C 171.613281 164.351562 172.75 163.996094 173.015625 162.316406 C 173.886719 156.808594 160.621094 152.199219 155.902344 142.523438 C 151.847656 134.199219 153.933594 121.527344 159.125 118.824219 Z M 159.125 118.824219 "/>
<path style=" stroke:none;fillRule:nonzero;fill:url(#linear11);" d="M 168.003906 215.667969 C 168.003906 215.667969 166.894531 218.589844 167.445312 219.734375 C 167.996094 220.878906 170.660156 220.15625 174.410156 220.765625 C 178.164062 221.378906 180.753906 222.316406 180.960938 221.484375 C 181.171875 220.65625 173.394531 216.273438 172.769531 215.667969 C 172.148438 215.0625 168.003906 215.667969 168.003906 215.667969 Z M 168.003906 215.667969 "/>
<path style=" stroke:none;fillRule:nonzero;fill:url(#linear12);" d="M 168.992188 211.300781 L 171.617188 215.667969 C 171.617188 215.667969 170.40625 216.941406 168.351562 216.46875 L 165.464844 212.332031 Z M 168.992188 211.300781 "/>
<use xlink:href="#surface5" mask="url(#mask0)"/>
<path style=" stroke:none;fillRule:nonzero;fill:url(#linear14);" d="M 163.734375 121.433594 C 163.441406 134.046875 163.605469 147.683594 164.460938 162.199219 C 165.554688 180.738281 167.601562 197.765625 170.101562 213.0625 C 168.992188 213.441406 167.878906 213.820312 166.765625 214.195312 C 155.335938 202.308594 151.914062 191.847656 150.976562 184.324219 C 150.316406 179.007812 151.316406 178.550781 150.425781 171.894531 C 148.722656 159.222656 144.285156 154.878906 141.167969 143.015625 C 139.996094 138.558594 138.695312 131.832031 138.777344 123.0625 C 147.09375 122.519531 155.414062 121.976562 163.734375 121.433594 Z M 163.734375 121.433594 "/>
<path style=" stroke:none;fillRule:nonzero;fill:url(#linear15);" d="M 171.921875 98.84375 C 171.714844 98.894531 170.8125 99.214844 170.457031 103.234375 C 169.597656 112.921875 174.324219 116.84375 173.160156 122.101562 C 172.042969 127.144531 166.34375 129.589844 160.480469 132.109375 C 156.5625 133.792969 144.441406 139 137.390625 133.144531 C 134.421875 130.683594 134.097656 127.707031 131.984375 116.773438 C 126.605469 88.992188 124.523438 86.605469 126.785156 80.59375 C 130.667969 70.265625 141.066406 65.988281 142.796875 65.277344 C 161.246094 57.6875 183.03125 71.632812 191.640625 87.652344 C 192.777344 89.765625 199.546875 102.363281 194.789062 108.339844 C 191.910156 111.953125 185.296875 112.535156 180.933594 110.070312 C 175.101562 106.777344 173.863281 98.367188 171.921875 98.84375 Z M 171.921875 98.84375 "/>
<path style=" stroke:none;fillRule:nonzero;fill:url(#linear16);" d="M 192.085938 106.191406 C 192.144531 106.191406 192.203125 106.179688 192.257812 106.152344 C 192.46875 106.050781 192.558594 105.789062 192.464844 105.5625 C 192.304688 105.195312 188.5 96.472656 179.699219 93.027344 C 179.480469 92.941406 179.242188 93.0625 179.164062 93.292969 C 179.085938 93.523438 179.195312 93.777344 179.414062 93.863281 C 187.878906 97.171875 191.671875 105.84375 191.707031 105.933594 C 191.777344 106.097656 191.929688 106.191406 192.085938 106.191406 Z M 192.085938 106.191406 "/>
<use xlink:href="#surface8" mask="url(#mask1)"/>
<path style=" stroke:none;fillRule:nonzero;fill:url(#linear18);" d="M 150 98.265625 C 149.5 98.75 144.453125 103.492188 138.382812 101.875 C 133.09375 100.460938 129.847656 94.976562 129.28125 90.359375 C 127.929688 79.378906 141.332031 70.160156 139.679688 67.9375 C 138.695312 66.617188 133.417969 69.179688 129.902344 71.492188 C 126.257812 73.890625 116.402344 80.375 114.300781 93.101562 C 114.121094 94.179688 111.804688 109.351562 119.917969 115.617188 C 127.421875 121.414062 142.117188 118.261719 152.070312 104.558594 C 151.378906 102.460938 150.691406 100.363281 150 98.265625 Z M 150 98.265625 "/>
<path style=" stroke:none;fillRule:nonzero;fill:rgb(84.705882%,87.058824%,90.980392%);fill-opacity:1;" d="M 182.542969 88.234375 L 176.535156 108.726562 C 176.335938 109.398438 175.765625 109.863281 175.105469 109.886719 L 142.765625 111.105469 C 141.753906 111.144531 140.976562 110.15625 141.191406 109.097656 L 145.375 88.523438 C 145.523438 87.78125 146.132812 87.242188 146.84375 87.21875 L 181.011719 86.082031 C 182.082031 86.046875 182.863281 87.144531 182.542969 88.234375 Z M 182.542969 88.234375 "/>
<path style=" stroke:none;fillRule:nonzero;fill:url(#linear19);" d="M 182.253906 88.910156 L 176.421875 108.796875 C 176.230469 109.445312 175.671875 109.898438 175.035156 109.921875 L 143.648438 111.105469 C 142.664062 111.144531 141.910156 110.183594 142.121094 109.15625 L 146.175781 89.1875 C 146.324219 88.464844 146.914062 87.945312 147.605469 87.921875 L 180.765625 86.820312 C 181.804688 86.785156 182.5625 87.851562 182.253906 88.910156 Z M 182.253906 88.910156 "/>
<path style=" stroke:none;fillRule:nonzero;fill:url(#linear20);" d="M 142.121094 109.15625 L 145.992188 90.097656 C 146.648438 91.757812 147.496094 92.59375 148.308594 93.023438 C 150.644531 94.253906 152.464844 92.035156 157.5625 92.246094 C 159.515625 92.324219 163.503906 92.492188 165.988281 95.242188 C 168.320312 97.828125 167.328125 100.484375 168.792969 104.121094 C 169.535156 105.957031 170.90625 108.035156 173.550781 109.980469 L 143.648438 111.105469 C 142.664062 111.144531 141.910156 110.183594 142.121094 109.15625 Z M 142.121094 109.15625 "/>
<path style=" stroke:none;fillRule:nonzero;fill:url(#linear21);" d="M 161.816406 63.300781 C 161.472656 64.589844 162.199219 65.925781 163.417969 66.242188 C 164.894531 66.621094 166.695312 67.148438 167.472656 67.621094 C 168.898438 68.496094 163.128906 67.488281 157.820312 67.355469 C 154.503906 67.273438 152.027344 66.875 150.636719 66.589844 C 150.261719 66.511719 150.230469 65.953125 150.59375 65.828125 C 151.921875 65.367188 154.078125 64.6875 155.898438 64.445312 C 158.15625 64.140625 160.578125 58.828125 160.578125 58.828125 L 162.511719 60.703125 Z M 161.816406 63.300781 "/>
<path style=" stroke:none;fillRule:nonzero;fill:url(#linear22);" d="M 181.023438 94.765625 L 180.660156 94.125 C 180.332031 92.796875 179.136719 91.925781 177.859375 92.09375 L 175.929688 92.347656 C 175.328125 92.429688 174.917969 93.039062 175.042969 93.675781 C 175.222656 94.59375 175.683594 95.695312 176.867188 95.609375 C 178.882812 95.464844 180.167969 98.59375 180.167969 98.59375 L 180.9375 97.433594 C 181.464844 96.640625 181.5 95.59375 181.023438 94.765625 Z M 181.023438 94.765625 "/>
<path style=" stroke:none;fillRule:nonzero;fill:url(#linear23);" d="M 166.128906 60.578125 C 167.796875 60.3125 169.664062 58.816406 169.628906 57.582031 C 169.578125 55.882812 165.9375 54.949219 164.101562 54.480469 C 162.257812 54.007812 161.472656 54.179688 160.945312 54.609375 C 160.40625 55.046875 160.054688 55.832031 159.9375 56.507812 C 159.875 56.875 159.871094 57.382812 159.929688 58.394531 C 159.980469 59.289062 159.96875 59.25 159.988281 59.515625 C 160.039062 60.152344 160.203125 61.269531 160.785156 62.824219 C 161.027344 62.539062 161.347656 62.199219 161.753906 61.867188 C 161.90625 61.738281 162.523438 61.242188 163.222656 60.941406 C 164.425781 60.425781 165.117188 60.738281 166.128906 60.578125 Z M 166.128906 60.578125 "/>
<path style=" stroke:none;fillRule:nonzero;fill:url(#linear24);" d="M 159.898438 61.09375 C 159.898438 61.09375 160.003906 63.574219 162.195312 64.664062 C 164.15625 65.636719 166.757812 61.269531 166.039062 59.601562 C 165.800781 59.042969 165.0625 58.4375 164.304688 58.25 C 163.855469 58.140625 163.636719 58.234375 162.910156 58.039062 C 162.238281 57.859375 162.109375 57.691406 161.847656 57.746094 C 161.523438 57.816406 161.109375 58.210938 160.800781 59.753906 C 160.640625 59.152344 160.285156 58.75 159.898438 58.722656 C 159.835938 58.71875 159.660156 58.738281 159.511719 58.839844 C 158.980469 59.199219 159.085938 60.121094 159.898438 61.09375 Z M 159.898438 61.09375 "/>
<path style=" stroke:none;fillRule:nonzero;fill:url(#linear25);" d="M 98.726562 139.441406 L 110.4375 139.441406 C 110.4375 141.605469 108.679688 143.363281 106.511719 143.363281 L 98.726562 143.363281 Z M 98.726562 139.441406 "/>
<path style=" stroke:none;fillRule:nonzero;fill:rgb(3.921569%,3.529412%,16.078431%);fill-opacity:1;" d="M 98.726562 150.445312 C 98.726562 147.878906 100.8125 145.796875 103.382812 145.796875 L 103.382812 155.535156 L 98.726562 155.535156 Z M 98.726562 150.445312 "/>
<path style=" stroke:none;fillRule:nonzero;fill:rgb(3.921569%,3.529412%,16.078431%);fill-opacity:1;" d="M 98.726562 149.179688 C 98.726562 147.3125 100.242188 145.796875 102.113281 145.796875 L 109.59375 145.796875 L 109.59375 149.179688 Z M 98.726562 149.179688 "/>
<path style=" stroke:none;fillRule:nonzero;fill:rgb(3.921569%,3.529412%,16.078431%);fill-opacity:1;" d="M 98.726562 151.75 L 110.863281 151.75 L 110.863281 155.535156 L 98.726562 155.535156 Z M 98.726562 151.75 "/>
</g>
</svg>
