<svg width="234" height="309" viewBox="0 0 234 309" fill="none" xmlns="http://www.w3.org/2000/svg">
<path d="M219.826 0.670144L86.2562 0.670143C78.7974 0.670143 72.7452 6.93044 72.7452 14.6687L72.7452 294.328C72.7452 302.05 78.7974 308.326 86.2562 308.326L219.826 308.326C227.292 308.326 233.353 302.05 233.353 294.328L233.353 14.6695C233.352 6.93044 227.292 0.670144 219.826 0.670144ZM224.906 285.682C224.906 293.042 219.485 298.997 212.801 298.997L93.304 298.997C86.6036 298.997 81.1834 293.042 81.1834 285.682L81.1834 25.2689C81.1834 10.2743 86.6036 9.54245 93.304 9.54245L117.237 9.54245C118.628 9.54245 119.765 11.1497 119.765 13.1426L119.765 14.0023C119.765 18.6711 122.278 18.6868 125.367 18.6868L180.723 18.6868C183.836 18.6868 186.324 18.6711 186.324 14.0023L186.324 13.1426C186.324 11.1497 187.446 9.54245 188.861 9.54245L212.801 9.54245C219.485 9.54245 224.906 11.5354 224.906 25.2689L224.906 285.682Z" fill="#263238"/>
<path d="M160.595 12.8554L145.496 12.8554C144.981 12.8554 144.563 12.4311 144.563 11.9067C144.563 11.383 144.98 10.9579 145.496 10.9579L160.595 10.9579C161.11 10.9579 161.528 11.3822 161.528 11.9067C161.527 12.4311 161.11 12.8554 160.595 12.8554Z" fill="#37474F"/>
<path d="M224.901 25.2694L224.901 285.682C224.901 293.043 219.481 298.998 212.796 298.998L93.2992 298.998C86.5988 298.998 81.1786 293.043 81.1786 285.682L81.1786 25.2694C81.1786 10.2748 86.5988 9.54292 93.2992 9.54292L117.232 9.54292C118.622 9.54292 119.761 11.1502 119.761 13.1431L119.761 14.0027C119.761 18.6715 122.273 18.6873 125.362 18.6873L180.718 18.6873C183.831 18.6873 186.32 18.6715 186.32 14.0027L186.32 13.1431C186.32 11.1502 187.442 9.54292 188.856 9.54292L212.796 9.54292C219.481 9.54292 224.901 11.5358 224.901 25.2694Z" fill="white"/>
<path d="M214.894 24.9383L91.2472 24.9383L91.2472 92.4325L214.894 92.4325L214.894 24.9383Z" fill="white"/>
<path d="M214.899 92.4314L91.2529 92.4677L91.1684 92.4677L91.1684 92.4314L91.0598 24.9372L91.0598 24.8552L91.2529 24.8552L214.899 24.8907L215.009 24.8907L215.009 24.9372L214.899 92.4314ZM214.899 92.4314L214.79 24.9372L214.899 24.9838L91.2529 25.0192L91.446 24.9372L91.3374 92.4314L91.2529 92.3951L214.899 92.4314Z" fill="#DBDBDB"/>
<path d="M183.04 86.0193L95.9141 86.0193L95.9141 87.0832L183.04 87.0832L183.04 86.0193Z" fill="#EBEBEB"/>
<path d="M155.041 88.7655L95.9141 88.7655L95.9141 89.8294L155.041 89.8294L155.041 88.7655Z" fill="#EBEBEB"/>
<path d="M91.0491 82.958L214.998 82.958L214.998 25.6524L91.0491 25.6524L91.0491 82.958Z" fill="#EBEBEB"/>
<path d="M132.014 70.8638L215.008 70.8638L173.511 37.1198L132.014 70.8638Z" fill="#DBDBDB"/>
<path d="M91.0634 70.8866L150.639 70.8866L120.851 46.0315L91.0634 70.8866Z" fill="#C7C7C7"/>
<path d="M215.012 70.8594L91.0634 70.8594L91.0634 82.9581L215.012 82.9581L215.012 70.8594Z" fill="#C7C7C7"/>
<path d="M138.537 47.4366C141.509 47.4366 143.917 44.9869 143.917 41.9649C143.917 38.943 141.509 36.4933 138.537 36.4933C135.566 36.4933 133.158 38.943 133.158 41.9649C133.158 44.9869 135.566 47.4366 138.537 47.4366Z" fill="#DBDBDB"/>
<path d="M214.894 98.0433L91.2472 98.0433L91.2472 175.242L214.894 175.242L214.894 98.0433Z" fill="white"/>
<path d="M214.899 175.241L91.2529 175.282L91.1684 175.282L91.1684 175.241L91.0598 98.0424L91.0598 97.9486L91.2529 97.9486L214.899 97.9896L215.009 97.9896L215.009 98.0424L214.899 175.241ZM214.899 175.241L214.79 98.0424L214.899 98.0953L91.2529 98.1363L91.446 98.0424L91.3374 175.241L91.2529 175.2L214.899 175.241Z" fill="#DBDBDB"/>
<path d="M99.9075 105.784C99.6795 105.928 99.4268 106.038 99.1523 106.106C98.442 106.283 97.7286 106.147 97.1524 105.784C96.5887 105.43 96.1552 104.858 95.9854 104.151C95.6427 102.721 96.5026 101.279 97.9093 100.93C99.3143 100.581 100.733 101.456 101.076 102.887C101.352 104.037 100.847 105.195 99.9075 105.784Z" fill="#EBEBEB"/>
<path d="M99.3299 103.213C99.3299 103.661 98.9732 104.024 98.5327 104.024C98.0923 104.024 97.7356 103.661 97.7356 103.213C97.7356 102.765 98.0923 102.402 98.5327 102.402C98.9732 102.401 99.3299 102.765 99.3299 103.213Z" fill="white"/>
<path d="M99.903 105.449L99.903 105.784C99.675 105.927 99.4223 106.038 99.1478 106.105C98.4375 106.282 97.7241 106.146 97.1479 105.783L97.1479 105.449C97.1479 104.677 97.7644 104.049 98.5251 104.049C99.2858 104.049 99.903 104.678 99.903 105.449Z" fill="white"/>
<path d="M206.108 103.218C206.288 103.218 206.439 103.332 206.439 103.469C206.439 103.606 206.288 103.716 206.108 103.716C205.926 103.716 205.78 103.606 205.78 103.469C205.781 103.332 205.927 103.218 206.108 103.218Z" fill="#EBEBEB"/>
<path d="M207.129 103.218C207.31 103.218 207.46 103.332 207.46 103.469C207.46 103.606 207.31 103.716 207.129 103.716C206.947 103.716 206.802 103.606 206.802 103.469C206.802 103.332 206.947 103.218 207.129 103.218Z" fill="#EBEBEB"/>
<path d="M208.156 103.218C208.337 103.218 208.487 103.332 208.487 103.469C208.487 103.606 208.337 103.716 208.156 103.716C207.975 103.716 207.829 103.606 207.829 103.469C207.83 103.332 207.975 103.218 208.156 103.218Z" fill="#EBEBEB"/>
<path d="M133.14 102.987L105.141 102.987L105.141 104.051L133.14 104.051L133.14 102.987Z" fill="#EBEBEB"/>
<path d="M183.035 168.831L95.9087 168.831L95.9087 169.895L183.035 169.895L183.035 168.831Z" fill="#EBEBEB"/>
<path d="M155.035 171.579L95.9087 171.579L95.9087 172.643L155.035 172.643L155.035 171.579Z" fill="#EBEBEB"/>
<path d="M91.0491 165.774L214.998 165.774L214.998 108.469L91.0491 108.469L91.0491 165.774Z" fill="#EBEBEB"/>
<path d="M132.014 153.679L215.008 153.679L173.511 119.935L132.014 153.679Z" fill="#DBDBDB"/>
<path d="M91.0634 153.703L150.639 153.703L120.851 128.848L91.0634 153.703Z" fill="#C7C7C7"/>
<path d="M215.012 153.676L91.0634 153.676L91.0634 165.775L215.012 165.775L215.012 153.676Z" fill="#C7C7C7"/>
<path d="M138.537 130.252C141.509 130.252 143.917 127.802 143.917 124.78C143.917 121.758 141.509 119.308 138.537 119.308C135.566 119.308 133.158 121.758 133.158 124.78C133.158 127.802 135.566 130.252 138.537 130.252Z" fill="#DBDBDB"/>
<path d="M214.894 180.859L91.2472 180.859L91.2472 258.057L214.894 258.057L214.894 180.859Z" fill="white"/>
<path d="M214.899 258.059L91.2529 258.1L91.1684 258.1L91.1684 258.059L91.0598 180.861L91.0598 180.767L91.2529 180.767L214.899 180.808L215.009 180.808L215.009 180.861L214.899 258.059ZM214.899 258.059L214.79 180.86L214.899 180.913L91.2529 180.954L91.446 180.86L91.3374 258.058L91.2529 258.017L214.899 258.059Z" fill="#DBDBDB"/>
<path d="M99.9075 188.602C99.6795 188.746 99.4268 188.856 99.1523 188.924C98.442 189.101 97.7286 188.965 97.1524 188.602C96.5887 188.248 96.1552 187.676 95.9854 186.969C95.6427 185.539 96.5026 184.097 97.9093 183.748C99.3143 183.399 100.733 184.274 101.076 185.705C101.352 186.855 100.847 188.013 99.9075 188.602Z" fill="#EBEBEB"/>
<path d="M99.3299 186.031C99.3299 186.479 98.9732 186.842 98.5327 186.842C98.0923 186.842 97.7356 186.479 97.7356 186.031C97.7356 185.584 98.0923 185.221 98.5327 185.221C98.9732 185.221 99.3299 185.584 99.3299 186.031Z" fill="white"/>
<path d="M99.903 188.269L99.903 188.603C99.675 188.747 99.4223 188.857 99.1478 188.925C98.4375 189.101 97.7241 188.966 97.1479 188.602L97.1479 188.269C97.1479 187.497 97.7644 186.868 98.5251 186.868C99.2858 186.868 99.903 187.497 99.903 188.269Z" fill="white"/>
<path d="M206.108 186.035C206.288 186.035 206.439 186.15 206.439 186.287C206.439 186.424 206.288 186.534 206.108 186.534C205.926 186.534 205.78 186.424 205.78 186.287C205.781 186.149 205.927 186.035 206.108 186.035Z" fill="#EBEBEB"/>
<path d="M207.129 186.035C207.31 186.035 207.46 186.15 207.46 186.287C207.46 186.424 207.31 186.534 207.129 186.534C206.947 186.534 206.802 186.424 206.802 186.287C206.802 186.149 206.947 186.035 207.129 186.035Z" fill="#EBEBEB"/>
<path d="M208.156 186.035C208.337 186.035 208.487 186.15 208.487 186.287C208.487 186.424 208.337 186.534 208.156 186.534C207.975 186.534 207.829 186.424 207.829 186.287C207.83 186.149 207.975 186.035 208.156 186.035Z" fill="#EBEBEB"/>
<path d="M133.14 185.803L105.141 185.803L105.141 186.867L133.14 186.867L133.14 185.803Z" fill="#EBEBEB"/>
<path d="M183.035 251.649L95.9087 251.649L95.9087 252.713L183.035 252.713L183.035 251.649Z" fill="#EBEBEB"/>
<path d="M155.035 254.396L95.9087 254.396L95.9087 255.46L155.035 255.46L155.035 254.396Z" fill="#EBEBEB"/>
<path d="M91.0491 248.59L214.998 248.59L214.998 191.284L91.0491 191.284L91.0491 248.59Z" fill="#EBEBEB"/>
<path d="M132.014 236.497L215.008 236.497L173.511 202.753L132.014 236.497Z" fill="#DBDBDB"/>
<path d="M91.0634 236.519L150.639 236.519L120.851 211.664L91.0634 236.519Z" fill="#C7C7C7"/>
<path d="M215.012 236.491L91.0634 236.491L91.0634 248.59L215.012 248.59L215.012 236.491Z" fill="#C7C7C7"/>
<path d="M138.537 213.068C141.509 213.068 143.917 210.619 143.917 207.597C143.917 204.575 141.509 202.125 138.537 202.125C135.566 202.125 133.158 204.575 133.158 207.597C133.158 210.619 135.566 213.068 138.537 213.068Z" fill="#DBDBDB"/>
<path d="M224.902 25.2725L224.902 38.5889L81.1786 38.5889L81.1786 25.2725C81.1786 10.2709 86.6042 9.54372 93.3054 9.54372L117.233 9.54372C118.622 9.54372 119.76 11.1463 119.76 13.1455L119.76 14.0043C119.76 18.6715 122.278 18.6881 125.364 18.6881L180.718 18.6881C183.837 18.6881 186.322 18.6715 186.322 14.0043L186.322 13.1455C186.322 11.1463 187.443 9.54372 188.856 9.54372L212.8 9.54372C219.485 9.54372 224.902 11.5351 224.902 25.2725Z" fill="url(#paint0_linear_882_1529)"/>
<path d="M113.086 15.3891C113.009 15.4672 112.932 15.5445 112.855 15.6225C112.811 15.6667 112.767 15.7117 112.724 15.7566C112.103 15.143 111.363 14.8165 110.497 14.8158C109.631 14.8158 108.891 15.1415 108.265 15.759C108.224 15.7156 108.183 15.6706 108.14 15.6265C108.064 15.5484 107.988 15.4703 107.912 15.393C107.911 15.3915 107.908 15.3907 107.905 15.3891C107.905 15.3875 107.905 15.3852 107.905 15.3836C107.911 15.3788 107.917 15.3741 107.922 15.3694C108.02 15.2811 108.115 15.1904 108.215 15.106C108.423 14.9317 108.65 14.7881 108.891 14.6675C109.176 14.5247 109.475 14.4191 109.787 14.3607C109.935 14.3331 110.086 14.3189 110.235 14.3C110.286 14.2937 110.616 14.2921 110.627 14.2929C110.729 14.3008 110.831 14.3055 110.933 14.3165C111.215 14.3473 111.489 14.4167 111.755 14.5161C111.948 14.5878 112.133 14.6769 112.311 14.781C112.499 14.8907 112.677 15.0161 112.842 15.1588C112.925 15.2314 113.005 15.3079 113.086 15.382C113.086 15.3852 113.086 15.3875 113.086 15.3891Z" fill="white"/>
<path d="M109.003 16.4957C108.881 16.3726 108.761 16.2512 108.638 16.1274C109.054 15.7117 109.546 15.4475 110.125 15.3679C110.99 15.2488 111.732 15.5162 112.362 16.1218C112.237 16.248 112.116 16.3695 111.995 16.4933C111.581 16.0848 111.084 15.8647 110.5 15.8647C109.917 15.8655 109.42 16.0856 109.003 16.4957Z" fill="white"/>
<path d="M111.638 16.8673C111.518 16.9895 111.397 17.1125 111.274 17.2363C111.064 17.0281 110.808 16.913 110.508 16.9138C110.209 16.9146 109.954 17.0281 109.742 17.2387C109.62 17.1149 109.5 16.9919 109.379 16.8696C109.957 16.2529 110.997 16.204 111.638 16.8673Z" fill="white"/>
<path d="M110.825 17.5733C110.825 17.7578 110.678 17.9077 110.496 17.9077C110.315 17.9077 110.168 17.7586 110.168 17.5733C110.168 17.3887 110.316 17.2397 110.496 17.2397C110.678 17.2397 110.825 17.3887 110.825 17.5733Z" fill="white"/>
<path d="M90.5409 16.1032C90.5409 15.5685 90.9674 15.1347 91.4931 15.1347C92.0188 15.1347 92.4453 15.5685 92.4453 16.1032C92.4453 16.6379 92.0188 17.0717 91.4931 17.0717C90.9674 17.0717 90.5409 16.6379 90.5409 16.1032Z" fill="white"/>
<path d="M93.5432 16.1032C93.5432 15.5685 93.9697 15.1347 94.4962 15.1347C95.0219 15.1347 95.4484 15.5685 95.4484 16.1032C95.4484 16.6379 95.0219 17.0717 94.4962 17.0717C93.9697 17.0717 93.5432 16.6379 93.5432 16.1032Z" fill="white"/>
<path d="M96.537 16.1032C96.537 15.5685 96.9635 15.1347 97.4892 15.1347C98.0149 15.1347 98.4414 15.5685 98.4414 16.1032C98.4414 16.6379 98.0149 17.0717 97.4892 17.0717C96.9635 17.0717 96.537 16.6379 96.537 16.1032Z" fill="white"/>
<path d="M99.5521 16.1032C99.5521 15.5685 99.9786 15.1347 100.504 15.1347C101.03 15.1347 101.457 15.5685 101.457 16.1032C101.457 16.6379 101.03 17.0717 100.504 17.0717C99.9778 17.0717 99.5521 16.6379 99.5521 16.1032Z" fill="white"/>
<path d="M102.537 16.1032C102.537 15.5685 102.964 15.1347 103.49 15.1347C104.016 15.1347 104.443 15.5685 104.443 16.1032C104.443 16.6379 104.016 17.0717 103.49 17.0717C102.964 17.0717 102.537 16.6379 102.537 16.1032Z" fill="white"/>
<path d="M214.106 18.2233L206.341 18.2233L206.341 14.5584L214.106 14.5584L214.106 18.2233ZM206.748 17.81L213.7 17.81L213.7 14.9717L206.748 14.9717L206.748 17.81Z" fill="white"/>
<path d="M211.983 15.186L206.984 15.186L206.984 17.5985L211.983 17.5985L211.983 15.186Z" fill="white"/>
<path d="M214.803 15.4153L214.113 15.4153L214.113 17.3696L214.803 17.3696L214.803 15.4153Z" fill="white"/>
<path d="M188.306 266.274L117.512 266.274L117.512 287.513L188.306 287.513L188.306 266.274Z" fill="url(#paint1_linear_882_1529)"/>
<path d="M179.645 277.182C179.915 277.714 179.976 278.247 179.988 278.78C179.977 279.313 179.917 279.845 179.645 280.378C179.373 279.845 179.312 279.312 179.302 278.78C179.314 278.247 179.374 277.714 179.645 277.182Z" fill="#263238"/>
<path d="M175.788 278.847C176.35 279.029 176.763 279.362 177.141 279.73C177.505 280.114 177.832 280.535 178.01 281.107C177.447 280.926 177.034 280.593 176.656 280.224C176.295 279.839 175.967 279.419 175.788 278.847Z" fill="#263238"/>
<path d="M174.182 282.815C174.706 282.541 175.23 282.478 175.753 282.467C176.277 282.477 176.8 282.538 177.324 282.815C176.8 283.092 176.277 283.154 175.753 283.164C175.23 283.152 174.706 283.09 174.182 282.815Z" fill="#263238"/>
<path d="M175.83 286.758C176.009 286.187 176.336 285.767 176.698 285.382C177.075 285.012 177.489 284.679 178.051 284.499C177.873 285.071 177.546 285.491 177.183 285.875C176.804 286.243 176.391 286.576 175.83 286.758Z" fill="#263238"/>
<path d="M179.723 288.368C179.453 287.835 179.392 287.303 179.38 286.77C179.391 286.237 179.451 285.704 179.723 285.171C179.995 285.704 180.056 286.237 180.066 286.77C180.055 287.303 179.994 287.835 179.723 288.368Z" fill="#263238"/>
<path d="M183.611 286.701C183.05 286.519 182.637 286.186 182.258 285.818C181.895 285.434 181.567 285.013 181.39 284.441C181.952 284.623 182.366 284.955 182.743 285.324C183.104 285.709 183.432 286.129 183.611 286.701Z" fill="#263238"/>
<path d="M185.197 282.735C184.674 283.009 184.15 283.072 183.626 283.083C183.102 283.073 182.579 283.012 182.055 282.735C182.578 282.458 183.102 282.396 183.626 282.386C184.15 282.398 184.673 282.46 185.197 282.735Z" fill="#263238"/>
<path d="M183.555 278.792C183.376 279.364 183.049 279.784 182.687 280.169C182.309 280.538 181.896 280.871 181.333 281.052C181.512 280.48 181.839 280.059 182.202 279.676C182.58 279.307 182.993 278.974 183.555 278.792Z" fill="#263238"/>
<path d="M122.822 262.586C123.092 263.119 123.153 263.652 123.165 264.184C123.155 264.716 123.094 265.249 122.822 265.782C122.551 265.25 122.49 264.717 122.479 264.184C122.492 263.652 122.552 263.119 122.822 262.586Z" fill="#263238"/>
<path d="M118.951 264.254C119.512 264.436 119.925 264.769 120.304 265.137C120.667 265.521 120.995 265.942 121.172 266.514C120.61 266.332 120.196 266 119.819 265.631C119.457 265.246 119.13 264.826 118.951 264.254Z" fill="#263238"/>
<path d="M117.357 268.219C117.88 267.944 118.404 267.882 118.928 267.87C119.452 267.881 119.976 267.942 120.499 268.219C119.976 268.496 119.452 268.557 118.928 268.568C118.404 268.556 117.881 268.495 117.357 268.219Z" fill="#263238"/>
<path d="M118.992 272.163C119.171 271.592 119.499 271.172 119.861 270.787C120.238 270.417 120.652 270.084 121.214 269.904C121.036 270.476 120.709 270.896 120.346 271.28C119.968 271.648 119.554 271.981 118.992 272.163Z" fill="#263238"/>
<path d="M122.886 273.774C122.616 273.241 122.555 272.709 122.543 272.176C122.553 271.643 122.614 271.111 122.886 270.578C123.158 271.111 123.219 271.643 123.229 272.176C123.217 272.709 123.156 273.241 122.886 273.774Z" fill="#263238"/>
<path d="M126.779 272.105C126.218 271.923 125.805 271.59 125.426 271.222C125.063 270.838 124.735 270.418 124.558 269.846C125.12 270.027 125.534 270.36 125.911 270.729C126.272 271.114 126.6 271.535 126.779 272.105Z" fill="#263238"/>
<path d="M128.351 268.139C127.826 268.414 127.303 268.476 126.779 268.488C126.255 268.478 125.732 268.416 125.208 268.139C125.731 267.863 126.255 267.801 126.779 267.79C127.303 267.803 127.826 267.864 128.351 268.139Z" fill="#263238"/>
<path d="M126.713 264.196C126.534 264.767 126.206 265.187 125.844 265.572C125.467 265.942 125.054 266.275 124.491 266.456C124.669 265.884 124.997 265.463 125.359 265.079C125.737 264.712 126.151 264.378 126.713 264.196Z" fill="#263238"/>
<path d="M64.5304 228.445C64.5304 228.445 85.2489 253.566 85.2644 253.582C89.2516 258.365 92.6627 262.63 94.2252 265.004C94.2353 265.015 94.2453 265.026 94.25 265.043C94.8401 265.938 95.1619 266.556 95.1348 266.82C95.134 266.841 95.1386 266.857 95.1324 266.873C94.5369 269.044 57.885 302.564 56.2202 303.295C54.5546 304.037 52.3749 299.257 52.7765 296.802C53.1898 294.336 61.5737 275.125 61.5737 275.125L41.0979 249.816L64.5304 228.445Z" fill="#EB9481"/>
<path d="M81.019 248.424C81.019 248.424 85.2583 253.564 85.273 253.581C89.2602 258.364 92.6713 262.629 94.2338 265.003C94.2439 265.014 94.254 265.025 94.2586 265.042C94.7944 265.967 95.1154 266.607 95.1434 266.819C95.1426 266.84 95.1472 266.857 95.141 266.872C94.5455 269.044 57.8936 302.563 56.2288 303.294C54.5632 304.036 52.3835 299.256 52.7851 296.801C53.1984 294.336 61.5823 275.124 61.5823 275.124L57.195 269.95L81.019 248.424Z" fill="#EBEBEB"/>
<path d="M56.2271 303.297C57.895 302.566 94.5438 269.05 95.1401 266.872C95.3812 266.049 90.8908 260.333 85.2697 253.585C85.21 253.515 85.1511 253.445 85.0914 253.375L61.2099 274.73L61.5798 275.13C61.5798 275.13 53.1936 294.341 52.7842 296.806C52.3841 299.256 54.5638 304.036 56.2271 303.297Z" fill="#605ED8"/>
<path d="M61.2613 274.682L61.2613 274.793L61.2023 274.733L61.2613 274.682Z" fill="#020100"/>
<path opacity="0.1" d="M52.7841 296.802C53.1408 294.624 59.7427 279.356 61.2633 275.847L61.2633 299.074C58.4765 301.537 56.5736 303.144 56.2254 303.299C54.5598 304.034 52.3848 299.256 52.7841 296.802Z" fill="#020100"/>
<path d="M55.3814 301.474C61.4228 295.67 86.3285 272.839 92.7343 267.569C92.7863 267.527 92.8173 267.561 92.7692 267.609C86.9047 273.494 61.8174 296.118 55.4722 301.577C55.3388 301.692 55.2543 301.596 55.3814 301.474Z" fill="#263238"/>
<path d="M59.6688 277.02C61.6919 274.336 65.0006 271.996 68.4156 272.059C68.5482 272.061 68.5427 272.253 68.4419 272.299C65.3635 273.724 62.6875 275.279 59.9549 277.324C59.7619 277.468 59.5238 277.213 59.6688 277.02Z" fill="#263238"/>
<path d="M58.8768 279.7C60.8999 277.015 64.2086 274.676 67.6236 274.738C67.7562 274.74 67.7508 274.932 67.6492 274.978C64.5707 276.403 61.8948 277.958 59.1622 280.003C58.9699 280.147 58.7318 279.892 58.8768 279.7Z" fill="#263238"/>
<path d="M58.0718 282.38C60.0949 279.695 63.4036 277.356 66.8193 277.419C66.9519 277.421 66.9465 277.612 66.8449 277.659C63.7665 279.084 61.0905 280.639 58.3579 282.684C58.1656 282.828 57.9268 282.572 58.0718 282.38Z" fill="#263238"/>
<path d="M54.5131 198.012C56.2889 206.934 86.5086 252.525 86.5086 252.525L59.665 277.513C59.665 277.513 15.635 219.864 18.3327 200.151C20.6784 183.004 45.9207 114.045 45.9207 114.045L75.0424 114.045C75.0424 114.045 52.7669 189.239 54.5131 198.012Z" fill="#37474F"/>
<path d="M57.3767 269.279C61.2685 265.496 60.0992 266.526 64.0329 262.787C65.9575 260.957 78.6178 248.946 80.7076 247.56C80.7533 247.53 80.8154 247.598 80.782 247.642C79.2428 249.64 66.3793 261.424 64.4206 263.216C60.4171 266.877 61.5275 265.781 57.4837 269.396C57.4069 269.465 57.3038 269.35 57.3767 269.279Z" fill="#263238"/>
<path d="M49.5072 195.075C49.9243 192.848 50.3973 190.629 50.861 188.412C51.8086 183.882 52.8089 179.364 53.8666 174.859C55.9633 165.926 58.2338 157.041 60.7081 148.206C63.191 139.342 65.8143 130.495 68.8361 121.804C69.2099 120.73 69.5952 119.66 69.9799 118.59C70.0093 118.509 70.1326 118.545 70.107 118.63C67.49 127.335 64.7923 136.016 62.3381 144.772C59.8939 153.493 57.6328 162.259 55.5004 171.064C54.4295 175.485 53.4339 179.923 52.46 184.367C51.9815 186.55 51.5139 188.735 51.058 190.923C50.5958 193.142 49.9747 195.411 49.8383 197.681C49.7041 199.911 50.4198 201.888 51.5496 203.767C52.6414 205.584 75.8979 245.975 76.6609 246.705C76.7206 246.763 76.6291 246.849 76.5694 246.795C73.3878 243.891 50.2128 203.218 49.5878 201.315C48.9155 199.268 49.1171 197.156 49.5072 195.075Z" fill="#263238"/>
<path d="M61.2775 259.338C61.2775 259.338 54.9911 290.471 54.9919 290.494C54.9081 296.764 54.7244 302.259 54.3684 305.093C54.3684 305.108 54.3692 305.124 54.3622 305.139C54.2289 306.208 54.0722 306.889 53.8815 307.069C53.8667 307.085 53.8598 307.1 53.845 307.108C51.9933 308.347 2.70825 309.124 0.981387 308.563C-0.753233 308.009 0.690604 302.949 2.57953 301.367C4.48319 299.784 23.2143 290.904 23.2143 290.904L29.8062 259.791L61.2775 259.338Z" fill="#EB9481"/>
<path d="M0.980328 308.562C2.70797 309.122 51.9961 308.347 53.8455 307.11C53.8618 307.102 53.8696 307.085 53.8858 307.069C54.0727 306.887 54.2348 306.211 54.3643 305.139C54.3728 305.122 54.3728 305.106 54.3728 305.089C54.7295 302.26 54.9078 296.766 54.997 290.497C54.997 290.489 56.0849 285.077 56.0849 285.077L24.4508 285.077L23.2194 290.901C23.2194 290.901 4.48369 299.785 2.5777 301.368C0.696525 302.952 -0.755067 308.009 0.980328 308.562Z" fill="#EBEBEB"/>
<path d="M0.979011 308.564C2.70975 309.127 51.9894 308.349 53.8457 307.106C54.5591 306.646 54.8662 299.337 54.9879 290.493C54.9879 290.401 54.9887 290.309 54.9895 290.217L23.191 290.357L23.2119 290.906C23.2119 290.906 4.48004 299.784 2.57871 301.37C0.692881 302.949 -0.752506 308.008 0.979011 308.564Z" fill="#605ED8"/>
<path d="M1.51775 306.611C9.82174 306.273 43.3456 305.704 51.5798 306.011C51.6465 306.014 51.6472 306.06 51.5806 306.065C43.3572 306.583 9.8295 306.875 1.5193 306.75C1.34405 306.747 1.3425 306.618 1.51775 306.611Z" fill="#263238"/>
<path d="M20.561 291.045C23.8201 290.373 27.8267 290.82 30.36 293.15C30.4585 293.24 30.3306 293.38 30.2243 293.349C26.9831 292.366 23.9612 291.749 20.5796 291.465C20.3416 291.445 20.3276 291.093 20.561 291.045Z" fill="#263238"/>
<path d="M18.2184 292.528C21.4775 291.856 25.4833 292.303 28.0182 294.632C28.1167 294.722 27.9887 294.863 27.8825 294.831C24.6412 293.848 21.6194 293.232 18.2386 292.948C17.9997 292.928 17.985 292.576 18.2184 292.528Z" fill="#263238"/>
<path d="M15.8847 294.012C19.1445 293.339 23.1504 293.787 25.6844 296.117C25.7829 296.207 25.655 296.347 25.5487 296.315C22.3075 295.332 19.2857 294.715 15.9048 294.432C15.666 294.412 15.6513 294.06 15.8847 294.012Z" fill="#263238"/>
<path d="M46.5802 114.044C46.6143 114.665 48.2404 120.337 49.0817 128.822C49.6889 135.02 50.4503 140.504 51.263 141.187C52.1834 141.957 56.7847 144.964 58.3356 145.925C58.3356 145.925 43.9848 190.164 40.283 204.911C34.9155 226.29 22.0582 290.428 22.0582 290.428L56.3148 290.422C56.3148 290.422 66.7311 229.363 71.2844 209.01C75.1878 191.561 90.1434 139.214 90.1434 139.214C95.5838 125.607 88.933 114.044 88.933 114.044C88.933 114.044 46.5763 114.02 46.5802 114.044Z" fill="#37474F"/>
<path d="M25.0847 283.675C30.1644 283.641 28.7059 283.574 33.7857 283.601C36.2717 283.615 52.6059 283.719 54.9213 284.17C54.9725 284.18 54.971 284.273 54.9198 284.281C52.5912 284.659 36.2616 284.248 33.7764 284.182C28.6981 284.05 30.1575 284.029 25.0815 283.834C24.9869 283.831 24.9893 283.676 25.0847 283.675Z" fill="#263238"/>
<path d="M48.8348 139.438C52.1738 141.23 55.3104 143.52 58.2849 145.872C58.4012 145.964 58.2865 146.152 58.1577 146.07C54.9553 144.029 51.6744 142.042 48.5859 139.825C48.344 139.651 48.579 139.301 48.8348 139.438Z" fill="#263238"/>
<path d="M51.4521 115.369C51.4792 115.25 51.6925 115.256 51.6716 115.386C51.0109 119.525 50.7147 123.212 50.4673 127.139C50.3526 128.962 50.258 139.122 53.4333 138.881C53.9653 138.841 54.3057 138.368 54.5065 137.595C54.7477 136.664 54.5747 135.448 54.5647 134.484C54.5422 132.35 54.5871 130.22 54.7321 128.092C55.0028 124.118 55.5851 120.194 56.6513 116.358C56.6862 116.232 56.8669 116.271 56.8467 116.401C56.0139 121.829 55.3261 127.27 55.3036 132.773C55.2928 135.417 55.9782 139.51 53.2604 139.488C50.4914 139.466 49.7353 132.673 49.6772 130.838C49.5143 125.717 50.2975 120.342 51.4521 115.369Z" fill="#263238"/>
<path d="M53.3062 139.136C53.4815 139.847 53.5985 140.576 53.6815 141.304C53.7459 141.87 53.8568 142.486 53.7094 143.042C53.6807 143.15 53.5365 143.138 53.49 143.055C53.2015 142.534 53.1465 141.877 53.0294 141.295C52.8937 140.622 52.7432 139.95 52.6262 139.273C52.5486 138.824 53.1984 138.698 53.3062 139.136Z" fill="#263238"/>
<path d="M58.8147 273.627C58.9054 272.794 59.0132 271.961 59.1249 271.129C59.3397 269.532 59.5948 267.943 59.8282 266.349C60.2965 263.148 60.8199 259.956 61.3581 256.766C62.432 250.405 63.6743 244.065 64.9824 237.752C65.7222 234.184 66.5829 230.658 67.4894 227.133C67.5522 226.888 67.8817 227.006 67.8414 227.245C67.2901 230.471 66.7597 233.699 66.1316 236.911C65.5058 240.112 64.8824 243.315 64.2768 246.52C63.0803 252.858 61.9652 259.212 60.7734 265.551C60.4369 267.339 60.1314 269.134 59.7995 270.924C59.6335 271.817 59.4622 272.71 59.28 273.599C59.0985 274.485 58.8349 275.357 58.6961 276.252C58.6829 276.336 58.5619 276.297 58.5751 276.213C58.7069 275.361 58.7209 274.487 58.8147 273.627Z" fill="#263238"/>
<path d="M36.6759 218.159C37.8165 212.378 39.355 206.672 40.9012 200.993C44.0137 189.56 47.6791 178.293 51.3353 167.031C52.3883 163.786 53.4398 160.54 54.4959 157.295C55.0232 155.674 57.6053 146.925 57.9263 146.094C57.9589 146.01 58.0822 146.046 58.0597 146.135C57.32 149.115 56.3034 153.461 55.4489 156.41C54.6037 159.326 53.6809 162.22 52.7907 165.123C51.0414 170.827 49.261 176.521 47.562 182.241C44.2037 193.546 40.8686 204.847 38.143 216.332C37.38 219.548 36.6193 222.761 35.9222 225.993C35.2266 229.219 33.1532 237.221 32.4878 240.454C32.47 240.542 32.3242 240.519 32.3328 240.428C32.9058 234.537 35.5321 223.959 36.6759 218.159Z" fill="#263238"/>
<path d="M57.9671 248.401C59.8529 237.372 62.1117 226.403 64.614 215.504C67.1287 204.55 69.9287 193.664 73.0134 182.863C76.098 172.062 79.5168 161.357 83.1892 150.748C84.9293 145.719 86.6996 140.681 87.8418 135.47C88.9708 130.318 89.5446 124.745 88.3652 119.549C88.0651 118.228 87.6875 116.938 87.1943 115.679C87.1602 115.592 87.2842 115.519 87.3222 115.607C91.442 125.37 88.7684 136.05 85.6318 145.675C83.9135 150.949 82.0796 156.182 80.3853 161.464C78.646 166.886 76.9789 172.331 75.3838 177.799C72.2224 188.634 69.2874 199.533 66.658 210.515C64.0293 221.494 61.6875 232.546 59.6265 243.649C57.5584 254.793 55.8207 265.982 54.0574 277.178C53.8279 278.635 53.6464 280.099 53.4588 281.562C53.4487 281.643 53.3223 281.641 53.3324 281.559C54.6514 270.463 56.0843 259.412 57.9671 248.401Z" fill="#263238"/>
<path d="M30.7209 63.1336L30.7203 63.1337L30.7245 63.1457C30.8394 63.4757 30.8087 63.7566 30.6892 63.9492C30.5714 64.139 30.3544 64.264 30.0481 64.2612L17.753 64.146C17.4435 64.1432 17.1077 64.0088 16.8168 63.7848C16.5282 63.5625 16.2938 63.2594 16.1785 62.9314L10.3961 38.648L10.3967 38.6479L10.3925 38.636C10.2776 38.305 10.3083 38.0241 10.4277 37.8318C10.5454 37.6423 10.7621 37.5176 11.0681 37.5204C11.0681 37.5204 11.0681 37.5204 11.0681 37.5204L23.3632 37.6356L23.3634 37.6356C23.6733 37.638 24.0089 37.7719 24.2996 37.9957C24.588 38.2177 24.8225 38.521 24.9386 38.8502L30.7209 63.1336Z" fill="#37474F" stroke="black" strokeWidth="0.25"/>
<path d="M29.2482 63.1071L29.2476 63.1073L29.2517 63.1192C29.3666 63.4497 29.336 63.7306 29.2165 63.923C29.0987 64.1127 28.8817 64.2375 28.5754 64.2347L16.2803 64.1196C15.9708 64.1167 15.6349 63.9823 15.3439 63.7583C15.0552 63.536 14.8206 63.2329 14.7049 62.9049L8.92255 38.6216L8.92317 38.6214L8.91904 38.6095C8.80411 38.2786 8.83478 37.9977 8.95417 37.8054C9.07185 37.6158 9.28861 37.4912 9.5946 37.494C9.5946 37.494 9.59461 37.494 9.59462 37.494L21.8897 37.6091L21.8897 37.6091C22.2001 37.612 22.5362 37.7459 22.8271 37.9696C23.1157 38.1915 23.3501 38.4946 23.4658 38.8237L29.2482 63.1071Z" fill="#D2D2D2" stroke="black" strokeWidth="0.25"/>
<path d="M21.2569 40.9126L21.2553 40.7876C20.7493 40.7938 20.3304 40.3817 20.3242 39.8622L20.3242 39.862C20.3173 39.3424 20.7261 38.9191 21.2313 38.9122C21.738 38.906 22.1563 39.3179 22.1632 39.8376C22.1694 40.3575 21.7611 40.7807 21.2552 40.7876L21.2569 40.9126ZM21.2569 40.9126C21.8338 40.9047 22.2952 40.4228 22.2882 39.8361L21.2297 38.7872C20.6536 38.7951 20.1914 39.2769 20.1992 39.8637C20.2062 40.4504 20.68 40.9197 21.2569 40.9126Z" fill="#263238" stroke="black" strokeWidth="0.25"/>
<path d="M58.5054 69.5257C53.0813 83.6188 40.0628 102.322 34.206 102.794C31.4191 103.019 26.482 104.031 22.6103 101.017C14.1613 94.4399 7.86337 84.2222 5.97289 78.2339C5.12535 75.5494 20.3081 66.8159 22.3397 69.0115C26.7302 73.7544 30.995 80.1866 31.8014 80.0699C34.7868 79.637 44.8402 69.7891 52.5758 62.2409C61.9685 53.0768 60.6673 63.9089 58.5054 69.5257Z" fill="#EB9481"/>
<path d="M4.68225 60.5707C6.23077 54.3711 7.56372 53.0209 6.1385 47.0832C5.20334 43.1865 7.24812 40.9073 9.96288 44.0343C14.4029 49.1495 14.0571 57.5746 13.1103 60.4603L4.68225 60.5707Z" fill="#EB9481"/>
<path d="M5.97802 78.2326C5.97802 78.2326 3.03762 70.3713 4.04489 63.5984C4.74122 58.9146 7.37378 48.8972 20.2683 43.6148C23.3265 42.3616 28.5583 42.7828 24.2943 46.674C21.2647 49.4382 18.5228 50.2607 17.0487 52.1945C17.0487 52.1945 23.6414 53.5329 24.7556 56.6977C25.2535 58.1125 26.5244 62.0061 27.0889 65.1804C27.0889 65.1804 26.4422 65.4911 25.5675 65.7664C25.5675 65.7664 26.5197 68.7632 24.3338 73.0125L5.97802 78.2326Z" fill="#EB9481"/>
<path d="M5.40198 59.2361C7.26454 57.6312 11.2673 54.296 15.4747 52.7266C20.1482 50.9829 29.6122 48.9056 30.842 52.4277C31.7438 55.0106 28.1986 56.1265 28.1986 56.1265C28.1986 56.1265 32.2882 56.1068 32.6015 58.621C32.8868 60.912 30.093 61.6084 30.093 61.6084C30.093 61.6084 32.5759 62.0303 32.4324 64.2906C32.2603 67.0099 27.0843 65.6794 24.5704 68.2804C24.0067 68.864 5.40198 59.2361 5.40198 59.2361Z" fill="#EB9481"/>
<path d="M16.4757 58.0567C18.4701 56.839 23.698 55.2562 28.1349 56.0582C28.2357 56.0764 28.2761 56.1631 28.1807 56.1663C23.1118 56.3382 18.4445 57.4912 16.492 58.1016C16.4656 58.1095 16.4532 58.0701 16.4757 58.0567Z" fill="#263238"/>
<path d="M18.3396 62.8051C20.1673 61.9344 25.6271 60.5479 30.095 61.5172C30.1951 61.5393 30.23 61.6292 30.1346 61.6284C24.8315 61.5866 20.3379 62.3603 18.3536 62.8508C18.3264 62.8571 18.3164 62.8161 18.3396 62.8051Z" fill="#263238"/>
<path d="M41.5626 70.6689L43.6408 73.2241L44.0672 73.7525L52.3332 83.9261C52.3332 83.9261 59.8238 71.4812 61.3359 64.407C62.2431 60.1562 61.5918 57.6483 59.7695 57.1909C59.6377 57.1593 59.4981 57.1357 59.3586 57.1278C58.1799 57.0253 56.5981 57.6562 54.706 59.0758C49.3789 63.0821 41.5626 70.6689 41.5626 70.6689Z" fill="#605ED8"/>
<path d="M59.2028 58.0119C59.4122 57.7516 59.5983 57.4756 59.7611 57.1917C59.6293 57.1602 59.4897 57.1365 59.3501 57.1286C59.2803 57.4125 59.2338 57.7122 59.2028 58.0119ZM43.6323 73.2249L44.0588 73.7533C44.2914 73.0988 44.4775 72.4284 44.5473 71.7107C44.1674 72.1839 43.8805 72.6966 43.6323 73.2249ZM54.1703 70.1019C54.2556 70.9457 54.5115 71.7186 54.8062 72.4678C55.1318 73.2092 55.4885 73.9347 56.0236 74.5893C55.9383 73.7455 55.6824 72.9726 55.3877 72.2234C55.0621 71.482 54.7054 70.7565 54.1703 70.1019Z" fill="white"/>
<path d="M53.9424 79.6948C53.495 78.6254 48.896 72.1987 45.0654 68.119C45.0072 68.0567 44.9173 68.1371 44.9669 68.2058C45.3314 68.7073 52.9274 79.03 53.8091 79.8107C53.8819 79.8754 53.9742 79.7713 53.9424 79.6948Z" fill="#263238"/>
<path opacity="0.05" d="M47.0477 77.4231L52.3369 83.9231C52.3369 83.9231 59.8298 71.483 61.3426 64.4048C62.3864 59.5231 61.3698 56.9308 58.883 57.1248L47.0477 77.4231Z" fill="black"/>
<path d="M45.5293 115.756C46.5908 116.926 91.4064 121.782 91.6623 121.467C92.3485 120.617 88.2264 74.5507 69.8651 57.6752C66.6293 54.7012 60.9152 55.5498 58.2656 57.0782C56.942 57.8416 54.6413 64.21 52.3871 71.6422C50.6649 77.3205 44.8616 115.01 45.5293 115.756Z" fill="#605ED8"/>
<path d="M59.1957 58.0147C59.6376 57.4705 59.9556 56.8711 60.2347 56.256C59.9788 56.327 59.7385 56.4137 59.5058 56.5005C59.3585 56.9894 59.2422 57.4863 59.1957 58.0147ZM53.7832 90.1758C54.3105 89.5212 54.6672 88.7878 54.9774 88.0386C55.2643 87.2893 55.5124 86.5165 55.5899 85.6726C55.0627 86.3272 54.706 87.0606 54.3958 87.802C54.1089 88.5591 53.8608 89.3319 53.7832 90.1758ZM74.7816 82.0842C75.3089 81.4297 75.6579 80.6962 75.968 79.9549C76.2627 79.1978 76.5108 78.4249 76.5806 77.5811C76.0611 78.2356 75.7044 78.9691 75.3942 79.7104C75.0996 80.4675 74.8514 81.2404 74.7816 82.0842ZM88.5144 101.406C88.7005 101.17 88.8711 100.941 89.0184 100.688L89.0184 100.681C88.9641 100.405 88.9021 100.121 88.8401 99.8368C88.685 100.341 88.5609 100.862 88.5144 101.406ZM63.8637 116.296C64.391 115.641 64.7477 114.908 65.0579 114.167C65.3448 113.409 65.5929 112.637 65.6704 111.793C65.1432 112.447 64.7942 113.181 64.4763 113.922C64.1894 114.679 63.9412 115.452 63.8637 116.296ZM65.7712 64.939C66.4226 65.4753 67.136 65.8302 67.8726 66.1456C68.617 66.4374 69.377 66.6898 70.2067 66.7687C69.5553 66.2324 68.8419 65.8775 68.1053 65.562C67.3609 65.2624 66.6009 65.01 65.7712 64.939ZM72.8974 90.2231C73.5487 90.7594 74.2621 91.1222 74.9988 91.4376C75.7432 91.7294 76.5031 91.9818 77.3328 92.0607C76.6814 91.5244 75.968 91.1695 75.2314 90.8461C74.487 90.5543 73.7271 90.302 72.8974 90.2231ZM47.5798 98.6774C48.3087 98.9613 49.0609 99.2058 49.8751 99.2847C49.2315 98.7484 48.5103 98.3856 47.7814 98.0702C47.7504 98.0544 47.7117 98.0465 47.6806 98.0307C47.6419 98.2516 47.6109 98.4645 47.5798 98.6774ZM87.4676 111.927C87.5529 112.771 87.8087 113.536 88.1034 114.285C88.4213 115.034 88.7858 115.76 89.3208 116.406C89.2355 115.562 88.9796 114.79 88.6772 114.04C88.3593 113.299 87.9948 112.573 87.4676 111.927ZM54.1632 70.1047C54.2485 70.9485 54.5044 71.7214 54.799 72.4706C55.1247 73.2119 55.4814 73.9375 56.0164 74.5921C55.9311 73.7482 55.6752 72.9753 55.3806 72.2261C55.0549 71.4848 54.6982 70.7592 54.1632 70.1047ZM62.9099 95.3572C62.9952 96.2011 63.2511 96.9739 63.5535 97.7232C63.8715 98.4645 64.2359 99.1901 64.7709 99.8368C64.6856 98.9929 64.4298 98.2279 64.1273 97.4787C63.8094 96.7374 63.445 96.0118 62.9099 95.3572ZM73.8822 107.889C74.7119 107.802 75.464 107.542 76.2084 107.234C76.9373 106.911 77.6507 106.54 78.2866 105.996C77.4569 106.083 76.7047 106.351 75.968 106.651C75.2314 106.982 74.5258 107.345 73.8822 107.889ZM51.488 108.875C52.3099 108.788 53.0698 108.528 53.8065 108.228C54.5431 107.897 55.2488 107.534 55.8924 106.99C55.0627 107.077 54.3027 107.337 53.5661 107.644C52.8372 107.968 52.1238 108.338 51.488 108.875ZM61.6615 80.7751C62.4912 80.6883 63.2511 80.4281 63.9878 80.1284C64.7167 79.7972 65.4301 79.4344 66.0737 78.8902C65.244 78.977 64.484 79.2372 63.7474 79.5448C63.0185 79.8681 62.3051 80.2388 61.6615 80.7751Z" fill="white"/>
<path d="M75.3946 63.0604C86.6188 76.8484 95.9153 94.4494 94.6878 99.1246C93.3371 104.269 81.38 122.148 73.173 129.198C71.0072 131.059 57.6715 112.763 59.9055 110.679C64.2052 106.666 73.501 95.5252 74.761 93.8035C75.821 92.3556 71.329 81.8468 68.1498 69.7426C65.7142 60.4681 69.6937 56.0572 75.3946 63.0604Z" fill="#EB9481"/>
<path d="M37.4536 126.343C37.8801 128.692 40.2947 128.993 40.2947 128.993C40.2947 128.993 39.5565 130.747 40.2032 132.458C40.9445 134.417 44.2897 134.094 44.2897 134.094C44.2897 134.094 43.9035 136.026 44.7658 137.763C45.6607 139.566 49.0818 139.729 49.0818 139.729C49.0818 139.729 49.6944 141.73 51.4988 142.687C54.5834 144.324 59.1646 141.587 62.0942 139.876C65.0237 138.166 71.7583 130.523 73.1866 129.2L62.5556 109.983C62.5556 109.983 47.2735 113.851 44.1098 116.359C41.4439 118.472 36.9744 123.705 37.4536 126.343Z" fill="#EB9481"/>
<path d="M40.2382 128.61C42.5419 125.671 45.5738 123.586 48.4848 121.33C48.5499 121.279 48.6259 121.383 48.5608 121.433C45.6405 123.643 43.1894 126.414 40.3614 128.738C40.2831 128.801 40.1761 128.689 40.2382 128.61Z" fill="#263238"/>
<path d="M44.199 133.807C44.7395 133.158 45.4893 132.693 46.1732 132.216C46.9091 131.702 47.6543 131.202 48.4064 130.713C49.9123 129.735 51.4407 128.791 52.9954 127.894C53.0644 127.854 53.1412 127.951 53.0706 127.997C51.5717 128.975 50.0868 129.976 48.629 131.017C47.8993 131.538 47.1743 132.066 46.4531 132.597C45.7816 133.093 45.114 133.672 44.3463 134.006C44.2331 134.056 44.1176 133.905 44.199 133.807Z" fill="#263238"/>
<path d="M49.1244 139.685C49.5718 139.102 50.3643 138.729 50.9769 138.349C51.6724 137.918 52.3649 137.482 53.0558 137.043C54.4368 136.165 55.817 135.286 57.1671 134.359C57.2345 134.314 57.3105 134.415 57.2431 134.463C55.876 135.411 54.5221 136.378 53.1465 137.314C52.4711 137.774 51.7934 138.23 51.1133 138.682C50.5349 139.067 49.8556 139.614 49.1655 139.756C49.1267 139.765 49.1019 139.714 49.1244 139.685Z" fill="#263238"/>
<path d="M70.1803 82.1989L87.5947 78.8527C87.5947 78.8527 80.1569 65.5632 74.5405 60.5718C68.9241 55.5804 65.4619 57.0702 66.3792 64.0655C67.2965 71.0608 70.1803 82.1989 70.1803 82.1989Z" fill="#605ED8"/>
<path d="M66.3786 64.068C66.4174 64.3834 66.4639 64.7147 66.5182 65.0459C66.5337 65.1958 66.557 65.3456 66.5803 65.4954C67.6581 72.475 70.1782 82.199 70.1782 82.199L74.9083 81.2921L75.3813 81.1975L87.5942 78.8552C87.5942 78.8552 84.4382 73.2163 80.6929 67.9087C80.5689 67.7352 80.4448 67.5538 80.313 67.3803C78.4132 64.7305 76.3816 62.2068 74.5438 60.5743C68.922 55.5821 65.4636 57.0727 66.3786 64.068Z" fill="#605ED8"/>
<path d="M78.3049 68.5877C79.1424 68.5009 79.8945 68.2407 80.6389 67.941C80.6622 67.9331 80.6777 67.9252 80.701 67.9094C80.5769 67.7359 80.4528 67.5545 80.321 67.381C79.6076 67.6965 78.933 68.0671 78.3049 68.5877ZM66.5262 65.0466C66.5418 65.1965 66.565 65.3463 66.5883 65.4961C67.007 65.7485 67.4412 65.9536 67.891 66.1428C68.6354 66.4346 69.3953 66.687 70.225 66.7659C69.5737 66.2296 68.8603 65.8747 68.1236 65.5592C67.6041 65.3542 67.0768 65.1649 66.5262 65.0466ZM74.9163 81.2928L75.3893 81.1982C75.6219 80.7959 75.808 80.378 75.9864 79.9521C76.2811 79.195 76.5292 78.4221 76.599 77.5783C76.0795 78.2328 75.7228 78.9663 75.4126 79.7076C75.211 80.2202 75.0326 80.7486 74.9163 81.2928Z" fill="white"/>
<path d="M84.6011 75.2084C83.4101 75.0846 75.2844 76.1256 69.6657 77.6359C69.5804 77.6587 69.6075 77.7834 69.6936 77.7715C70.331 77.6848 83.4876 75.8188 84.6383 75.3914C84.7337 75.3567 84.6864 75.2171 84.6011 75.2084Z" fill="#263238"/>
<path d="M67.0341 71.6902C67.0233 71.6358 67.0985 71.6169 67.1218 71.6626C67.4125 72.225 67.6227 72.8259 67.8499 73.4166C67.9018 73.553 67.9491 73.691 67.9988 73.8283C67.763 72.3259 67.5513 70.8219 67.3459 69.3259C67.3358 69.2541 67.4428 69.2352 67.4552 69.3069C68.3896 74.4513 69.2278 76.9158 70.294 82.0271C70.8058 81.9695 71.3168 81.9127 71.8286 81.8551C71.9472 81.8417 71.9759 82.0129 71.8604 82.0413C71.2982 82.1753 70.7368 82.3102 70.1754 82.4443C70.0963 82.4632 69.9908 82.4088 69.9621 82.3299C68.7812 79.1185 68.7362 78.2904 68.1717 74.9008C67.9732 74.4363 67.7692 73.9726 67.5963 73.4978C67.3808 72.9056 67.159 72.3109 67.0341 71.6902Z" fill="#263238"/>
<path d="M59.5621 64.771C62.2373 65.7269 67.3923 61.9705 69.6131 58.7158C69.7643 58.4918 69.6673 55.9555 69.6937 52.8679C69.717 50.9941 69.786 48.9089 69.9837 47.0107C70.0264 46.6211 57.9748 48.6392 57.9748 48.6392C57.9748 48.6392 58.7099 52.7426 58.3446 56.0502C58.3113 56.3262 58.257 56.5809 58.1833 56.8207C58.1756 56.8562 58.1609 56.8979 58.1531 56.9476C57.7615 58.4019 56.9776 63.8452 59.5621 64.771Z" fill="#EB9481"/>
<path d="M69.2578 46.9833C68.38 50.134 65.6071 57.6766 59.3456 57.1458C58.9098 57.1096 58.5128 57.0441 58.1546 56.9503C58.1569 56.8966 58.1739 56.8596 58.1832 56.8217C58.2546 56.5796 58.312 56.3288 58.3469 56.0543C58.7121 52.7404 57.9739 48.6371 57.9739 48.6371C57.9739 48.6371 66.6679 47.1813 69.2578 46.9833Z" fill="#263238"/>
<path d="M73.1864 41.9602C73.1864 41.9602 72.9639 44.8577 73.1864 45.8727C73.409 46.8869 75.5995 48.0186 75.5995 48.0186C75.5995 48.0186 73.0329 48.8451 72.3172 48.6456C71.6015 48.4461 70.5019 46.5281 70.5019 46.5281C70.5019 46.5281 71.4735 49.5715 72.4978 49.7647C73.1337 49.8846 70.9245 49.8325 70.9245 49.8325C70.9245 49.8325 69.7466 49.7465 69.0247 48.8562C68.3028 47.9658 73.1864 41.9602 73.1864 41.9602Z" fill="#263238"/>
<path d="M72.0497 32.0167C73.3237 36.262 71.1208 48.5271 68.1517 51.2621C63.8473 55.2266 56.801 55.606 53.4884 50.3441C50.2774 45.2439 53.4279 29.3116 56.7437 26.8266C61.6288 23.1657 70.1678 25.7461 72.0497 32.0167Z" fill="#EB9481"/>
<path d="M62.3799 37.3036C62.0379 37.1499 61.7471 36.9495 61.4238 36.7618C61.0593 36.5497 60.7476 36.4188 60.5522 36.0197C60.4475 35.806 60.5623 35.474 60.7569 35.3509C61.2105 35.0647 61.7207 35.2121 62.1697 35.4487C62.6567 35.7058 62.9676 36.0308 63.1855 36.5426C63.3964 37.0387 62.8311 37.5063 62.3799 37.3036Z" fill="#263238"/>
<path d="M54.1172 36.1704C54.4902 36.2043 54.8399 36.1727 55.2113 36.168C55.6316 36.1625 55.9666 36.2019 56.3272 35.9488C56.521 35.8131 56.5784 35.4669 56.4668 35.2634C56.2062 34.7894 55.6898 34.6664 55.1842 34.6522C54.6352 34.6364 54.2087 34.7681 53.7745 35.1081C53.3534 35.4377 53.6256 36.1254 54.1172 36.1704Z" fill="#263238"/>
<path d="M60.5971 47.2006C60.4366 47.4293 60.2885 47.7314 59.9985 47.8094C59.7201 47.8852 59.3658 47.815 59.0882 47.7598C59.061 47.7542 59.0393 47.7866 59.0603 47.8087C59.327 48.0878 59.8054 48.2061 60.1707 48.0705C60.5274 47.938 60.653 47.5815 60.6817 47.2235C60.6863 47.1738 60.6212 47.1667 60.5971 47.2006Z" fill="#263238"/>
<path d="M60.3601 45.838C59.7808 46.4744 59.0434 46.7465 58.2943 46.7591C57.9601 46.767 57.6182 46.7173 57.2902 46.6266C57.225 46.6132 57.1607 46.5943 57.1041 46.5706C57.0459 46.5525 56.994 46.5359 56.9312 46.5107C56.8389 46.4791 56.8001 46.39 56.8001 46.2962L56.8017 46.2899C56.8079 46.2599 56.8125 46.2355 56.8241 46.2063C56.8241 46.2063 56.8241 46.2063 56.8249 46.2L56.8389 46.1274C56.9319 45.4878 57.1615 44.5304 57.1615 44.5304C56.9125 44.6061 55.6533 44.9302 55.7293 44.6006C56.369 41.8758 57.0793 38.8458 58.2812 36.2717C58.3168 36.1849 58.4494 36.2299 58.4262 36.3198C57.9136 38.9633 56.9474 41.4973 56.3907 44.1447C56.7877 44.0675 57.4414 43.9105 57.7678 43.976C57.8524 44.0178 57.2933 45.8183 57.2739 46.1093C57.2739 46.1093 57.2716 46.1211 57.2739 46.1408C58.3021 46.4657 59.1512 46.2851 60.2965 45.7504C60.3655 45.7142 60.4206 45.7812 60.3601 45.838Z" fill="#263238"/>
<path d="M71.3546 42.8378C69.1958 42.1785 68.197 34.7715 68.197 34.7715L67.7256 38.8275C67.7256 38.8275 66.0763 37.4347 65.3179 35.6019C64.7766 34.2935 64.9759 32.4749 65.1946 31.5837C65.1946 31.5837 62.7621 34.1106 59.9822 34.8156C58.9602 35.0751 52.1411 34.1516 52.1473 33.6776C52.1652 32.2644 54.5085 28.038 56.4145 26.7572C58.6074 25.2832 61.7316 23.8708 66.1918 25.6799C70.6513 27.4899 71.7849 30.4371 72.4184 32.7186C73.0512 35.0002 72.1478 43.0799 71.3546 42.8378Z" fill="#263238"/>
<path d="M69.4779 42.0124C69.4779 42.0124 72.2818 38.1023 74.0319 39.1276C75.7821 40.152 73.6186 45.8587 71.5266 46.6024C69.4345 47.3461 68.7187 45.3902 68.7187 45.3902L69.4779 42.0124Z" fill="#EB9481"/>
<path d="M73.3607 40.7477C73.394 40.7454 73.3994 40.7927 73.3707 40.8045C71.9029 41.3755 71.1088 42.7328 70.5443 44.146C70.9886 43.6066 71.5842 43.3187 72.2952 43.8574C72.3324 43.8858 72.2952 43.9457 72.2541 43.9355C71.6602 43.7935 71.2275 43.8897 70.815 44.3676C70.5226 44.706 70.3195 45.1366 70.107 45.5301C70.0357 45.661 69.8022 45.5853 69.855 45.4339C69.8588 45.4228 69.8635 45.411 69.8674 45.4C69.8682 43.5104 71.3632 40.8968 73.3607 40.7477Z" fill="#263238"/>
<path d="M60.5021 24.8409C61.8575 24.2652 63.4735 23.6697 65.343 23.4631C67.2126 23.2565 73.088 23.8204 74.4791 25.0436C75.8702 26.2667 76.1485 31.9111 76.1726 32.7368C76.1974 33.5633 75.7508 38.5413 73.9557 39.714C72.1606 40.8867 72.1319 32.4151 69.3752 29.5578C66.6194 26.7005 60.5021 24.8409 60.5021 24.8409Z" fill="#605ED8"/>
<path opacity="0.1" d="M60.5021 24.8427C60.5021 24.8427 66.6217 26.7016 69.376 29.5588C72.1342 32.4122 72.1621 40.8862 73.9595 39.7159C74.7505 39.1985 75.1428 38.4177 75.4871 37.0991C75.1568 34.618 74.2364 30.7615 72.252 28.0667C70.3934 25.5423 67.1459 24.2268 63.6549 23.7646C62.4825 24.0422 61.4326 24.4468 60.5021 24.8427Z" fill="black"/>
<path d="M73.3838 44.7335C73.2621 42.4732 71.1064 36.3935 68.7972 32.8895C66.488 29.3856 59.5627 27.2428 58.5888 27.283C56.2245 27.3808 55.4119 28.0945 55.0412 27.8737C54.6706 27.6521 57.1325 25.8887 57.804 25.4952C58.4756 25.1024 60.2792 24.1773 61.3058 24.2207C62.3325 24.2633 68.6522 25.0125 70.9079 27.7972C73.1636 30.5827 76.2909 38.3336 75.662 40.2934C75.5108 40.7634 74.8874 41.0576 74.6796 41.724C74.4058 42.5994 74.2081 43.6144 73.9367 44.2248C73.7172 44.7185 73.3939 44.9306 73.3838 44.7335Z" fill="#605ED8"/>
<path d="M68.2824 31.3249C68.833 30.9921 69.3471 30.6286 69.8364 30.2066C70.3187 29.7902 70.801 29.3257 71.1732 28.8036C71.2003 28.765 71.2616 28.7981 71.2368 28.8407C70.8964 29.429 70.5211 29.9653 70.0155 30.4212C69.5301 30.8581 68.9423 31.2169 68.3313 31.4417C68.2638 31.4661 68.2227 31.3612 68.2824 31.3249Z" fill="#263238"/>
<path d="M73.4447 42.4787C73.509 42.3171 73.6168 42.1743 73.6959 42.019C73.7859 41.8415 73.8603 41.657 73.9123 41.4645C74.0107 41.0962 74.0061 40.7193 74.1829 40.373C74.3225 40.0986 74.5202 39.8652 74.7156 39.6309C74.9382 39.3644 75.1584 39.0852 75.1677 38.7216C75.1692 38.6735 75.2421 38.6727 75.2413 38.7208C75.2328 39.4069 74.7722 39.8857 74.4682 40.4543C74.2736 40.8186 74.2759 41.2358 74.1449 41.6215C74.034 41.9488 73.8471 42.3675 73.5432 42.5537C73.4966 42.5828 73.4222 42.5355 73.4447 42.4787Z" fill="#263238"/>
<path d="M72.7264 40.0281C72.9412 39.7741 73.1708 39.5486 73.3623 39.2725C73.5453 39.0075 73.7066 38.7236 73.8531 38.4366C73.9981 38.1526 74.1199 37.8577 74.2587 37.5714C74.4231 37.2323 74.6286 36.9097 74.7767 36.5643C74.7953 36.5201 74.8589 36.558 74.8402 36.6022C74.6867 36.961 74.5944 37.3482 74.4525 37.7126C74.33 38.0265 74.1765 38.3317 74.0144 38.6266C73.8586 38.9105 73.6825 39.1803 73.4763 39.4295C73.2801 39.6653 73.0281 39.9263 72.7505 40.0612C72.7303 40.0706 72.7109 40.0462 72.7264 40.0281Z" fill="#263238"/>
<path d="M71.9502 37.8065C72.4146 37.4177 72.8465 36.9501 73.1815 36.4406C73.5119 35.9374 73.8143 35.4122 74.1105 34.8877C74.1306 34.8523 74.1935 34.8759 74.1779 34.9161C73.9569 35.5068 73.7421 36.0936 73.3847 36.6165C73.2156 36.8641 73.0288 37.118 72.807 37.3199C72.5651 37.5392 72.2828 37.7143 71.9974 37.8688C71.9602 37.8878 71.9145 37.8365 71.9502 37.8065Z" fill="#263238"/>
<path d="M71.1067 35.6794C71.3603 35.5327 71.5262 35.3127 71.7053 35.0856C71.9015 34.8364 72.0923 34.5808 72.2753 34.3214C72.4505 34.0714 72.632 33.8269 72.8072 33.5769C72.9832 33.3253 73.1593 33.0627 73.219 32.7551C73.2267 32.7141 73.2942 32.722 73.2911 32.7646C73.2717 33.0793 73.1585 33.3632 73.0212 33.6423C72.8716 33.9483 72.7041 34.2417 72.5048 34.5162C72.3086 34.7867 72.1 35.0469 71.872 35.2898C71.6728 35.5012 71.4386 35.7181 71.1478 35.7756C71.092 35.7859 71.0532 35.711 71.1067 35.6794Z" fill="#263238"/>
<path d="M70.5167 32.9891C70.7261 32.7872 70.9331 32.5853 71.1262 32.3677C71.3185 32.1508 71.5 31.9237 71.6783 31.695C71.8644 31.456 72.059 31.217 72.2296 30.9663C72.2568 30.9268 72.3134 30.9599 72.294 31.0041C72.1668 31.2849 72.0397 31.5585 71.8714 31.818C71.7062 32.0719 71.5217 32.3085 71.3232 32.5364C71.1285 32.7596 70.9238 32.9797 70.7021 33.176C70.488 33.3653 70.2453 33.5854 69.9724 33.6768C69.9321 33.6902 69.8879 33.6382 69.9135 33.6003C70.074 33.3661 70.3151 33.1839 70.5167 32.9891Z" fill="#263238"/>
<path d="M66.607 30.0128C66.8303 29.7391 67.0482 29.4717 67.2963 29.221C67.5484 28.9662 67.819 28.7273 68.0966 28.5025C68.6417 28.0624 69.2109 27.6618 69.8382 27.3519C69.8731 27.3345 69.9181 27.3818 69.8832 27.4102C68.8185 28.3061 67.7158 29.1579 66.6589 30.0648C66.6233 30.0964 66.576 30.0498 66.607 30.0128Z" fill="#263238"/>
<path d="M65.297 28.0595C65.5257 27.7922 65.7801 27.5532 66.0623 27.3458C66.6532 26.9113 67.3146 26.595 67.9815 26.3024C68.0241 26.2835 68.0598 26.3403 68.0187 26.3671C67.4372 26.7457 66.8486 27.1155 66.2888 27.528C66.0127 27.7315 65.7366 27.942 65.4846 28.1747C65.2303 28.4097 65.0341 28.6928 64.7922 28.9365C64.7736 28.9554 64.7371 28.9373 64.7457 28.9089C64.8472 28.5927 65.0853 28.3064 65.297 28.0595Z" fill="#263238"/>
<path d="M63.4573 27.1417C63.6682 26.8775 63.9063 26.6433 64.1653 26.428C64.6561 26.0203 65.2074 25.7103 65.8022 25.4887C65.8417 25.4737 65.8665 25.536 65.8309 25.5573C65.2865 25.8775 64.7654 26.2482 64.2823 26.6591C64.0396 26.8649 63.8086 27.0842 63.5744 27.2995C63.341 27.514 63.1425 27.7868 62.8889 27.9753C62.868 27.9911 62.8455 27.9619 62.8563 27.9422C63.0052 27.6528 63.2565 27.3933 63.4573 27.1417Z" fill="#263238"/>
<path d="M62.1369 25.9945C62.3734 25.8052 62.6185 25.6301 62.8651 25.4558C63.1085 25.2839 63.3574 25.1151 63.6436 25.0284C63.6862 25.015 63.7033 25.0726 63.6723 25.097C63.2117 25.4558 62.7581 25.8273 62.306 26.1964C61.8795 26.5442 61.5903 26.9977 61.2467 27.4219C61.2312 27.4409 61.1995 27.4212 61.2064 27.3983C61.3863 26.8431 61.6833 26.3573 62.1369 25.9945Z" fill="#263238"/>
<path d="M60.4829 25.6018C60.9132 25.1815 61.4328 24.9157 61.9794 24.6886C62.0174 24.6728 62.0461 24.739 62.0081 24.7572C61.5002 25.0001 61.0536 25.3794 60.6442 25.7643C60.2262 26.1562 59.8827 26.6121 59.5593 27.0853C59.5438 27.1073 59.502 27.0955 59.512 27.0655C59.7067 26.5056 60.0641 26.0103 60.4829 25.6018Z" fill="#263238"/>
<path d="M58.2901 26.575C58.346 26.4575 58.415 26.3439 58.4863 26.2351C58.6298 26.0143 58.8066 25.8148 58.9911 25.6294C59.3703 25.2493 59.8216 24.9591 60.2659 24.6649C60.3054 24.6389 60.3434 24.7035 60.3031 24.7296C59.865 25.0072 59.4688 25.3479 59.1082 25.7225C58.9306 25.907 58.7717 26.1058 58.6228 26.314C58.5499 26.4157 58.484 26.5222 58.4204 26.6302C58.3607 26.7319 58.3095 26.8589 58.232 26.9465C58.211 26.9701 58.1668 26.9528 58.1692 26.9204C58.1746 26.8053 58.2413 26.6783 58.2901 26.575Z" fill="#263238"/>
<path d="M56.948 26.6731C57.0783 26.4981 57.214 26.3324 57.3629 26.1731C57.5117 26.0146 57.6653 25.8679 57.832 25.7299C58.0018 25.5895 58.1778 25.4555 58.3414 25.3072C58.381 25.2709 58.4291 25.3324 58.3864 25.3655C58.2119 25.502 58.0576 25.666 57.9088 25.8309C57.7684 25.987 57.6257 26.1408 57.4846 26.2962C57.3435 26.4515 57.2023 26.6069 57.0628 26.763C56.9216 26.9208 56.796 27.1045 56.6386 27.2449C56.6122 27.2686 56.5789 27.2402 56.5921 27.2086C56.6774 27.0154 56.8239 26.8411 56.948 26.6731Z" fill="#263238"/>
<path d="M56.5787 59.7327C56.5996 61.7477 56.4461 65.1791 58.1233 66.1712C59.0809 66.7375 60.144 66.7761 61.1978 66.6673C63.4473 66.4339 65.5224 65.3644 67.3601 63.9993C67.8851 63.6097 68.3914 63.1902 68.8931 62.7666C69.3785 62.3565 69.8686 61.9204 70.2997 61.4472C70.33 61.4141 70.375 61.4662 70.3455 61.4993C69.9198 61.9662 69.5197 62.4528 69.0909 62.9173C68.6752 63.3676 68.234 63.7856 67.7703 64.1783C66.8359 64.9693 65.8163 65.6428 64.7237 66.1515C63.642 66.6555 62.5029 66.9962 61.3289 67.1231C60.2185 67.2438 58.9685 67.2201 57.9954 66.56C55.7862 65.0616 56.3778 60.9669 56.5182 59.7493C56.5228 59.7051 56.5779 59.6901 56.5787 59.7327Z" fill="#263238"/>
<ellipse cx="0.874441" cy="1.11278" rx="0.874441" ry="1.11278" transform="matrix(0.995322 0.0966153 -0.112993 0.993596 54.2278 37.2737)" fill="#263238"/>
<ellipse cx="0.874441" cy="1.11278" rx="0.874441" ry="1.11278" transform="matrix(0.995322 0.0966153 -0.112993 0.993596 61.0481 38.6384)" fill="#263238"/>
<defs>
<linearGradient id="paint0_linear_882_1529" x1="153.04" y1="9.54372" x2="153.04" y2="38.5889" gradientUnits="userSpaceOnUse">
<stop stop-color="#605ED8"/>
<stop offset="1" stop-color="#393880"/>
</linearGradient>
<linearGradient id="paint1_linear_882_1529" x1="152.909" y1="266.274" x2="152.909" y2="287.513" gradientUnits="userSpaceOnUse">
<stop stop-color="#6664E6"/>
<stop offset="1" stop-color="#393880"/>
</linearGradient>
</defs>
</svg>
