<svg width="28" height="25" viewBox="0 0 28 25" fill="none" xmlns="http://www.w3.org/2000/svg">
<mask id="path-1-inside-1_3256_41247" fill="white">
<path d="M9.73579 24.5583L7.42434 20.882L3.02843 19.9871L3.46027 15.706L0.494141 12.5L3.46165 9.29404L3.02843 5.01421L7.42572 4.11931L9.73579 0.441736L13.8563 2.08391L17.9767 0.44043L20.2882 4.11931L24.6841 5.0129L24.2522 9.29404L27.2198 12.5L24.255 15.706L24.6855 19.9871L20.2882 20.8807L17.9781 24.5596L13.8563 22.9161L9.73579 24.5583ZM10.3268 22.886L13.8563 21.4999L17.4023 22.886L19.3927 19.7506L23.1989 18.9524L22.8529 15.2435L25.4135 12.5L22.8529 9.74214L23.1989 6.03322L19.3927 5.24936L17.3857 2.11395L13.8563 3.50137L10.3116 2.11395L8.31985 5.24936L4.51357 6.03322L4.8596 9.74214L2.29901 12.5L4.8596 15.2435L4.51357 18.9668L8.31985 19.7506L10.3268 22.886ZM12.403 16.2337L15.8341 12.9951L19.2653 9.75651L18.2854 8.81589L12.403 14.3682L9.42714 11.5751L8.44719 12.5L12.403 16.2337Z"/>
</mask>
<path d="M9.73579 24.5583L8.46594 25.3567L9.1308 26.4141L10.2911 25.9517L9.73579 24.5583ZM7.42434 20.882L8.69419 20.0836L8.35254 19.5402L7.72356 19.4121L7.42434 20.882ZM3.02843 19.9871L1.536 19.8366L1.39985 21.1863L2.72921 21.4569L3.02843 19.9871ZM3.46027 15.706L4.9527 15.8565L5.02057 15.1837L4.56131 14.6873L3.46027 15.706ZM0.494141 12.5L-0.606665 11.4811L-1.5496 12.4998L-0.606902 13.5187L0.494141 12.5ZM3.46165 9.29404L4.56246 10.313L5.02219 9.81631L4.95403 9.14298L3.46165 9.29404ZM3.02843 5.01421L2.7293 3.54434L1.39938 3.81499L1.53606 5.16527L3.02843 5.01421ZM7.42572 4.11931L7.72486 5.58918L8.35427 5.46109L8.69592 4.91718L7.42572 4.11931ZM9.73579 0.441736L10.2911 -0.95168L9.13029 -1.41432L8.46559 -0.356137L9.73579 0.441736ZM13.8563 2.08391L13.3009 3.47732L13.8565 3.69873L14.412 3.47717L13.8563 2.08391ZM17.9767 0.44043L19.2468 -0.357582L18.5819 -1.41587L17.421 -0.952834L17.9767 0.44043ZM20.2882 4.11931L19.0181 4.91732L19.3598 5.46128L19.9894 5.58925L20.2882 4.11931ZM24.6841 5.0129L26.1765 5.16344L26.3127 3.81329L24.9829 3.54296L24.6841 5.0129ZM24.2522 9.29404L22.7598 9.1435L22.6919 9.81654L23.1514 10.313L24.2522 9.29404ZM27.2198 12.5L28.321 13.5184L29.2633 12.4995L28.3206 11.4811L27.2198 12.5ZM24.255 15.706L23.1537 14.6875L22.6949 15.1837L22.7625 15.856L24.255 15.706ZM24.6855 19.9871L24.9842 21.4571L26.3137 21.1869L26.1779 19.837L24.6855 19.9871ZM20.2882 20.8807L19.9895 19.4107L19.3596 19.5387L19.0179 20.083L20.2882 20.8807ZM17.9781 24.5596L17.4226 25.9529L18.5837 26.4159L19.2484 25.3572L17.9781 24.5596ZM13.8563 22.9161L14.4118 21.5228L13.8564 21.3013L13.3009 21.5227L13.8563 22.9161ZM10.3268 22.886L9.06345 23.6947L9.72791 24.7328L10.8751 24.2822L10.3268 22.886ZM13.8563 21.4999L14.4024 20.1029L13.855 19.8889L13.3079 20.1037L13.8563 21.4999ZM17.4023 22.886L16.8562 24.2831L18.0067 24.7328L18.6687 23.6899L17.4023 22.886ZM19.3927 19.7506L19.0848 18.2826L18.4654 18.4125L18.1263 18.9467L19.3927 19.7506ZM23.1989 18.9524L23.5068 20.4205L24.8168 20.1458L24.6925 18.8131L23.1989 18.9524ZM22.8529 15.2435L21.7563 14.22L21.2969 14.7123L21.3594 15.3828L22.8529 15.2435ZM25.4135 12.5L26.5101 13.5235L27.4628 12.5027L26.5128 11.4794L25.4135 12.5ZM22.8529 9.74214L21.3594 9.60281L21.2971 10.271L21.7537 10.7628L22.8529 9.74214ZM23.1989 6.03322L24.6925 6.17255L24.8172 4.83501L23.5015 4.56405L23.1989 6.03322ZM19.3927 5.24936L18.1293 6.05803L18.4704 6.59091L19.0901 6.71853L19.3927 5.24936ZM17.3857 2.11395L18.6491 1.30529L17.9844 0.266884L16.837 0.717941L17.3857 2.11395ZM13.8563 3.50137L13.3095 4.89819L13.8574 5.11264L14.405 4.89739L13.8563 3.50137ZM10.3116 2.11395L10.8583 0.71714L9.70787 0.26685L9.04544 1.30966L10.3116 2.11395ZM8.31985 5.24936L8.62241 6.71853L9.2451 6.5903L9.58599 6.05366L8.31985 5.24936ZM4.51357 6.03322L4.21102 4.56405L2.89527 4.83501L3.02006 6.17255L4.51357 6.03322ZM4.8596 9.74214L5.95884 10.7628L6.41545 10.271L6.35311 9.60281L4.8596 9.74214ZM2.29901 12.5L1.19976 11.4794L0.249672 12.5027L1.20243 13.5235L2.29901 12.5ZM4.8596 15.2435L6.35316 15.3823L6.41545 14.7121L5.95618 14.22L4.8596 15.2435ZM4.51357 18.9668L3.02001 18.828L2.89574 20.1651L4.21102 20.436L4.51357 18.9668ZM8.31985 19.7506L9.58321 18.942L9.24211 18.4091L8.62241 18.2815L8.31985 19.7506ZM12.403 16.2337L11.3733 17.3246L12.403 18.2964L13.4326 17.3246L12.403 16.2337ZM19.2653 9.75651L20.2949 10.8473L21.441 9.76564L20.3041 8.67436L19.2653 9.75651ZM18.2854 8.81589L19.3241 7.73374L18.2941 6.74504L17.2558 7.72506L18.2854 8.81589ZM12.403 14.3682L11.3764 15.4619L12.4058 16.4281L13.4326 15.459L12.403 14.3682ZM9.42714 11.5751L10.4537 10.4814L9.42426 9.51512L8.39753 10.4842L9.42714 11.5751ZM8.44719 12.5L7.41758 11.4092L6.26189 12.5L7.41758 13.5908L8.44719 12.5ZM11.0056 23.7598L8.69419 20.0836L6.15449 21.6804L8.46594 25.3567L11.0056 23.7598ZM7.72356 19.4121L3.32766 18.5172L2.72921 21.4569L7.12511 22.3518L7.72356 19.4121ZM4.52086 20.1376L4.9527 15.8565L1.96784 15.5554L1.536 19.8366L4.52086 20.1376ZM4.56131 14.6873L1.59518 11.4813L-0.606902 13.5187L2.35923 16.7246L4.56131 14.6873ZM1.59495 13.5189L4.56246 10.313L2.36085 8.27511L-0.606665 11.4811L1.59495 13.5189ZM4.95403 9.14298L4.5208 4.86314L1.53606 5.16527L1.96928 9.44511L4.95403 9.14298ZM3.32757 6.48408L7.72486 5.58918L7.12659 2.64944L2.7293 3.54434L3.32757 6.48408ZM8.69592 4.91718L11.006 1.23961L8.46559 -0.356137L6.15553 3.32144L8.69592 4.91718ZM9.18046 1.83515L13.3009 3.47732L14.4116 0.690491L10.2911 -0.95168L9.18046 1.83515ZM14.412 3.47717L18.5324 1.83369L17.421 -0.952834L13.3005 0.690643L14.412 3.47717ZM16.7066 1.23844L19.0181 4.91732L21.5583 3.3213L19.2468 -0.357582L16.7066 1.23844ZM19.9894 5.58925L24.3853 6.48284L24.9829 3.54296L20.587 2.64937L19.9894 5.58925ZM23.1917 4.86236L22.7598 9.1435L25.7447 9.44458L26.1765 5.16344L23.1917 4.86236ZM23.1514 10.313L26.119 13.5189L28.3206 11.4811L25.3531 8.27511L23.1514 10.313ZM26.1185 11.4816L23.1537 14.6875L25.3563 16.7244L28.321 13.5184L26.1185 11.4816ZM22.7625 15.856L23.193 20.1372L26.1779 19.837L25.7475 15.5559L22.7625 15.856ZM24.3868 18.5171L19.9895 19.4107L20.5869 22.3506L24.9842 21.4571L24.3868 18.5171ZM19.0179 20.083L16.7078 23.7619L19.2484 25.3572L21.5585 21.6784L19.0179 20.083ZM18.5337 23.1662L14.4118 21.5228L13.3007 24.3094L17.4226 25.9529L18.5337 23.1662ZM13.3009 21.5227L9.18046 23.1648L10.2911 25.9517L14.4116 24.3095L13.3009 21.5227ZM10.8751 24.2822L14.4046 22.8961L13.3079 20.1037L9.77848 21.4899L10.8751 24.2822ZM13.3102 22.897L16.8562 24.2831L17.9484 21.489L14.4024 20.1029L13.3102 22.897ZM18.6687 23.6899L20.6591 20.5545L18.1263 18.9467L16.1359 22.0821L18.6687 23.6899ZM19.7005 21.2187L23.5068 20.4205L22.8911 17.4843L19.0848 18.2826L19.7005 21.2187ZM24.6925 18.8131L24.3464 15.1041L21.3594 15.3828L21.7054 19.0917L24.6925 18.8131ZM23.9495 16.267L26.5101 13.5235L24.3169 11.4765L21.7563 14.22L23.9495 16.267ZM26.5128 11.4794L23.9522 8.72153L21.7537 10.7628L24.3143 13.5206L26.5128 11.4794ZM24.3464 9.88148L24.6925 6.17255L21.7054 5.89388L21.3594 9.60281L24.3464 9.88148ZM23.5015 4.56405L19.6952 3.78019L19.0901 6.71853L22.8964 7.50239L23.5015 4.56405ZM20.656 4.4407L18.6491 1.30529L16.1224 2.92262L18.1293 6.05803L20.656 4.4407ZM16.837 0.717941L13.3075 2.10536L14.405 4.89739L17.9345 3.50997L16.837 0.717941ZM14.403 2.10456L10.8583 0.71714L9.76485 3.51077L13.3095 4.89819L14.403 2.10456ZM9.04544 1.30966L7.05371 4.44507L9.58599 6.05366L11.5777 2.91825L9.04544 1.30966ZM8.0173 3.78019L4.21102 4.56405L4.81613 7.50239L8.62241 6.71853L8.0173 3.78019ZM3.02006 6.17255L3.36608 9.88148L6.35311 9.60281L6.00709 5.89388L3.02006 6.17255ZM3.76035 8.72153L1.19976 11.4794L3.39825 13.5206L5.95884 10.7628L3.76035 8.72153ZM1.20243 13.5235L3.76302 16.267L5.95618 14.22L3.39559 11.4765L1.20243 13.5235ZM3.36603 15.1047L3.02001 18.828L6.00714 19.1056L6.35316 15.3823L3.36603 15.1047ZM4.21102 20.436L8.0173 21.2198L8.62241 18.2815L4.81613 17.4976L4.21102 20.436ZM7.0565 20.5593L9.06345 23.6947L11.5902 22.0774L9.58321 18.942L7.0565 20.5593ZM20.3041 8.67436L19.3241 7.73374L17.2467 9.89804L18.2266 10.8387L20.3041 8.67436ZM17.2558 7.72506L11.3733 13.2774L13.4326 15.459L19.315 9.90672L17.2558 7.72506ZM13.4295 13.2745L10.4537 10.4814L8.40058 12.6688L11.3764 15.4619L13.4295 13.2745ZM8.39753 10.4842L7.41758 11.4092L9.4768 13.5908L10.4567 12.6659L8.39753 10.4842ZM7.41758 13.5908L11.3733 17.3246L13.4326 15.1429L9.4768 11.4092L7.41758 13.5908ZM13.4326 17.3246L16.8638 14.086L14.8045 11.9043L11.3733 15.1429L13.4326 17.3246ZM16.8638 14.086L20.2949 10.8473L18.2357 8.66569L14.8045 11.9043L16.8638 14.086Z" fill="#2B3F6C" mask="url(#path-1-inside-1_3256_41247)"/>
</svg>
